<?xml version="1.0" encoding="utf-8"?>
<!-- Generator: Adobe Illustrator 28.0.0, SVG Export Plug-In . SVG Version: 6.00 Build 0)  -->
<svg version="1.1" id="圖層_1" xmlns="http://www.w3.org/2000/svg" xmlns:xlink="http://www.w3.org/1999/xlink" x="0px" y="0px"
	 viewBox="0 0 200 200" style="enable-background:new 0 0 200 200;" xml:space="preserve">
<style type="text/css">
	.st0{display:none;}
	.st1{display:inline;fill:#474747;}
	.st2{display:inline;fill:#8BCFDB;}
	.st3{display:inline;fill:#46A7B1;}
	.st4{display:inline;fill:#E5D69B;}
	.st5{display:inline;fill:#D2B864;}
	.st6{display:inline;}
	.st7{fill:#474747;}
	.st8{fill:#E5D69B;}
	.st9{fill:#F7B52C;}
	.st10{fill:#C4D593;}
	.st11{fill:#FFFFFF;}
</style>
<g class="st0">
	<rect x="96.4" y="28" class="st1" width="19.3" height="7.7"/>
	<polygon class="st2" points="113.2,23 113.2,40.8 177.7,56.1 177.7,7.7 	"/>
	<polygon class="st3" points="177.3,7.7 177.3,46.8 113.2,31.6 113.2,40.8 177.7,56.1 177.7,7.7 	"/>
	<path class="st1" d="M177.7,59c-0.2,0-0.4,0-0.7-0.1l-64.5-15.3c-1.3-0.3-2.2-1.5-2.2-2.8V23c0-1.3,0.9-2.5,2.2-2.8L177,4.9
		c0.9-0.2,1.8,0,2.4,0.5c0.7,0.5,1.1,1.4,1.1,2.3v48.4c0,0.9-0.4,1.7-1.1,2.3C179,58.8,178.3,59,177.7,59z M116.1,38.5l58.7,14V11.3
		l-58.7,13.9C116.1,25.2,116.1,38.5,116.1,38.5z"/>
	<path class="st2" d="M89.7,63.8h-10c-6.8,0-12.3-5.5-12.3-12.3V28.3c0-6.8,5.5-12.3,12.3-12.3h10c6.8,0,12.3,5.5,12.3,12.3v23.2
		C102,58.3,96.5,63.8,89.7,63.8z"/>
	<path class="st3" d="M75.3,52.1V27.8c0-6.5,5.3-11.8,11.8-11.8h-7.8c-6.5,0-11.8,5.3-11.8,11.8v24.3c0,6.5,5.3,11.8,11.8,11.8h7.8
		C80.6,63.8,75.3,58.6,75.3,52.1z"/>
	<path class="st3" d="M90.2,16.1h-7.8c6.5,0,11.8,5.3,11.8,11.8v24.3c0,6.5-5.3,11.8-11.8,11.8h7.8c6.5,0,11.8-5.3,11.8-11.8V27.8
		C102,21.4,96.7,16.1,90.2,16.1z"/>
	<path class="st1" d="M90.2,66.7h-11c-8.1,0-14.6-6.6-14.6-14.6V27.8c0-8.1,6.6-14.6,14.6-14.6h11c8.1,0,14.6,6.6,14.6,14.6v24.3
		C104.8,60.2,98.3,66.7,90.2,66.7z M79.2,18.9c-4.9,0-8.9,4-8.9,8.9v24.3c0,4.9,4,8.9,8.9,8.9h11c4.9,0,8.9-4,8.9-8.9V27.8
		c0-4.9-4-8.9-8.9-8.9H79.2z"/>
	<path class="st2" d="M110.9,195H55.1c-8.7,0-15.9-7.2-15.9-15.9V77.6c0-12.6,10.3-22.9,22.9-22.9h41.8c12.6,0,22.9,10.3,22.9,22.9
		v101.5C126.8,187.9,119.7,195,110.9,195z"/>
	<path class="st3" d="M48.5,179.8V76.7c0-12.1,9.9-21.9,21.9-21.9h-9.3c-12.1,0-21.9,9.9-21.9,21.9v103.2c0,8.4,6.8,15.2,15.2,15.2
		h9.3C55.3,195,48.5,188.2,48.5,179.8z"/>
	<path class="st3" d="M104.9,54.7h-8.5c12.1,0,21.9,9.9,21.9,21.9v103.2c0,8.4-6.8,15.2-15.2,15.2h8.5c8.4,0,15.2-6.8,15.2-15.2
		V76.7C126.8,64.6,117,54.7,104.9,54.7z"/>
	<path class="st1" d="M111.6,197.9H54.4c-10,0-18.1-8.1-18.1-18.1V76.7c0-13.7,11.1-24.8,24.8-24.8h43.7c13.7,0,24.8,11.1,24.8,24.8
		v103.2C129.7,189.8,121.6,197.9,111.6,197.9z M61.2,57.6c-10.5,0-19.1,8.6-19.1,19.1v103.2c0,6.8,5.5,12.3,12.3,12.3h57.2
		c6.8,0,12.3-5.5,12.3-12.3V76.7c0-10.5-8.6-19.1-19.1-19.1H61.2z"/>
	<circle class="st4" cx="65.2" cy="22.8" r="16.8"/>
	<path class="st5" d="M70.8,7c2,2.8,3.2,6.2,3.2,9.9c0,9.3-7.5,16.8-16.8,16.8c-2,0-3.9-0.4-5.7-1c3.1,4.2,8,6.9,13.6,6.9
		c9.3,0,16.8-7.5,16.8-16.8C82,15.5,77.3,9.3,70.8,7z"/>
	<path class="st1" d="M65.2,42.5c-10.9,0-19.7-8.8-19.7-19.7S54.3,3.1,65.2,3.1s19.7,8.8,19.7,19.7S76,42.5,65.2,42.5z M65.2,8.8
		c-7.7,0-14,6.3-14,14s6.3,14,14,14s14-6.3,14-14S72.9,8.8,65.2,8.8z"/>
	<path class="st1" d="M23.9,77.9c-0.5,0-1.1-0.1-1.6-0.3c-1.9-0.9-2.8-3.1-1.9-5.1c0.7-1.4,16.3-35.2,44.5-35.9
		c2.1-0.1,3.9,1.6,3.9,3.7c0.1,2.1-1.6,3.9-3.7,3.9c-23.4,0.6-37.6,31.2-37.8,31.5C26.7,77.1,25.3,77.9,23.9,77.9z"/>
	<g class="st6">
		<path class="st7" d="M87.1,157.1c-7.6,0-14-5.3-16.3-13.5c-2.2-7.9-1-15.9,3.5-24c1.3-2.4,2.9-4.6,4.4-6.7
			c0.8-1.2,1.6-2.3,2.4-3.4c0.7-1,1.3-2.1,1.8-3.2c1.3-2.8,1.3-5.3,0.1-7.7c-0.8-1.6-0.4-3.5,0.9-4.7c0.8-0.7,1.7-1,2.7-1
			c0.7,0,1.4,0.2,2.1,0.6c5.1,3.1,8.6,6.9,10.7,11.7c3.4,7.5,4.2,14.7,2.3,21.5c-0.7,2.5-1.9,4.7-3.1,6.7c-0.4,0.7-0.9,1.5-1.2,2.3
			c-0.3,0.6-0.6,1.2-1,1.7c-0.4,0.7-0.8,1.4-1,2c-0.6,1.5-0.5,2.5-0.2,2.9c0.3,0.5,1.3,0.7,2.5,0.7l0,0c0.3,0,0.6,0,0.9,0
			c0.1,0,0.2,0,0.4,0c1.5,0,2.8,0.8,3.5,2.1c0.8,1.4,0.6,3.2-0.4,4.4C97.8,154.5,92.9,157.1,87.1,157.1
			C87.2,157.1,87.1,157.1,87.1,157.1z"/>
		<path class="st8" d="M98.8,146.8c-3.2,3.9-6.9,6.3-11.7,6.3c-5.9,0-10.7-4.2-12.5-10.6c-2.1-7.4-0.5-14.4,3.1-21
			c1.9-3.4,4.5-6.6,6.6-9.9c0.8-1.2,1.5-2.5,2.1-3.8c1.6-3.6,1.9-7.3,0.1-11.1c4,2.5,7.2,5.7,9.2,10c2.7,6,3.9,12.3,2.1,18.8
			c-0.8,2.9-2.6,5.5-4,8.2c-0.7,1.4-1.7,2.7-2.2,4.1C89.5,143.5,92.5,147.4,98.8,146.8z M90,114.5c-0.6,1.5-0.9,2.7-1.6,3.8
			c-1.6,2.4-3.3,4.7-5,7c-3.4,4.5-4.2,11.2-1.9,15.2c0.2-1.7,0.4-3.5,0.8-5.3c0.6-2.5,2.4-4.2,4.1-5.9
			C90.5,125.1,91.1,120.2,90,114.5z"/>
		<path class="st7" d="M79.7,157.9c-5.7,0-10.4-2.3-14-6.9c-6.9-8.6-7.5-21.8-1.5-31.4c2.3-3.7,4.3-7.7,3.9-12.4
			c-0.1-1.4,0.5-2.4,0.7-2.7c0.7-1.2,1.8-1.9,3.2-2c0.1,0,0.2,0,0.3,0c1.2,0,2.4,0.6,3.1,1.5c2.2,2.7,3.2,6,3.3,10
			c0.1,4.6-1.2,8.7-2.5,12.6l-0.1,0.3c-1.9,5.7-1.8,11,0.2,16.1c1.2,3.2,3.1,5.4,5.6,6.9c0.3,0.2,0.5,0.3,0.8,0.5l0.2,0.1
			c1.4,1,2.1,2.7,1.6,4.4s-1.9,2.8-3.6,2.9C80.5,157.9,80.1,157.9,79.7,157.9z"/>
		<path class="st9" d="M80.6,153.8c-4.9,0.3-8.8-1.6-11.8-5.4c-5.8-7.2-6.3-18.6-1.3-26.8c2.8-4.6,5-9.3,4.5-14.8
			c0-0.1,0.1-0.2,0.2-0.4c1.8,2.3,2.4,4.8,2.5,7.6c0.1,4-1.2,7.8-2.4,11.6c-2.1,6.3-2.2,12.6,0.3,18.9c1.5,3.8,3.8,6.8,7.3,8.9
			C80.1,153.5,80.4,153.7,80.6,153.8z"/>
		<path class="st7" d="M90,114.5c1.1,5.7,0.6,10.6-3.6,14.7c-1.8,1.7-3.6,3.4-4.1,5.9c-0.4,1.8-0.6,3.7-0.8,5.3
			c-2.2-4-1.4-10.7,1.9-15.2c1.7-2.3,3.4-4.6,5-7C89,117.2,89.4,116,90,114.5z"/>
	</g>
</g>
<g>
	<polygon class="st10" points="177,6.3 177,45.4 112.9,30.2 112.9,39.4 177.4,54.7 177.4,6.3 	"/>
	<path class="st10" d="M48.2,178.4V75.3c0-12.1,9.9-21.9,21.9-21.9h-9.3c-12.1,0-21.9,9.9-21.9,21.9v103.2c0,8.4,6.8,15.2,15.2,15.2
		h9.3C55,193.6,48.2,186.8,48.2,178.4z"/>
	<path class="st10" d="M104.6,53.3h-8.5c12.1,0,21.9,9.9,21.9,21.9v103.2c0,8.4-6.8,15.2-15.2,15.2h8.5c8.4,0,15.2-6.8,15.2-15.2
		V75.3C126.5,63.2,116.7,53.3,104.6,53.3z"/>
	<path class="st10" d="M70.5,5.6c2,2.8,3.2,6.2,3.2,9.9c0,9.3-7.5,16.8-16.8,16.8c-2,0-3.9-0.4-5.7-1c3.1,4.2,8,6.9,13.6,6.9
		c9.3,0,16.8-7.5,16.8-16.8C81.7,14.1,77,7.9,70.5,5.6z"/>
	<path class="st11" d="M109.6,125.5l-0.9-6.7l-2.5,1.5c0-3.7-1.1-7.4-3.9-10.4l-2.9-3.1c-0.6-0.6-1.7-0.4-1.9,0.5l-1.1,4
		c0,0,0,0,0,0c-0.3,1.1-1.9,1-2.2-0.1c-0.9-4.1-2.7-9-6.2-13.6L82.9,91c-0.7-0.9-2.1-0.3-2,0.8c0,0,2.4,6.2-1.6,14.2
		c-0.8,1.6-2.8,2.9-4.3,5.2c-0.5,0.7-1.6,0.7-2-0.1c-0.3-0.6-0.5-1.2-0.6-1.9l-0.5-4c-0.1-0.9-1.1-1.3-1.8-0.8l-3.3,2.5
		c-5,3.8-6.2,9.8-6.1,14.6l-0.9,0.4c-3.5,1.5-2.8,6.2-1.5,11c1.5,5.7,9.1,12.3,13.8,14.3l0.2,0.1c4.2,1.5,8.1,2.1,11.6,2.1
		c11.8,0,19.7-6.9,22.1-10.1C107.5,137.2,111.1,130.4,109.6,125.5z M103.1,137.2c-1.2,1.7-12.1,13.2-29.6,6.8c0,0-0.1,0-0.1,0
		c-4.1-1.8-10.6-7.7-11.7-12c-0.5-1.8-0.8-3.4-0.9-4.6c-0.1-0.9,0.9-1.6,1.7-1.1c0.2,0.1,0.4,0.2,0.5,0.3c0.8,0.4,1.8-0.3,1.6-1.2
		c-0.6-3.5-0.8-10.7,2.9-15c0.6-0.7,1.6,0.2,1.8,1.1c1.1,3.2,3.3,3.9,4.8,4.8c0.6,0.3,1.2,0,1.6-0.5c7.3-9.8,7.3-10.8,8.5-14.2
		c0.3-1,1.8-1.3,3,1.4c3.2,7,4.7,12.4,4.7,15.4c0,0.8,0.8,1.4,1.6,1c1.7-0.7,3.8-2.3,5.6-5.1c0.5-0.8,1.5-0.9,2-0.2
		c2.9,4.8,1.5,11.2-0.9,14.9c-0.6,0.8,0.2,2,1.2,1.7c0.7-0.2,1.6-0.7,2.7-1.8c0.8-0.8,2.1-0.2,1.9,0.9
		C105.6,132.7,104.1,136,103.1,137.2z"/>
	<path class="st10" d="M97,129.9c-0.2-0.2-0.3-0.4-0.3-0.7c0.3-3.4-0.3-7.5-3.6-9.9L90,117c-0.1-0.1-0.2-0.2-0.2-0.2
		c-2.2-3.7-5-5.6-6.6-6.7c-0.3-0.2-0.7-0.4-0.8-0.5l-4.9-2.7c-0.7-0.6-1.7,0.1-1.4,1l0.7,3.2c0.2,0.4-0.1,2.7-0.6,2.9
		c-5.8,4.9-5.2,7.8-5.8,8.8c0,0-1.7-5.5-2.3-6.5c-2.9,6.6-1.3,9.9-1.3,9.9c-2.5,11,8.3,20,16.1,20c6.7,0.5,11.7-3.5,13.7-8.2
		C97.8,135.1,99,131.9,97,129.9z M94,136.7c-1.1,2.6-4.1,6.5-9.6,6.9c-12.1,0-17-12.9-14.7-18c0.9,3.2,3.6,5.1,3.6,5.1
		s-2-8.8,3-12.6c0.3,5,2.2,7.7,2.2,7.7s-0.6-10,1.5-13.5c1.7,1.5,7.9,3.7,9.5,14.7c0,0,2-1.1,1.5-4.8c3.7,2.7,1.8,9.8,1.1,11.1
		c0,0,2.2-0.6,3-1.6C95.6,131.8,94.9,134.4,94,136.7z"/>
	<g>
		<path class="st10" d="M75,37.2c-2.3,1.5-4.9,2.5-7.8,2.8v10.6c0,1.5,0.3,3,0.8,4.3h7.8c-0.5-1.3-0.8-2.8-0.8-4.3V37.2z"/>
		<path class="st10" d="M89.9,14.7h-4.6c0.5-0.1,1-0.1,1.5-0.1h-4.6c0.1,0.3,0.2,0.6,0.3,0.8c0.5-0.2,1.1-0.4,1.7-0.5
			c5.5,1,9.7,5.8,9.7,11.6v24.3c0,1.5-0.3,2.9-0.8,4.2h7.8c0.5-1.3,0.8-2.7,0.8-4.2V26.4C101.7,20,96.4,14.7,89.9,14.7z"/>
	</g>
	<path class="st11" d="M179.1,4c-0.6-0.5-1.5-0.7-2.4-0.5l-64.5,15.3c-1.3,0.3-2.2,1.5-2.2,2.8v5h-5.5v-0.2c0-8-6.5-14.6-14.6-14.6
		h-7.8c-3.4-6-9.8-10.1-17.2-10.1c-10.9,0-19.7,8.8-19.7,19.7c0,6.6,3.2,12.4,8.1,15.9c-21.1,7.5-32.6,32.6-33.2,33.8
		c-0.9,2,0,4.2,1.9,5.1c0.5,0.2,1.1,0.3,1.6,0.3c1.4,0,2.8-0.8,3.4-2.2c0.2-0.3,14.2-30.4,37.3-31.5v7.9c0,0.5,0,1,0.1,1.5h-3
		c-13.7,0-24.8,11.1-24.8,24.8v103.1c0,10,8.1,18.1,18.1,18.1h57.2c10,0,18.1-8.1,18-18V77c0-13.7-11.1-24.8-24.8-24.8h-0.7
		c0.1-0.5,0.1-1,0.1-1.5V34.3h5.5v5.1c0,1.3,0.9,2.5,2.2,2.8l64.5,15.3c0.3,0.1,0.5,0.1,0.7,0.1c0.6,0,1.3-0.2,1.7-0.6
		c0.7-0.6,1.1-1.4,1.1-2.3V6.3C180.2,5.4,179.8,4.5,179.1,4z M63.2,35.3c-6.9-0.8-12.3-6.8-12.3-13.9c0-7.7,6.3-14,14-14
		c7.7,0,14,6.3,14,14c0,7.4-5.8,13.5-13.1,14c-0.4-0.1-0.8-0.2-1.2-0.2C64.2,35.2,63.7,35.2,63.2,35.3z M124.2,77v103.2
		c0,6.8-5.5,12.3-12.3,12.3H54.7c-6.8,0-12.3-5.5-12.3-12.3V77c0-10.5,8.6-19.1,19.1-19.1h43.6C115.6,57.9,124.2,66.5,124.2,77z
		 M70.2,52.2c-0.1-0.5-0.1-1-0.1-1.5V40.4c8.4-2.3,14.6-9.9,14.6-19c0-1.3-0.1-2.6-0.4-3.9h5.7c4.9,0,8.9,4,8.9,8.9v24.3
		c0,0.5-0.1,1-0.1,1.5H70.2z M174.5,51.1l-58.7-14V23.8l58.7-13.9V51.1z"/>
	<path class="st10" d="M97.9,126.8c0.1-0.2,0.3-0.1,0.3,0c0.1,1.8,0.4,5.4-0.2,7c-1,2.4-1.5,0.4-1.5,0.4l-0.8-3.7c0,0,0-0.1,0-0.1
		C95.9,130.1,97.3,128.4,97.9,126.8z"/>
</g>
</svg>
