<?xml version="1.0" encoding="utf-8"?>
<!-- Generator: Adobe Illustrator 28.0.0, SVG Export Plug-In . SVG Version: 6.00 Build 0)  -->
<svg version="1.1" id="圖層_1" xmlns="http://www.w3.org/2000/svg" xmlns:xlink="http://www.w3.org/1999/xlink" x="0px" y="0px"
	 viewBox="0 0 200 200" style="enable-background:new 0 0 200 200;" xml:space="preserve">
<style type="text/css">
	.st0{display:none;}
	.st1{display:inline;fill:#474747;}
	.st2{display:inline;fill:#8BCFDB;}
	.st3{display:inline;fill:#46A7B1;}
	.st4{display:inline;fill:#3D3A39;}
	.st5{display:none;fill:#FFFFFF;}
	.st6{fill:#C4D593;}
	.st7{fill:#FFFFFF;}
</style>
<g class="st0">
	<path class="st1" d="M142.2,126.6c-1.6,0-3,1.3-3,3c0,10.1,0,20.1,0,30.2c-0.1,20.8-18.7,35.5-38.7,30.7
		c-13.7-3.3-23.6-15.9-23.7-29.9c0-1.2,0.4-1.5,1.6-1.6c4.2-0.4,7.5-3.4,8.3-7.4c0.3-1.3,0.3-2.7,0.2-4.1c0-1.3,0.3-1.9,1.6-2.3
		c19.5-6.8,31.7-24,31.7-44.7c0-8.5,0.1-17.1,0-25.6c0-1.6,0.4-2,2-2c3.1,0,4.8-1.4,4.8-4.3c0.1-5.1,0.1-10.2,0-15.3
		c0-2.5-1.6-4.1-4.2-4.1c-2.6-0.1-5.2-0.2-7.8,0c-1.7,0.1-2-0.5-2-2.1V11.9c0-5-3.8-8.6-8.6-8.3c-4.3,0.3-7.4,3.8-7.4,8.5
		c-0.1,11.7-0.1,23.3,0,34.9c0,1.7-0.4,2.1-2.1,2.1H53.1c-2.8-0.1-2.5,0.3-2.5-2.6v-34c0-4.9-3-8.4-7.4-8.7
		c-4.9-0.3-8.7,3.4-8.7,8.6c0,11.7-0.1,23.4,0,35.1c0,1.4-0.3,1.9-1.8,1.8c-1.5-0.1-3,0-4.5,0c-4.3,0.1-7.7,3.5-7.7,7.8v11
		c0,3.4,1.4,5,4.8,4.9c1.8-0.1,2,0.5,2,2.1c0,8.7-0.1,17.4,0,26.1c0.1,19.4,11.7,36.3,29.7,43.3c3.4,1.3,3.4,1.3,3.5,5
		c0.1,4.8,3.2,8.8,7.9,9.4c2.2,0.3,2.3,1.1,2.3,2.8c0.5,16.8,12.2,31,28.6,35c1,0.3,2.2,0.1,3.2,0.7c0.4,0.2,0.9,0.3,1.4,0.3h7.9
		c0.4,0,0.8-0.1,1.1-0.2c1-0.5,2.3-0.4,3.3-0.7c17.3-4.1,28.9-18.8,28.9-36.9v-30.3C145.1,127.9,143.8,126.6,142.2,126.6
		L142.2,126.6z"/>
	<path class="st1" d="M175.9,35.5c-3.1,0-6.3,0.4-9.3,1.3c-16.4,4.5-27.4,19.1-27.4,36.4c0,8.9,0,36.6,0,46.1c0,1.6,1.3,2.9,2.9,3
		c0,0,0,0,0.1,0c1.6,0,3-1.3,3-3V74.1c0-2.1,0.1-4.3,0.5-6.4c2.8-15.2,14.8-25.5,30.2-26.1c2.2-0.1,3.6-1.3,3.6-3.1
		C179.4,36.6,178.1,35.5,175.9,35.5z"/>
	<path class="st2" d="M73.7,73c12.8,0,25.5,0,38.3,0c1.6,0,2,0.4,2,2c-0.1,8.8,0,17.6,0,26.3c-0.1,18.7-13.2,35-31.4,39.1
		c-22.4,5.1-44.7-9.8-48.6-32.6c-0.5-2.7-0.7-5.5-0.7-8.3c0-8.2,0-16.4,0-24.6c0-1.6,0.4-2,2-2C48.1,73,60.9,73,73.7,73z"/>
	<path class="st3" d="M114,74.9c0-1.6-0.5-2-2-2c-12.8,0.1-25.5,0-38.3,0s-25.6,0-38.4,0c-1.6,0-2,0.4-2,2c0,0.9,0,1.8,0,2.7
		c11.9,0,23.8,0,35.7,0c12.8,0,25.5,0,38.3,0c1.6,0,2,0.4,2,2c-0.1,8.8,0,17.6,0,26.3c-0.1,9.7-3.6,18.8-9.6,25.9
		c8.8-7.5,14.3-18.5,14.4-30.6C114,92.5,113.9,83.7,114,74.9z"/>
	<path class="st2" d="M73.5,55.2c15,0,29.9,0,44.9-0.1c2,0,2.5,0.6,2.4,2.4c-0.2,2.6-0.1,5.2,0,7.8c0,1.1-0.4,1.7-1.5,1.6
		c-0.4,0-0.8,0-1.1,0c-29.7,0-59.4,0-89,0c-2.6,0-2.6,0-2.6-2.5c0-2.4,0.1-4.8,0-7.2c-0.1-1.6,0.5-2,2-2
		C43.5,55.2,58.5,55.2,73.5,55.2z"/>
	<path class="st3" d="M118.4,55.1c-15,0.1-29.9,0.1-44.9,0.1s-30.1,0-45.1,0c-1.6,0-2.1,0.4-2,2c0,0.6,0.1,1.3,0.1,1.9
		c14.7,0.1,29.3,0,44,0c15,0,29.9,0,44.9-0.1c2,0,2.5,0.6,2.4,2.4c-0.1,1.8-0.1,3.6-0.1,5.4c0.2,0,0.3,0,0.5,0c0.4,0,0.8,0,1.1,0
		c1.2,0.1,1.5-0.4,1.5-1.6c-0.1-2.6-0.1-5.2,0-7.8C120.9,55.7,120.4,55.1,118.4,55.1z"/>
	<path class="st3" d="M40.5,30c0-5.7,0-11.4,0-17c0-0.6,0-1.3,0.2-1.9c0.2-0.8,0.9-1.4,1.8-1.4c0.9,0,1.5,0.5,1.8,1.4
		c0.2,0.5,0.2,1.1,0.2,1.7c0,11.4,0,22.9,0,34.3c0,1.8-0.7,2-2.2,2.1c-1.7,0.1-1.9-0.6-1.9-2.1C40.5,41.4,40.5,35.7,40.5,30z"/>
	<path class="st3" d="M102.9,29.8c0-5.8,0-11.6,0-17.4c0-1.4,0.2-2.7,1.9-2.6c1.6,0.1,2,1.3,2,2.7c0,11.7,0,23.4,0,35.1
		c0,1.7-0.8,1.6-2,1.6c-1.3,0-2-0.1-1.9-1.7C102.9,41.6,102.9,35.7,102.9,29.8z"/>
	<path class="st3" d="M73.4,153c-1.2,0-2.4,0.1-3.6,0c-2.5-0.2-4.3-3.5-3.2-5.6c0.2-0.5,0.6-0.3,1-0.3c4,0.5,8,0.5,12,0
		c0.5-0.1,0.9-0.1,1,0.5c0.3,2.6-0.2,5.4-3.8,5.4C75.7,153,74.5,153,73.4,153L73.4,153z"/>
	<path class="st4" d="M70.7,107.8c-1.7,0-3.4,0.1-5.1,0c-3.4-0.1-4.7-2.3-3-5.2c3.7-6.7,7.5-13.4,11.3-20.1c1.1-1.9,2.9-2.5,4.5-1.5
		c1.5,0.9,1.9,2.6,0.8,4.5c-2.6,4.6-5.2,9.2-7.8,13.9c-0.4,0.7-1.2,1.4-0.9,2.2c0.4,0.8,1.5,0.4,2.3,0.4c3,0.1,6.1,0,9.1,0
		c3.1,0,4.4,2,3,4.8c-3.5,6.9-7,13.9-10.5,20.8c-0.9,1.8-2.7,2.5-4.2,1.7c-1.6-0.8-2-2.6-1.1-4.4c2.5-5,5-10.1,7.6-15
		c0.8-1.5,0.4-1.8-1.1-1.7C73.9,107.9,72.3,107.8,70.7,107.8z"/>
</g>
<g>
	<path class="st5" d="M103,197.6c-1.1-0.9-2.5-0.7-3.7-1c-16.4-4-28.1-18.2-28.6-35c0-1.7-0.1-2.5-2.3-2.8c-4.7-0.6-7.8-4.6-7.9-9.4
		c-0.1-3.7-0.1-3.7-3.5-5c-18-7-29.6-23.9-29.7-43.3c-0.1-8.7,0-17.4,0-26.1c0-1.6-0.2-2.2-2-2.1c-3.4,0.1-4.8-1.5-4.8-4.9
		c0-4.7,0-9.3,0-14c0-3.4,1.4-4.8,4.8-4.8c2.5,0,4.9-0.1,7.4,0c1.5,0.1,1.8-0.4,1.8-1.8c-0.1-11.7,0-23.4,0-35.1
		c0-5.2,3.8-8.9,8.7-8.6c4.4,0.3,7.4,3.8,7.4,8.7c0,11.4,0,22.7,0,34.1c0,2.9-0.3,2.5,2.5,2.6c13.9,0,27.8,0,41.7,0
		c1.7,0,2.1-0.4,2.1-2.1c-0.1-11.6-0.1-23.2,0-34.9c0-4.7,3.1-8.2,7.4-8.5c4.8-0.3,8.6,3.3,8.6,8.3c0,11.7,0,23.4,0,35.1
		c0,1.6,0.3,2.2,2,2.1c2.6-0.2,5.2-0.1,7.8,0c2.6,0,4.2,1.6,4.2,4.1c0.1,5.1,0.1,10.2,0,15.3c0,2.9-1.7,4.3-4.8,4.3
		c-1.6,0-2,0.4-2,2c0.1,8.5,0,17.1,0,25.6c0,20.7-12.2,37.9-31.7,44.7c-1.3,0.4-1.6,1-1.6,2.3c0.1,1.4,0.1,2.8-0.2,4.1
		c-0.8,4-4.1,7-8.3,7.4c-1.2,0.1-1.6,0.4-1.6,1.6c0.1,14,10,26.6,23.7,29.9c20,4.8,38.6-9.9,38.7-30.7c0.1-28.9,0-57.7,0-86.6
		c0-17.3,11-31.9,27.4-36.4c3-0.9,6.2-1.3,9.3-1.3c2.2,0,3.6,1.2,3.6,3s-1.4,3-3.6,3.1c-15.4,0.6-27.4,10.9-30.2,26.1
		c-0.4,2.1-0.5,4.3-0.5,6.4c0,28.6,0,57.2,0,85.8c0,18.1-11.6,32.8-28.9,36.9c-1.2,0.3-2.6,0.2-3.7,0.9
		C109.3,197.6,106.1,197.6,103,197.6z"/>
	<path class="st6" d="M114,74.8c0-1.6-0.5-2-2-2c-12.8,0.1-25.5,0-38.3,0s-25.6,0-38.4,0c-1.6,0-2,0.4-2,2c0,0.9,0,1.8,0,2.7
		c11.9,0,23.8,0,35.7,0c12.8,0,25.5,0,38.3,0c1.6,0,2,0.4,2,2c-0.1,8.8,0,17.6,0,26.3c-0.1,9.7-3.6,18.8-9.6,25.9
		c8.8-7.5,14.3-18.5,14.4-30.6C114,92.4,113.9,83.6,114,74.8z"/>
	<path class="st6" d="M118.4,55c-15,0.1-29.9,0.1-44.9,0.1s-30.1,0-45.1,0c-1.6,0-2.1,0.4-2,2c0,0.6,0.1,1.3,0.1,1.9
		c14.7,0.1,29.3,0,44,0c15,0,29.9,0,44.9-0.1c2,0,2.5,0.6,2.4,2.4c-0.1,1.8-0.1,3.6-0.1,5.4c0.2,0,0.3,0,0.5,0c0.4,0,0.8,0,1.1,0
		c1.2,0.1,1.5-0.4,1.5-1.6c-0.1-2.6-0.1-5.2,0-7.8C120.9,55.6,120.4,55,118.4,55z"/>
	<path class="st7" d="M175.9,35.4c-3.1,0-6.3,0.4-9.3,1.3c-16.4,4.5-27.4,19.1-27.4,36.4c0,28.9,0.1,57.7,0,86.6
		c-0.1,20.8-18.7,35.5-38.7,30.7c-13.7-3.3-23.6-15.9-23.7-29.9c0-1.2,0.4-1.5,1.6-1.6c4.2-0.4,7.5-3.4,8.3-7.4
		c0.3-1.3,0.3-2.7,0.2-4.1c0-1.3,0.3-1.9,1.6-2.3c19.5-6.8,31.7-24,31.7-44.7c0-8.5,0.1-17.1,0-25.6c0-1.6,0.4-2,2-2
		c3.1,0,4.8-1.4,4.8-4.3c0.1-5.1,0.1-10.2,0-15.3c0-2.5-1.6-4.1-4.2-4.1c-2.6-0.1-5.2-0.2-7.8,0c-1.7,0.1-2-0.5-2-2.1
		c0-11.7,0-23.4,0-35.1c0-5-3.8-8.6-8.6-8.3C100,3.9,97,7.4,97,12.2c-0.1,11.7-0.1,23.3,0,34.9c0,1.7-0.4,2.1-2.1,2.1
		c-13.9,0-27.8,0-41.7,0c-2.8-0.1-2.5,0.3-2.5-2.6c0-11.4,0-22.7,0-34.1c0-4.9-3-8.4-7.4-8.7c-4.9-0.3-8.7,3.4-8.7,8.6
		c0,11.7-0.1,23.4,0,35.1c0,1.4-0.3,1.9-1.8,1.8c-2.5-0.1-4.9,0-7.4,0c-3.4,0-4.8,1.4-4.8,4.8c0,4.7,0,9.3,0,14c0,3.4,1.4,5,4.8,4.9
		c1.8-0.1,2,0.5,2,2.1c0,8.7-0.1,17.4,0,26.1c0.1,19.4,11.7,36.3,29.7,43.3c3.4,1.3,3.4,1.3,3.5,5c0.1,4.8,3.2,8.8,7.9,9.4
		c2.2,0.3,2.3,1.1,2.3,2.8c0.5,16.8,12.2,31,28.6,35c1.2,0.3,2.6,0.1,3.7,1c3.1,0,6.3,0,9.5,0c1.1-0.7,2.5-0.6,3.7-0.9
		c17.3-4.1,28.9-18.8,28.9-36.9c0-28.6,0-57.2,0-85.8c0-2.1,0.1-4.3,0.5-6.4c2.8-15.2,14.8-25.5,30.2-26.1c2.2-0.1,3.6-1.3,3.6-3.1
		S178,35.4,175.9,35.4z M103,47.4c0-5.9,0-11.8,0-17.7c0-5.8,0-11.6,0-17.4c0-1.4,0.2-2.7,1.9-2.6c1.6,0.1,2,1.3,2,2.7
		c0,11.7,0,23.4,0,35.1c0,1.7-0.8,1.6-2,1.6C103.5,49.2,102.9,49,103,47.4z M40.5,29.9c0-5.7,0-11.4,0-17c0-0.6,0-1.3,0.2-1.9
		c0.2-0.8,0.9-1.4,1.8-1.4s1.5,0.5,1.8,1.4c0.2,0.5,0.2,1.1,0.2,1.7c0,11.4,0,22.9,0,34.3c0,1.8-0.7,2-2.2,2.1
		c-1.7,0.1-1.9-0.6-1.9-2.1C40.5,41.4,40.5,35.7,40.5,29.9z M26.6,64.4c0-2.4,0.1-4.8,0-7.2c-0.1-1.6,0.5-2,2-2
		c14.9,0,29.9,0,44.9,0s29.9,0,44.9-0.1c2,0,2.5,0.6,2.4,2.4c-0.2,2.6-0.1,5.2,0,7.8c0,1.1-0.4,1.7-1.5,1.6c-0.4,0-0.8,0-1.1,0
		c-29.7,0-59.4,0-89,0C26.6,66.9,26.6,66.9,26.6,64.4z M34.1,107.7c-0.5-2.7-0.7-5.5-0.7-8.3c0-8.2,0-16.4,0-24.6c0-1.6,0.4-2,2-2
		c12.8,0.1,25.6,0.1,38.4,0.1s25.5,0,38.3,0c1.6,0,2,0.4,2,2c-0.1,8.8,0,17.6,0,26.3c-0.1,18.7-13.2,35-31.4,39.1
		C60.3,145.4,38,130.5,34.1,107.7z M69.9,152.9c-2.5-0.2-4.3-3.5-3.2-5.6c0.2-0.5,0.6-0.3,1-0.3c4,0.5,8,0.5,12,0
		c0.5-0.1,0.9-0.1,1,0.5c0.3,2.6-0.2,5.4-3.8,5.4c-1.1,0-2.3,0-3.4,0C72.3,152.9,71,153,69.9,152.9z"/>
	<path class="st7" d="M70.8,107.7c-1.7,0-3.4,0.1-5.1,0c-3.4-0.1-4.7-2.3-3-5.2c3.7-6.7,7.5-13.4,11.3-20.1c1.1-1.9,2.9-2.5,4.5-1.5
		c1.5,0.9,1.9,2.6,0.8,4.5c-2.6,4.6-5.2,9.2-7.8,13.9c-0.4,0.7-1.2,1.4-0.9,2.2c0.4,0.8,1.5,0.4,2.3,0.4c3,0.1,6.1,0,9.1,0
		c3.1,0,4.4,2,3,4.8c-3.5,6.9-7,13.9-10.5,20.8c-0.9,1.8-2.7,2.5-4.2,1.7c-1.6-0.8-2-2.6-1.1-4.4c2.5-5,5-10.1,7.6-15
		c0.8-1.5,0.4-1.8-1.1-1.7C73.9,107.8,72.3,107.7,70.8,107.7z"/>
</g>
</svg>
