<?xml version="1.0" encoding="utf-8"?>
<!-- Generator: Adobe Illustrator 28.0.0, SVG Export Plug-In . SVG Version: 6.00 Build 0)  -->
<svg version="1.1" id="圖層_1" xmlns="http://www.w3.org/2000/svg" xmlns:xlink="http://www.w3.org/1999/xlink" x="0px" y="0px"
	 viewBox="0 0 200 200" style="enable-background:new 0 0 200 200;" xml:space="preserve">
<style type="text/css">
	.st0{display:none;}
	.st1{display:inline;}
	.st2{fill:none;stroke:#474747;stroke-width:8;stroke-miterlimit:10;}
	.st3{fill:#8BCFDB;}
	.st4{fill:none;stroke:#474747;stroke-width:7;stroke-miterlimit:10;}
	.st5{fill:#E5D69B;}
	.st6{fill:none;stroke:#474747;stroke-width:6;stroke-miterlimit:10;}
	.st7{fill:#46A7B1;}
	.st8{display:inline;fill:#E5D69B;}
	.st9{display:inline;fill:#46A7B1;}
	.st10{fill:#FFFFFF;}
	.st11{fill:#C4D593;}
</style>
<g class="st0">
	<g id="冷媒_00000162333756290190980270000014393107742207125387_" class="st1">
		<path class="st2" d="M166.1,101.3c0-1.3-1-2.3-2.3-2.3h-9.2l4.2-4.5c0.9-0.9,0.8-2.4-0.1-3.2c-0.9-0.9-2.4-0.8-3.2,0.1l-7,7.7
			h-14.7l9.3-10.1c0.9-0.9,0.8-2.4-0.1-3.2c-0.9-0.9-2.4-0.8-3.2,0.1l-12.1,13.3h-11.6l2.5-4c0.4-0.6,0.5-1.5,0.1-2.2
			s-1-1.2-1.8-1.3l-4.5-0.6l8.3-8.3l18,0.9c0.1,0,0.1,0,0.1,0c1.2,0,2.2-0.9,2.3-2.2c0.1-1.3-0.9-2.4-2.2-2.4l-13.7-0.6l10.4-10.4
			l10.4,0.5c0.1,0,0.1,0,0.1,0c1.2,0,2.2-0.9,2.3-2.2s-0.9-2.4-2.2-2.4l-6.2-0.3l6.5-6.5c0.9-0.9,0.9-2.4,0-3.2
			c-0.9-0.9-2.4-0.9-3.2,0l-6.5,6.5l-0.3-6.2c-0.1-1.3-1.2-2.2-2.4-2.2c-1.3,0.1-2.2,1.2-2.2,2.4l0.5,10.4L122,75.3l-0.6-13.7
			c-0.1-1.3-1.2-2.2-2.4-2.2c-1.3,0.1-2.2,1.2-2.2,2.4l0.9,18l-8.4,8.4l-0.7-4.7c-0.1-0.8-0.6-1.5-1.4-1.8s-1.7-0.1-2.3,0.4
			l-3.6,2.9V72.4l13.3-12.1c0.9-0.9,1-2.3,0.1-3.2s-2.3-1-3.2-0.1l-10.2,9.2V51.4l7.7-7c0.9-0.9,1-2.3,0.1-3.2s-2.3-1-3.2-0.1
			l-4.5,4.2V36c0-1.3-1-2.3-2.3-2.3s-2.4,1-2.4,2.3v9.2L91.6,41c-0.9-0.9-2.4-0.8-3.2,0.1s-0.8,2.4,0.1,3.2l7.7,7v14.8L86,56.9
			c-0.9-0.9-2.4-0.8-3.2,0.1c-0.9,0.9-0.8,2.4,0.1,3.2l13.3,12.1v12.1l-3.6-2.9c-0.6-0.6-1.6-0.6-2.4-0.4s-1.4,1-1.4,1.9l-0.5,4.7
			l-8.6-8.5l0.9-18c0.1-1.3-0.9-2.4-2.2-2.4C77.1,58.7,76,59.7,76,61l-0.6,13.7L64.9,64.4L65.4,54c0.1-1.3-0.9-2.4-2.2-2.4
			s-2.4,0.9-2.4,2.2L60.4,60l-6.5-6.5c-0.9-0.9-2.4-0.9-3.2,0c-0.9,0.9-0.9,2.4,0,3.2l6.5,6.5l-6.1,0.3c-1.3,0.1-2.2,1.2-2.2,2.4
			c0.1,1.2,1.1,2.2,2.3,2.2c0.1,0,0.1,0,0.1,0l10.4-0.5L72.1,78l-13.7,0.6c-1.3,0.1-2.2,1.2-2.2,2.4c0.1,1.2,1.1,2.2,2.3,2.2
			c0.1,0,0.1,0,0.1,0l18-0.9l8.6,8.6l-4.5,0.4c-0.8,0.1-1.5,0.6-1.9,1.2c-0.4,0.7-0.4,1.5,0.1,2.2l2.4,4H69.7l-12.2-13
			c-0.9-0.9-2.3-1-3.2-0.1s-1,2.3-0.1,3.2L63.4,99H48.6l-7-7.6c-0.9-0.9-2.3-1-3.2-0.1s-1,2.3-0.1,3.2l4.2,4.5h-9.3
			c-1.3,0-2.3,1-2.3,2.3s1,2.3,2.3,2.3h9.2l-4.2,4.5c-0.9,0.9-0.8,2.4,0.1,3.2c0.4,0.4,1,0.6,1.6,0.6s1.2-0.3,1.7-0.7l7-7.7h14.7
			L54,113.6c-0.9,0.9-0.8,2.4,0.1,3.2c0.4,0.4,1,0.6,1.6,0.6s1.2-0.3,1.7-0.7l12.2-13.2H81l-2.3,3.7c-0.4,0.6-0.4,1.4-0.1,2.1
			c0.3,0.6,0.9,1.2,1.6,1.4l4.5,1.1l-8.2,8.2l-18-0.9c-1.3-0.1-2.4,0.9-2.4,2.2c-0.1,1.3,0.9,2.4,2.2,2.4l13.7,0.6l-10.4,10.4
			l-10.4-0.5c-1.3-0.1-2.4,0.9-2.4,2.2c-0.1,1.3,0.9,2.4,2.2,2.4l6.2,0.3l-6.5,6.5c-0.9,0.9-0.9,2.4,0,3.2c0.4,0.4,1,0.6,1.7,0.6
			c0.6,0,1.2-0.2,1.7-0.6l6.5-6.5l0.3,6.2c0.1,1.2,1.1,2.2,2.3,2.2c0.1,0,0.1,0,0.1,0c1.3-0.1,2.2-1.2,2.2-2.4L65,137.9l10.4-10.4
			l0.6,13.7c0.1,1.2,1.1,2.2,2.3,2.2c0.1,0,0.1,0,0.1,0c1.3-0.1,2.2-1.2,2.2-2.4l-0.9-18l8.1-8.1l1,4.3c0.1,0.7,0.6,1.3,1.4,1.6
			c0.3,0.1,0.6,0.1,0.9,0.1c0.4,0,0.9-0.1,1.2-0.4l3.8-2.4v11.6l-13.3,12.1c-0.9,0.9-1,2.3-0.1,3.2s2.3,1,3.2,0.1l10.1-9.3v14.7
			l-7.7,7c-0.9,0.9-1,2.3-0.1,3.2s2.3,1,3.2,0.1l4.5-4.2v9.2c0,1.3,1,2.3,2.3,2.3s2.3-1,2.3-2.3v-9.2l4.5,4.2c0.4,0.4,1,0.6,1.6,0.6
			s1.2-0.3,1.7-0.7c0.9-0.9,0.8-2.4-0.1-3.2l-7.7-7v-14.7l10.1,9.3c0.4,0.4,1,0.6,1.6,0.6s1.2-0.3,1.7-0.7c0.9-0.9,0.8-2.4-0.1-3.2
			l-13.2-12.1v-11.6l3.8,2.4c0.6,0.4,1.4,0.4,2.1,0.1s1.2-0.9,1.4-1.6l1-4.3l8.1,8.1l-0.9,18c-0.1,1.3,0.9,2.4,2.2,2.4
			c0.1,0,0.1,0,0.1,0c1.2,0,2.2-0.9,2.3-2.2l0.6-13.7l10.4,10.4l-0.5,10.4c-0.1,1.3,0.9,2.4,2.2,2.4c0.1,0,0.1,0,0.1,0
			c1.2,0,2.2-0.9,2.3-2.2l0.3-6.2l6.5,6.5c0.4,0.4,1,0.6,1.7,0.6c0.6,0,1.2-0.2,1.7-0.6c0.9-0.9,0.9-2.4,0-3.2l-6.5-6.5l6.2-0.3
			c1.3-0.1,2.2-1.2,2.2-2.4c-0.1-1.3-1.2-2.2-2.4-2.2l-10.4,0.5l-10.4-10.4l13.7-0.6c1.3-0.1,2.2-1.2,2.2-2.4
			c-0.1-1.3-1.2-2.2-2.4-2.2l-18,0.9l-8.2-8.2l4.5-1.1c0.7-0.2,1.4-0.7,1.7-1.4s0.1-1.5-0.3-2.2l-2.6-3.5h11.8l12.1,13.3
			c0.4,0.5,1.1,0.7,1.7,0.7c0.6,0,1.1-0.2,1.6-0.6c0.9-0.9,1-2.3,0.1-3.2l-9.3-10.2H148l7,7.7c0.4,0.5,1.1,0.7,1.7,0.7
			c0.6,0,1.1-0.2,1.6-0.6c0.9-0.9,1-2.3,0.1-3.2l-4.2-4.6h9.2C165.1,103.6,166.1,102.6,166.1,101.3z M112.4,107.1l-3.8,0.9l-1.4-1.4
			c-0.9-0.9-2.4-0.9-3.2,0c-0.9,0.9-0.9,2.4,0,3.2l1.4,1.4l-0.9,4L101,113v-1.9c0-1.3-1-2.3-2.3-2.3s-2.3,1-2.3,2.3v1.9l-3.5,2.2
			l-0.9-4l1.4-1.4c0.9-0.9,0.9-2.4,0-3.2c-0.9-0.9-2.4-0.9-3.2,0l-1.4,1.4l-4.1-1l2.1-3.5H89c1.3,0,2.3-1,2.3-2.3s-1-2.3-2.3-2.3
			h-2.2l-1.9-3.2l4.7-0.4l0.6,0.6c0.4,0.4,1,0.6,1.7,0.6c0.6,0,1.2-0.2,1.7-0.6c0.9-0.9,0.9-2.4,0-3.2L93,92.1l0.4-4.2l3.2,2.7v0.9
			c0,1.3,1,2.3,2.3,2.3s2.3-1,2.3-2.3v-0.9l3.4-2.8l0.6,4l-0.9,0.9c-0.9,0.9-0.9,2.4,0,3.2c0.4,0.4,1,0.6,1.7,0.6
			c0.6,0,1.2-0.2,1.7-0.6l0.9-0.9l4.3,0.6l-2.2,3.4H109c-1.3,0-2.3,1-2.3,2.3s1,2.3,2.3,2.3h1.4L112.4,107.1z"/>
		<path class="st3" d="M166.1,101.3c0-1.3-1-2.3-2.3-2.3h-9.2l4.2-4.5c0.9-0.9,0.8-2.4-0.1-3.2c-0.9-0.9-2.4-0.8-3.2,0.1l-7,7.7
			h-14.7l9.3-10.1c0.9-0.9,0.8-2.4-0.1-3.2c-0.9-0.9-2.4-0.8-3.2,0.1l-12.1,13.3h-11.6l2.5-4c0.4-0.6,0.5-1.5,0.1-2.2
			s-1-1.2-1.8-1.3l-4.5-0.6l8.3-8.3l18,0.9c0.1,0,0.1,0,0.1,0c1.2,0,2.2-0.9,2.3-2.2c0.1-1.3-0.9-2.4-2.2-2.4l-13.7-0.6l10.4-10.4
			l10.4,0.5c0.1,0,0.1,0,0.1,0c1.2,0,2.2-0.9,2.3-2.2s-0.9-2.4-2.2-2.4l-6.2-0.3l6.5-6.5c0.9-0.9,0.9-2.4,0-3.2
			c-0.9-0.9-2.4-0.9-3.2,0l-6.5,6.5l-0.3-6.2c-0.1-1.3-1.2-2.2-2.4-2.2c-1.3,0.1-2.2,1.2-2.2,2.4l0.5,10.4L122,75.3l-0.6-13.7
			c-0.1-1.3-1.2-2.2-2.4-2.2c-1.3,0.1-2.2,1.2-2.2,2.4l0.9,18l-8.4,8.4l-0.7-4.7c-0.1-0.8-0.6-1.5-1.4-1.8s-1.7-0.1-2.3,0.4
			l-3.6,2.9V72.4l13.3-12.1c0.9-0.9,1-2.3,0.1-3.2s-2.3-1-3.2-0.1l-10.2,9.2V51.4l7.7-7c0.9-0.9,1-2.3,0.1-3.2s-2.3-1-3.2-0.1
			l-4.5,4.2V36c0-1.3-1-2.3-2.3-2.3s-2.4,1-2.4,2.3v9.2L91.6,41c-0.9-0.9-2.4-0.8-3.2,0.1s-0.8,2.4,0.1,3.2l7.7,7v14.8L86,56.9
			c-0.9-0.9-2.4-0.8-3.2,0.1c-0.9,0.9-0.8,2.4,0.1,3.2l13.3,12.1v12.1l-3.6-2.9c-0.6-0.6-1.6-0.6-2.4-0.4s-1.4,1-1.4,1.9l-0.5,4.7
			l-8.6-8.5l0.9-18c0.1-1.3-0.9-2.4-2.2-2.4C77.1,58.7,76,59.7,76,61l-0.6,13.7L64.9,64.4L65.4,54c0.1-1.3-0.9-2.4-2.2-2.4
			s-2.4,0.9-2.4,2.2L60.4,60l-6.5-6.5c-0.9-0.9-2.4-0.9-3.2,0c-0.9,0.9-0.9,2.4,0,3.2l6.5,6.5l-6.1,0.3c-1.3,0.1-2.2,1.2-2.2,2.4
			c0.1,1.2,1.1,2.2,2.3,2.2c0.1,0,0.1,0,0.1,0l10.4-0.5L72.1,78l-13.7,0.6c-1.3,0.1-2.2,1.2-2.2,2.4c0.1,1.2,1.1,2.2,2.3,2.2
			c0.1,0,0.1,0,0.1,0l18-0.9l8.6,8.6l-4.5,0.4c-0.8,0.1-1.5,0.6-1.9,1.2c-0.4,0.7-0.4,1.5,0.1,2.2l2.4,4H69.7l-12.2-13
			c-0.9-0.9-2.3-1-3.2-0.1s-1,2.3-0.1,3.2L63.4,99H48.6l-7-7.6c-0.9-0.9-2.3-1-3.2-0.1s-1,2.3-0.1,3.2l4.2,4.5h-9.3
			c-1.3,0-2.3,1-2.3,2.3s1,2.3,2.3,2.3h9.2l-4.2,4.5c-0.9,0.9-0.8,2.4,0.1,3.2c0.4,0.4,1,0.6,1.6,0.6s1.2-0.3,1.7-0.7l7-7.7h14.7
			L54,113.6c-0.9,0.9-0.8,2.4,0.1,3.2c0.4,0.4,1,0.6,1.6,0.6s1.2-0.3,1.7-0.7l12.2-13.2H81l-2.3,3.7c-0.4,0.6-0.4,1.4-0.1,2.1
			c0.3,0.6,0.9,1.2,1.6,1.4l4.5,1.1l-8.2,8.2l-18-0.9c-1.3-0.1-2.4,0.9-2.4,2.2c-0.1,1.3,0.9,2.4,2.2,2.4l13.7,0.6l-10.4,10.4
			l-10.4-0.5c-1.3-0.1-2.4,0.9-2.4,2.2c-0.1,1.3,0.9,2.4,2.2,2.4l6.2,0.3l-6.5,6.5c-0.9,0.9-0.9,2.4,0,3.2c0.4,0.4,1,0.6,1.7,0.6
			c0.6,0,1.2-0.2,1.7-0.6l6.5-6.5l0.3,6.2c0.1,1.2,1.1,2.2,2.3,2.2c0.1,0,0.1,0,0.1,0c1.3-0.1,2.2-1.2,2.2-2.4L65,137.9l10.4-10.4
			l0.6,13.7c0.1,1.2,1.1,2.2,2.3,2.2c0.1,0,0.1,0,0.1,0c1.3-0.1,2.2-1.2,2.2-2.4l-0.9-18l8.1-8.1l1,4.3c0.1,0.7,0.6,1.3,1.4,1.6
			c0.3,0.1,0.6,0.1,0.9,0.1c0.4,0,0.9-0.1,1.2-0.4l3.8-2.4v11.6l-13.3,12.1c-0.9,0.9-1,2.3-0.1,3.2s2.3,1,3.2,0.1l10.1-9.3v14.7
			l-7.7,7c-0.9,0.9-1,2.3-0.1,3.2s2.3,1,3.2,0.1l4.5-4.2v9.2c0,1.3,1,2.3,2.3,2.3s2.3-1,2.3-2.3v-9.2l4.5,4.2c0.4,0.4,1,0.6,1.6,0.6
			s1.2-0.3,1.7-0.7c0.9-0.9,0.8-2.4-0.1-3.2l-7.7-7v-14.7l10.1,9.3c0.4,0.4,1,0.6,1.6,0.6s1.2-0.3,1.7-0.7c0.9-0.9,0.8-2.4-0.1-3.2
			l-13.2-12.1v-11.6l3.8,2.4c0.6,0.4,1.4,0.4,2.1,0.1s1.2-0.9,1.4-1.6l1-4.3l8.1,8.1l-0.9,18c-0.1,1.3,0.9,2.4,2.2,2.4
			c0.1,0,0.1,0,0.1,0c1.2,0,2.2-0.9,2.3-2.2l0.6-13.7l10.4,10.4l-0.5,10.4c-0.1,1.3,0.9,2.4,2.2,2.4c0.1,0,0.1,0,0.1,0
			c1.2,0,2.2-0.9,2.3-2.2l0.3-6.2l6.5,6.5c0.4,0.4,1,0.6,1.7,0.6c0.6,0,1.2-0.2,1.7-0.6c0.9-0.9,0.9-2.4,0-3.2l-6.5-6.5l6.2-0.3
			c1.3-0.1,2.2-1.2,2.2-2.4c-0.1-1.3-1.2-2.2-2.4-2.2l-10.4,0.5l-10.4-10.4l13.7-0.6c1.3-0.1,2.2-1.2,2.2-2.4
			c-0.1-1.3-1.2-2.2-2.4-2.2l-18,0.9l-8.2-8.2l4.5-1.1c0.7-0.2,1.4-0.7,1.7-1.4s0.1-1.5-0.3-2.2l-2.6-3.5h11.8l12.1,13.3
			c0.4,0.5,1.1,0.7,1.7,0.7c0.6,0,1.1-0.2,1.6-0.6c0.9-0.9,1-2.3,0.1-3.2l-9.3-10.2H148l7,7.7c0.4,0.5,1.1,0.7,1.7,0.7
			c0.6,0,1.1-0.2,1.6-0.6c0.9-0.9,1-2.3,0.1-3.2l-4.2-4.6h9.2C165.1,103.6,166.1,102.6,166.1,101.3z M112.4,107.1l-3.8,0.9l-1.4-1.4
			c-0.9-0.9-2.4-0.9-3.2,0c-0.9,0.9-0.9,2.4,0,3.2l1.4,1.4l-0.9,4L101,113v-1.9c0-1.3-1-2.3-2.3-2.3s-2.3,1-2.3,2.3v1.9l-3.5,2.2
			l-0.9-4l1.4-1.4c0.9-0.9,0.9-2.4,0-3.2c-0.9-0.9-2.4-0.9-3.2,0l-1.4,1.4l-4.1-1l2.1-3.5H89c1.3,0,2.3-1,2.3-2.3s-1-2.3-2.3-2.3
			h-2.2l-1.9-3.2l4.7-0.4l0.6,0.6c0.4,0.4,1,0.6,1.7,0.6c0.6,0,1.2-0.2,1.7-0.6c0.9-0.9,0.9-2.4,0-3.2L93,92.1l0.4-4.2l3.2,2.7v0.9
			c0,1.3,1,2.3,2.3,2.3s2.3-1,2.3-2.3v-0.9l3.4-2.8l0.6,4l-0.9,0.9c-0.9,0.9-0.9,2.4,0,3.2c0.4,0.4,1,0.6,1.7,0.6
			c0.6,0,1.2-0.2,1.7-0.6l0.9-0.9l4.3,0.6l-2.2,3.4H109c-1.3,0-2.3,1-2.3,2.3s1,2.3,2.3,2.3h1.4L112.4,107.1z"/>
	</g>
	<g class="st1">
		<path class="st4" d="M177,67.5l0.2,12.1c0,1,0.9,1.8,1.9,1.8s1.8-0.9,1.8-1.9l-0.2-12.1l10.6,5.9c0.3,0.2,0.6,0.2,0.9,0.2
			c0.6,0,1.2-0.4,1.6-0.9c0.5-0.9,0.2-2-0.7-2.5l-10.6-5.9l10.4-6.3c0.9-0.5,1.2-1.7,0.6-2.5c-0.5-0.9-1.7-1.2-2.5-0.6L180.5,61
			l-0.2-12.1c0-1-0.9-1.8-1.9-1.8s-1.8,0.9-1.8,1.9l0.2,12.1l-10.6-5.9c-0.9-0.5-2-0.2-2.5,0.7s-0.2,2,0.7,2.5l10.6,5.9l-10.4,6.3
			c-0.9,0.5-1.2,1.7-0.6,2.5c0.4,0.6,1,0.9,1.6,0.9c0.3,0,0.6-0.1,0.9-0.3L177,67.5z"/>
		<path class="st5" d="M177,67.5l0.2,12.1c0,1,0.9,1.8,1.9,1.8s1.8-0.9,1.8-1.9l-0.2-12.1l10.6,5.9c0.3,0.2,0.6,0.2,0.9,0.2
			c0.6,0,1.2-0.4,1.6-0.9c0.5-0.9,0.2-2-0.7-2.5l-10.6-5.9l10.4-6.3c0.9-0.5,1.2-1.7,0.6-2.5c-0.5-0.9-1.7-1.2-2.5-0.6L180.5,61
			l-0.2-12.1c0-1-0.9-1.8-1.9-1.8s-1.8,0.9-1.8,1.9l0.2,12.1l-10.6-5.9c-0.9-0.5-2-0.2-2.5,0.7s-0.2,2,0.7,2.5l10.6,5.9l-10.4,6.3
			c-0.9,0.5-1.2,1.7-0.6,2.5c0.4,0.6,1,0.9,1.6,0.9c0.3,0,0.6-0.1,0.9-0.3L177,67.5z"/>
	</g>
	<g class="st1">
		<path class="st6" d="M18,135.2v11.4c0,1,0.8,1.7,1.7,1.7c1,0,1.7-0.8,1.7-1.7v-11.4l9.9,5.8c0.3,0.2,0.6,0.2,0.9,0.2
			c0.6,0,1.2-0.3,1.5-0.9c0.5-0.8,0.2-1.9-0.6-2.4l-9.9-5.8l9.9-5.7c0.8-0.5,1.1-1.5,0.6-2.4c-0.5-0.8-1.5-1.1-2.4-0.6l-9.9,5.7
			v-11.4c0-1-0.8-1.7-1.7-1.7c-1,0-1.7,0.8-1.7,1.7v11.4l-9.9-5.8c-0.8-0.5-1.9-0.2-2.4,0.6c-0.5,0.8-0.2,1.9,0.6,2.4l9.9,5.8
			l-9.9,5.7c-0.8,0.5-1.1,1.5-0.6,2.4c0.3,0.6,0.9,0.9,1.5,0.9c0.3,0,0.6-0.1,0.9-0.2L18,135.2z"/>
		<path class="st7" d="M18,135.2v11.4c0,1,0.8,1.7,1.7,1.7c1,0,1.7-0.8,1.7-1.7v-11.4l9.9,5.8c0.3,0.2,0.6,0.2,0.9,0.2
			c0.6,0,1.2-0.3,1.5-0.9c0.5-0.8,0.2-1.9-0.6-2.4l-9.9-5.8l9.9-5.7c0.8-0.5,1.1-1.5,0.6-2.4c-0.5-0.8-1.5-1.1-2.4-0.6l-9.9,5.7
			v-11.4c0-1-0.8-1.7-1.7-1.7c-1,0-1.7,0.8-1.7,1.7v11.4l-9.9-5.8c-0.8-0.5-1.9-0.2-2.4,0.6c-0.5,0.8-0.2,1.9,0.6,2.4l9.9,5.8
			l-9.9,5.7c-0.8,0.5-1.1,1.5-0.6,2.4c0.3,0.6,0.9,0.9,1.5,0.9c0.3,0,0.6-0.1,0.9-0.2L18,135.2z"/>
	</g>
	<path class="st8" d="M72,28.8c-8.1,0-8.2,12.7,0,12.7C80.1,41.5,80.1,28.8,72,28.8z"/>
	<path class="st9" d="M48,26.6c-5.3,0-5.3,8.2,0,8.2C53.2,34.8,53.3,26.6,48,26.6z"/>
	<path class="st8" d="M23.8,66.1c-8.1,0-8.2,12.7,0,12.7C31.9,78.8,31.9,66.1,23.8,66.1z"/>
	<path class="st9" d="M161.4,122.2c-8.1,0-8.2,12.7,0,12.7C169.5,134.8,169.5,122.2,161.4,122.2z"/>
	<path class="st9" d="M71,165.2c-5.9,0-6,9.2,0,9.2S77,165.2,71,165.2z"/>
	<path class="st8" d="M184.3,100.6c-12.1,0-12.1,18.8,0,18.8C196.4,119.4,196.4,100.6,184.3,100.6z"/>
</g>
<g>
	<g>
		<path class="st10" d="M108.6,98.9h1.7l2.2-3.3l-4.3-0.6l-0.9,0.9c-0.5,0.4-1.1,0.6-1.6,0.6c-0.6,0-1.2-0.2-1.6-0.6
			c-0.9-0.9-0.9-2.3,0-3.2l0.9-0.9l-0.6-3.9l-3.3,2.8v0.9c0,1.3-1,2.3-2.3,2.3c-1.3,0-2.3-1-2.3-2.3v-0.9L93.3,88l-0.4,4.1l0.6,0.6
			c0.9,0.9,0.9,2.3,0,3.2c-0.5,0.4-1.1,0.6-1.6,0.6c-0.6,0-1.2-0.2-1.6-0.6l-0.6-0.6l-4.6,0.4l1.9,3.2H89c1.3,0,2.3,1,2.3,2.3
			c0,1.3-1,2.3-2.3,2.3h-2.1l-2.1,3.4l4.1,1l1.4-1.4c0.9-0.9,2.3-0.9,3.2,0c0.9,0.9,0.9,2.3,0,3.2l-1.4,1.4l0.9,3.9l3.5-2.2v-1.8
			c0-1.3,1-2.3,2.3-2.3c1.3,0,2.3,1,2.3,2.3v1.8l3.5,2.2l0.9-3.9l-1.4-1.4c-0.9-0.9-0.9-2.3,0-3.2c0.9-0.9,2.3-0.9,3.2,0l1.4,1.4
			l3.8-0.9l-2.3-3.6h-1.4c-1.3,0-2.3-1-2.3-2.3C106.3,99.9,107.3,98.9,108.6,98.9z M101.4,104.2c-0.4,0.4-0.7,0.9-1,1.4
			c-0.5-0.2-1.1-0.3-1.7-0.3c-0.6,0-1.2,0.1-1.7,0.2c-0.3-0.5-0.7-1-1.1-1.5c-0.4-0.4-0.8-0.7-1.3-1c0.2-0.6,0.3-1.2,0.3-1.8
			c0-0.6-0.1-1.2-0.3-1.8c0.4-0.2,0.9-0.5,1.2-0.8l0.2-0.2c0.4-0.4,0.8-0.9,1.1-1.4c1.1,0.3,2.4,0.3,3.5,0c0.3,0.5,0.6,1,1.1,1.4
			c0.4,0.4,0.9,0.8,1.4,1c-0.2,0.5-0.2,1.1-0.2,1.7c0,0.6,0.1,1.2,0.3,1.8C102.4,103.3,101.9,103.7,101.4,104.2z"/>
		<path class="st10" d="M163.1,95.5h-1.4c1.1-2.2,0.6-5-1.3-6.7c-2.3-2.2-6-2-8.2,0.4l-5.8,6.5h-5l3.8-4.1c2.2-2.3,2-6-0.3-8.2
			c-0.2-0.2-0.5-0.4-0.8-0.6c0.1-0.3,0.1-0.6,0.1-0.9c0.2-3.2-2.3-5.9-5.5-6.1l-5.6-0.3l3.6-3.6l8.7,0.4l0.3,0
			c3.1,0,5.6-2.4,5.8-5.5c0.1-2.6-1.5-5-3.9-5.8l1-1c1.1-1.1,1.8-2.7,1.7-4.2c0-1.5-0.7-2.9-1.8-4c-1.1-1.1-2.6-1.7-4.2-1.7
			c-1.5,0-2.9,0.7-4,1.8l-1,1c-0.8-2.3-3-3.9-5.6-3.9l-0.2,0c-3.1,0.2-5.5,2.8-5.5,5.9l0.4,8.9l-3.6,3.6l-0.3-5.7
			c-0.2-3.1-2.8-5.5-5.9-5.5l-0.2,0c-0.3,0-0.6,0.1-0.9,0.1c-0.2-0.3-0.4-0.5-0.6-0.8c-1-1.1-2.5-1.8-4-1.9c-1.5-0.1-3,0.5-4.1,1.5
			l-4.2,3.8v-5.1l6.5-5.9c2.3-2.2,2.5-5.8,0.3-8.2c-1-1.1-2.5-1.8-4-1.9c-1,0-1.9,0.1-2.8,0.6v-1.5c0-3.2-2.5-5.8-5.8-5.8
			c-3.2,0-5.9,2.6-5.9,5.8v1.5c-0.9-0.4-1.8-0.6-2.8-0.6c-1.5,0.1-2.9,0.7-4,1.9c-2.2,2.3-2,6,0.4,8.2l6.5,5.8v5.1l-4.2-3.8
			c-1.1-1.1-2.6-1.6-4.2-1.5c-1.5,0.1-3,0.7-4,1.9c-0.2,0.2-0.4,0.5-0.6,0.8c-0.3-0.1-0.6-0.1-0.9-0.1c-3.2-0.2-5.9,2.3-6.1,5.6
			L72.4,67l-3.6-3.6l0.4-8.7c0.1-1.6-0.5-3.1-1.5-4.2c-1-1.1-2.5-1.8-4-1.9c-1.6-0.1-3.1,0.5-4.2,1.5c-0.7,0.7-1.3,1.5-1.6,2.4l-1-1
			c-1.1-1.1-2.7-1.8-4.2-1.7c-1.5,0-2.9,0.7-4,1.8c-1.1,1.1-1.7,2.6-1.7,4.2c0,1.5,0.7,2.9,1.8,4l1,1c-2.3,0.8-3.9,3-3.9,5.6l0,0.2
			c0.2,3.1,2.7,5.5,5.8,5.5l9-0.4l3.6,3.6l-5.7,0.3c-3.1,0.2-5.5,2.8-5.5,5.9l0,0.2c0,0.3,0.1,0.6,0.1,0.9c-0.3,0.2-0.5,0.4-0.8,0.6
			c-2.3,2.2-2.5,5.8-0.4,8.2l3.8,4.1h-5.1l-5.9-6.4c-2.2-2.3-5.8-2.5-8.2-0.3c-1.9,1.8-2.4,4.5-1.3,6.7h-1.5c-3.2,0-5.8,2.5-5.8,5.8
			c0,3.2,2.5,5.8,5.8,5.8h1.4c-0.4,0.8-0.6,1.8-0.6,2.8c0.1,1.5,0.7,2.9,1.8,3.9c1,1,2.4,1.5,4,1.5c1,0,2.5-0.3,4-1.6l6.2-6.8h5
			l-3.8,4.1c-1.1,1.1-1.6,2.6-1.5,4.2c0.1,1.5,0.7,2.9,1.8,3.9c0.3,0.3,0.6,0.5,0.9,0.7c-0.1,0.3-0.1,0.7-0.2,1.1
			c-0.1,1.6,0.5,3.1,1.5,4.2c1,1.1,2.5,1.8,4,1.9l5.6,0.3l-3.6,3.6l-8.7-0.4c-1.6-0.1-3.1,0.5-4.2,1.5c-1.1,1-1.8,2.5-1.9,4
			c-0.1,2.6,1.5,5,3.9,5.8l-1,1c-1.1,1.1-1.8,2.7-1.7,4.2c0,1.5,0.7,2.9,1.8,4c1.1,1,2.5,1.6,4.1,1.6c1.4,0,2.8-0.5,3.9-1.5L58,150
			c0.8,2.3,3,3.9,5.5,3.9l0.3,0c3.1-0.2,5.5-2.8,5.5-5.9l-0.4-8.9l3.6-3.6l0.3,5.7c0.2,3.1,2.7,5.5,5.8,5.5l0.3,0
			c0.3,0,0.6-0.1,0.9-0.1c0.2,0.2,0.4,0.5,0.6,0.7c1,1.1,2.5,1.8,4,1.9c1.5,0.1,3-0.5,4.2-1.5l4.1-3.8v5l-6.5,5.9
			c-2.3,2.2-2.5,5.8-0.3,8.2c1.8,1.9,4.5,2.4,6.7,1.3v1.4c0,3.2,2.5,5.8,5.8,5.8c3.2,0,5.8-2.5,5.8-5.8v-1.4
			c0.7,0.3,1.5,0.5,2.5,0.5c1,0,2.5-0.3,4-1.6l0.3-0.3c2.2-2.3,2-6-0.4-8.2l-6.5-5.8v-5l4.1,3.7c1,1,2.4,1.5,4,1.5
			c1,0,2.5-0.3,4-1.6l0.3-0.3c0.2-0.2,0.4-0.5,0.6-0.8c0.3,0.1,0.7,0.1,1,0.1l0.3,0c3.1,0,5.6-2.4,5.8-5.6l0.3-5.6l3.6,3.6l-0.4,8.7
			c-0.1,1.6,0.5,3.1,1.5,4.2c1,1.1,2.5,1.8,4,1.9l0.3,0c2.5,0,4.7-1.6,5.5-3.9l1,1c1.1,1.1,2.5,1.7,4.1,1.7c1.4,0,2.8-0.5,3.9-1.5
			l0.2-0.2c1.1-1.1,1.8-2.7,1.7-4.2c0-1.5-0.7-2.9-1.8-4l-1-1c2.3-0.8,3.9-3,3.9-5.6l0-0.2c-0.2-3.1-2.8-5.5-5.9-5.5l-8.9,0.4
			l-3.6-3.6l5.7-0.3c3.1-0.2,5.5-2.8,5.5-5.9l0-0.2c0-0.3-0.1-0.6-0.1-0.9c0.1-0.1,0.3-0.2,0.4-0.3l0.3-0.3c2.3-2.2,2.5-5.8,0.4-8.2
			l-3.8-4.2h5l5.8,6.4c1.1,1.2,2.6,1.9,4.3,1.9c1.3,0,2.5-0.4,3.6-1.2l0.3-0.3c1.1-1,1.8-2.5,1.9-4c0-1-0.2-2-0.6-2.8h1.5
			c3.2,0,5.8-2.5,5.8-5.8C168.9,98,166.3,95.5,163.1,95.5z M163.1,103.5H154l4.1,4.6c0.9,0.9,0.8,2.3-0.1,3.2
			c-0.5,0.4-1,0.6-1.6,0.6c-0.6,0-1.3-0.2-1.7-0.7l-6.9-7.6h-14.6l9.2,10.1c0.9,0.9,0.8,2.3-0.1,3.2c-0.5,0.4-1,0.6-1.6,0.6
			c-0.6,0-1.3-0.2-1.7-0.7l-11.9-13.2h-11.7l2.6,3.5c0.4,0.6,0.6,1.4,0.3,2.1c-0.3,0.7-0.9,1.2-1.6,1.4l-4.4,1.1l8.1,8.1l17.8-0.9
			c1.3,0,2.3,0.9,2.4,2.2c0,1.3-0.9,2.3-2.2,2.4l-13.6,0.6l10.3,10.3l10.2-0.5c1.3,0,2.3,0.9,2.4,2.2c0,1.3-0.9,2.3-2.2,2.4
			l-6.1,0.3l6.4,6.4c0.9,0.9,0.9,2.3,0,3.2c-0.5,0.4-1.1,0.6-1.6,0.6c-0.6,0-1.2-0.2-1.6-0.6l-6.4-6.4l-0.3,6.1
			c-0.1,1.3-1.1,2.2-2.3,2.2c-0.1,0-0.1,0-0.1,0c-1.3-0.1-2.3-1.1-2.2-2.4l0.5-10.2l-10.3-10.3l-0.6,13.6c-0.1,1.3-1.1,2.2-2.3,2.2
			c-0.1,0-0.1,0-0.1,0c-1.3-0.1-2.3-1.1-2.2-2.4L117,123l-8-8l-1,4.3c-0.1,0.7-0.6,1.3-1.4,1.6c-0.6,0.3-1.4,0.2-2.1-0.1l-3.8-2.3
			v11.5l13,11.9c0.9,0.9,1,2.3,0.1,3.2c-0.5,0.4-1.1,0.7-1.7,0.7c-0.6,0-1.1-0.1-1.6-0.6l-10-9.2v14.6l7.6,6.9
			c0.9,0.9,1,2.3,0.1,3.2c-0.5,0.4-1.1,0.7-1.7,0.7c-0.6,0-1.1-0.1-1.6-0.6l-4.5-4.1v9.1c0,1.3-1,2.3-2.3,2.3s-2.3-1-2.3-2.3v-9.1
			l-4.5,4.1c-0.9,0.9-2.3,0.8-3.2-0.1c-0.9-0.9-0.8-2.3,0.1-3.2l7.6-6.9V136l-10,9.2c-0.9,0.9-2.3,0.8-3.2-0.1
			c-0.9-0.9-0.8-2.3,0.1-3.2l13.2-11.9v-11.5l-3.8,2.3c-0.4,0.2-0.8,0.4-1.2,0.4c-0.3,0-0.6,0-0.9-0.1c-0.7-0.3-1.2-0.9-1.4-1.6
			l-1-4.3l-8,8l0.9,17.8c0,1.3-0.9,2.3-2.2,2.4c-0.1,0-0.1,0-0.1,0c-1.2,0-2.2-1-2.3-2.2l-0.6-13.6l-10.3,10.3l0.5,10.2
			c0,1.3-0.9,2.3-2.2,2.4c-0.1,0-0.1,0-0.1,0c-1.2,0-2.2-1-2.3-2.2l-0.3-6.1l-6.4,6.4c-0.5,0.4-1.1,0.6-1.6,0.6
			c-0.6,0-1.2-0.2-1.6-0.6c-0.9-0.9-0.9-2.3,0-3.2l6.4-6.4l-6.1-0.3c-1.3-0.1-2.3-1.1-2.2-2.4c0.1-1.3,1.1-2.3,2.4-2.2l10.2,0.5
			l10.3-10.3l-13.6-0.6c-1.3-0.1-2.3-1.1-2.2-2.4c0.1-1.3,1.1-2.3,2.4-2.2l17.8,0.9l8.1-8.1l-4.4-1.1c-0.7-0.1-1.3-0.7-1.6-1.4
			c-0.3-0.6-0.2-1.4,0.1-2.1l2.3-3.7H70l-12,13c-0.5,0.4-1.1,0.7-1.7,0.7c-0.6,0-1.1-0.1-1.6-0.6c-0.9-0.9-1-2.3-0.1-3.2l9.2-10
			H49.2l-6.9,7.6c-0.5,0.4-1.1,0.7-1.7,0.7c-0.6,0-1.1-0.1-1.6-0.6c-0.9-0.9-1-2.3-0.1-3.2l4.1-4.5h-9.1c-1.3,0-2.3-1-2.3-2.3
			c0-1.3,1-2.3,2.3-2.3h9.2l-4.1-4.5c-0.9-0.9-0.8-2.3,0.1-3.2c0.9-0.9,2.3-0.8,3.2,0.1l6.9,7.5h14.6l-9.2-10
			c-0.9-0.9-0.8-2.3,0.1-3.2c0.9-0.9,2.3-0.8,3.2,0.1l12,13.2h11.3l-2.3-4c-0.4-0.7-0.4-1.5-0.1-2.2c0.4-0.6,1.1-1.1,1.8-1.2
			l4.5-0.4l-8.5-8.5L59,83.6c-0.1,0-0.1,0-0.1,0c-1.2,0-2.2-1-2.3-2.2c0-1.3,0.9-2.3,2.2-2.4l13.6-0.6L62,68.1l-10.2,0.5
			c-0.1,0-0.1,0-0.1,0c-1.2,0-2.2-1-2.3-2.2c0-1.3,0.9-2.3,2.2-2.4l6-0.3l-6.4-6.4c-0.9-0.9-0.9-2.3,0-3.2c0.9-0.9,2.3-0.9,3.2,0
			l6.4,6.4l0.3-6.1c0.1-1.3,1.1-2.3,2.4-2.2c1.3,0.1,2.3,1.1,2.2,2.4l-0.5,10.2l10.3,10.3l0.6-13.6c0.1-1.3,1.1-2.3,2.4-2.2
			c1.3,0.1,2.3,1.1,2.2,2.4L80,79.5l8.5,8.4l0.5-4.7c0.1-0.9,0.6-1.6,1.4-1.8c0.8-0.3,1.7-0.2,2.3,0.4l3.6,2.9V72.7L83.1,60.7
			c-0.9-0.9-1-2.3-0.1-3.2c0.9-0.9,2.3-1,3.2-0.1l10.1,9.2V51.9L88.6,45c-0.9-0.9-1-2.3-0.1-3.2c0.9-0.9,2.3-1,3.2-0.1l4.6,4.1v-9.1
			c0-1.3,1.1-2.3,2.3-2.3c1.3,0,2.3,1,2.3,2.3v9.2l4.5-4.1c0.9-0.9,2.3-0.8,3.2,0.1c0.9,0.9,0.8,2.3-0.1,3.2l-7.6,6.9v14.6l10.1-9.1
			c0.9-0.9,2.3-0.8,3.2,0.1c0.9,0.9,0.8,2.3-0.1,3.2l-13.2,11.9v12l3.6-2.9c0.6-0.5,1.5-0.6,2.3-0.4c0.8,0.3,1.3,1,1.4,1.8l0.7,4.6
			l8.3-8.3l-0.9-17.8c0-1.3,0.9-2.3,2.2-2.4c1.3,0,2.3,0.9,2.4,2.2l0.6,13.6l10.3-10.3l-0.5-10.2c0-1.3,0.9-2.3,2.2-2.4
			c1.3,0,2.3,0.9,2.4,2.2l0.3,6.1l6.4-6.4c0.9-0.9,2.3-0.9,3.2,0c0.9,0.9,0.9,2.3,0,3.2l-6.4,6.4l6.1,0.3c1.3,0.1,2.3,1.1,2.2,2.4
			c-0.1,1.3-1.1,2.2-2.3,2.2c-0.1,0-0.1,0-0.1,0l-10.2-0.5l-10.3,10.3l13.6,0.6c1.3,0.1,2.3,1.1,2.2,2.4c-0.1,1.3-1.1,2.2-2.3,2.2
			c-0.1,0-0.1,0-0.1,0l-17.8-0.9l-8.2,8.2l4.4,0.6c0.8,0.1,1.4,0.6,1.8,1.3c0.4,0.7,0.3,1.6-0.1,2.2l-2.5,3.9h11.5L139.1,86
			c0.9-0.9,2.3-1,3.2-0.1s1,2.3,0.1,3.2l-9.2,10h14.6l6.9-7.6c0.9-0.9,2.3-1,3.2-0.1c0.9,0.9,1,2.3,0.1,3.2L154,99h9.1
			c1.3,0,2.3,1,2.3,2.3C165.4,102.6,164.4,103.5,163.1,103.5z M121.8,107.1h3.8l7.8,8.6l-11.6,0.6l-2.8-2.8c1.2-0.7,2.1-1.7,2.6-2.9
			C122,109.4,122.1,108.2,121.8,107.1z M113.4,124.4l-0.6,11.7l-8.5-7.8v-4c1.2,0.3,2.5,0.2,3.7-0.3c1.2-0.5,2.1-1.3,2.7-2.3
			L113.4,124.4z M83.6,124.5l2.7-2.7c0.6,1,1.5,1.8,2.7,2.3c1,0.4,1.8,0.4,2.3,0.4c0.5,0,1-0.1,1.5-0.2v3.9l-8.6,7.8L83.6,124.5z
			 M75.6,110.7c0.5,1.2,1.4,2.1,2.5,2.8l-2.8,2.8l-11.7-0.6l8-8.6h3.8C75,108.3,75.1,109.6,75.6,110.7z M75.4,95.6h-3.8l-7.9-8.6
			l11.7-0.6L78,89c-0.9,0.5-1.6,1.3-2.2,2.2l-0.1,0.1C75.1,92.7,74.9,94.2,75.4,95.6z M83.6,78.1l0.6-11.7l8.6,7.8v3.6
			c-1.1-0.3-2.4-0.2-3.6,0.2c-1.3,0.5-2.4,1.4-3,2.6L83.6,78.1z M113.5,78.2l-2.6,2.6c-0.7-1.2-1.7-2.2-3-2.6
			c-0.7-0.2-1.3-0.4-2-0.4c-0.5,0-1,0.1-1.5,0.2v-3.7l8.6-7.8L113.5,78.2z M121.4,91.5c-0.5-1-1.3-1.9-2.3-2.4l2.6-2.6l11.7,0.6
			l-7.8,8.6h-3.8C122.2,94.3,122.1,92.8,121.4,91.5z"/>
	</g>
	<path class="st11" d="M193.5,67.7l-5.8-3.2l5.7-3.4c1.1-0.7,1.9-1.7,2.2-3c0.3-1.3,0.1-2.6-0.6-3.7c-0.7-1.1-1.8-1.9-3-2.2
		c-1.3-0.3-2.6-0.1-3.7,0.6l-5.7,3.4l-0.1-6.7c0-2.7-2.3-4.9-5-4.8c-2.7,0.1-4.9,2.3-4.8,5l0.1,6.7l-5.8-3.2
		c-1.1-0.6-2.5-0.8-3.7-0.4c-1.3,0.4-2.3,1.2-2.9,2.3c-1.3,2.4-0.4,5.3,1.9,6.7l5.8,3.2l-5.7,3.4c-2.3,1.4-3.1,4.4-1.7,6.7
		c0.9,1.5,2.6,2.4,4.3,2.4c0.9,0,1.7-0.3,2.4-0.7l5.7-3.4l0.1,6.7c0,1.3,0.6,2.5,1.5,3.4c0.9,0.9,2.1,1.4,3.4,1.4c0,0,0.1,0,0.1,0
		c1.3,0,2.5-0.6,3.4-1.5c0.9-0.9,1.4-2.2,1.4-3.5l-0.1-6.7l5.8,3.2c0.7,0.4,1.6,0.6,2.5,0.6c1.7,0,3.3-1,4.2-2.5
		C196.7,72,195.8,69,193.5,67.7z M192.7,72.9c-0.3,0.6-0.9,0.9-1.6,0.9c-0.3,0-0.6-0.1-0.9-0.2l-10.5-5.8l0.2,12
		c0,1-0.8,1.8-1.8,1.9c-1,0-1.8-0.8-1.9-1.8l-0.2-12L165.8,74c-0.3,0.2-0.6,0.3-0.9,0.3c-0.6,0-1.2-0.3-1.6-0.9
		c-0.5-0.9-0.2-2,0.6-2.5l10.3-6.2l-10.5-5.8c-0.9-0.5-1.2-1.6-0.7-2.5c0.5-0.9,1.6-1.2,2.5-0.7l10.5,5.8l-0.2-12
		c0-1,0.8-1.8,1.8-1.9c1,0,1.8,0.8,1.9,1.8l0.2,12l10.3-6.2c0.9-0.5,2-0.2,2.5,0.6c0.5,0.9,0.2,2-0.6,2.5l-10.3,6.2l10.5,5.8
		C192.9,70.9,193.2,72,192.7,72.9z"/>
	<path class="st11" d="M35.2,135.3l-5.8-3.4l5.9-3.4c2.1-1.2,2.8-3.9,1.6-5.9c-0.6-1-1.5-1.7-2.6-2c-1.1-0.3-2.3-0.1-3.3,0.4
		l-5.9,3.4l0-6.7c0-1.2-0.4-2.3-1.3-3.1c-0.8-0.8-1.9-1.3-3.1-1.3c0,0,0,0,0,0c-1.2,0-2.2,0.4-3.1,1.3c-0.8,0.8-1.3,1.9-1.3,3.1
		l0,6.7l-5.8-3.4c-1-0.6-2.2-0.7-3.3-0.4c-1.1,0.3-2.1,1-2.6,2c-1.2,2.1-0.5,4.7,1.6,6l5.8,3.4l-5.9,3.4c-2.1,1.2-2.8,3.9-1.6,5.9
		c0.8,1.3,2.2,2.2,3.8,2.2c0.7,0,1.5-0.2,2.2-0.6l5.9-3.4l0,6.7c0,1.2,0.4,2.3,1.3,3.1c0.8,0.8,1.9,1.3,3.1,1.3c0,0,0,0,0,0
		c2.4,0,4.3-1.9,4.4-4.3l0-6.7l5.8,3.4c0.7,0.4,1.4,0.6,2.2,0.6c0,0,0,0,0,0c1.5,0,3-0.8,3.8-2.2C38,139.1,37.3,136.5,35.2,135.3z
		 M34.5,139.9c-0.3,0.5-0.9,0.9-1.5,0.9c-0.3,0-0.6-0.1-0.9-0.2l-9.8-5.7l0,11.3c0,0.9-0.8,1.7-1.7,1.7c-0.9,0-1.7-0.8-1.7-1.7
		l0-11.3l-9.8,5.6c-0.3,0.2-0.6,0.2-0.9,0.2c-0.6,0-1.2-0.3-1.5-0.9c-0.5-0.8-0.2-1.9,0.6-2.3l9.8-5.6l-9.8-5.7
		c-0.8-0.5-1.1-1.5-0.6-2.3c0.5-0.8,1.5-1.1,2.3-0.6l9.8,5.7l0-11.3c0-0.9,0.8-1.7,1.7-1.7c0.9,0,1.7,0.8,1.7,1.7l0,11.3l9.8-5.6
		c0.8-0.5,1.9-0.2,2.3,0.6c0.5,0.8,0.2,1.9-0.6,2.3l-9.8,5.6l9.8,5.7C34.7,138,35,139.1,34.5,139.9z"/>
	<path class="st10" d="M72.3,29.6c-8,0-8.1,12.5,0,12.5C80.3,42.2,80.3,29.6,72.3,29.6z"/>
	<path class="st11" d="M48.5,27.4c-5.2,0-5.2,8.1,0,8.1C53.8,35.6,53.8,27.4,48.5,27.4z"/>
	<path class="st10" d="M24.6,66.5c-8,0-8.1,12.5,0,12.5C32.7,79,32.7,66.5,24.6,66.5z"/>
	<path class="st11" d="M160.7,121.9c-8,0-8.1,12.5,0,12.5C168.7,134.4,168.7,121.9,160.7,121.9z"/>
	<path class="st11" d="M71.3,164.4c-5.9,0-5.9,9.1,0,9.1C77.2,173.6,77.2,164.4,71.3,164.4z"/>
	<path class="st10" d="M183.3,100.6c-11.9,0-12,18.6,0,18.6C195.3,119.2,195.3,100.6,183.3,100.6z"/>
</g>
</svg>
