<?xml version="1.0" encoding="utf-8"?>
<!-- Generator: Adobe Illustrator 28.0.0, SVG Export Plug-In . SVG Version: 6.00 Build 0)  -->
<svg version="1.1" id="圖層_1" xmlns="http://www.w3.org/2000/svg" xmlns:xlink="http://www.w3.org/1999/xlink" x="0px" y="0px"
	 viewBox="0 0 200 200" style="enable-background:new 0 0 200 200;" xml:space="preserve">
<style type="text/css">
	.st0{display:none;}
	.st1{display:inline;fill:#E5D69B;}
	.st2{display:inline;}
	.st3{fill:#474747;}
	.st4{fill:none;stroke:#474747;stroke-width:7;stroke-miterlimit:10;}
	.st5{fill:#8BCFDB;}
	.st6{fill:#2A888D;}
	.st7{fill:#46A7B1;}
	.st8{opacity:0.5;fill:#FFFFFF;}
	.st9{fill:#C4D593;}
	.st10{fill:#FFFFFF;}
</style>
<g class="st0">
	<path class="st1" d="M197.2,144.2v-0.8c0-0.9-0.2-1.8-0.7-2.6s-1.1-1.4-1.7-1.8c0.1-0.1,0.1-0.3,0.2-0.4c0.4-1.2,0.3-2.5-0.2-3.6
		c-0.4-0.9-0.8-1.8-1.2-2.8s-1-1.8-1.9-2.4c-1.1-0.7-2.2-1.2-3.5-1.4c0-0.1,0-0.1,0-0.2c0.2-1.4-0.2-2.8-1.1-3.9
		c-0.9-1.1-1.9-1.8-2.6-2.2c-0.1-0.1-0.3-0.2-0.4-0.3c-1-1.3-2.4-2-4-2c-0.5,0-1,0.1-1.5,0.2c-3,0.9-4.3,3.2-5,4.4
		c-0.1,0.2-0.2,0.4-0.4,0.6c-0.3,0.4-0.5,0.7-0.8,1.1c-1.4,1.9-2.2,3-3.4,3.5c-3,1.2-5.2,4-5.8,7.2c-0.6,3.3-2.7,6.1-5.2,9.3
		l-0.5,0.6c-0.5,0.6-0.8,0.7-0.9,0.7c-0.1,0-0.3-0.1-0.8-0.4c-4.1-2.8-7.2-5-10-7.2c0,0-0.6-0.5-0.4-0.8c2.2-3.8,4.2-6.8,7-8.6
		c3.5-2.2,5.7-5.5,6.1-9.3c0.1-0.7,0.3-1.3,0.8-1.9l0.1-0.1c0.8-1.1,1.7-2.3,2.5-3.6c0,0,0-0.1,0.1-0.1c1.6-2.5,3-3.8,4.9-4.5
		c3-0.9,4.8-3.3,4.8-6.3c0-1.8-0.9-3.4-2.4-4.3c-0.1-0.1-0.4-0.4-0.6-0.6c-0.3-0.3-0.5-0.6-0.8-0.9c-2.2-2.3-4.5-4.6-7.7-6.3
		c-0.7-0.4-1.5-0.6-2.3-0.6c-0.6,0-1.3,0.1-1.9,0.4c-1.4,0.5-2.4,1.7-2.9,3.1c-0.9,2.6,0,4.7,0.7,5.8c-0.9,0.7-1.8,1.5-2.7,2.2
		c-2.1,1.8-4.3,3.6-6.6,5.3c-0.9-0.7-1.8-1.6-2.7-2.5c-0.7-0.7-1.5-1.5-2.3-2.2c-0.7-0.7-1.5-1.3-2.2-2c-2-1.8-3.9-3.5-5.7-5.3
		c1-0.8,2-1.6,2.9-2.4c1.4-1.1,2.9-2.3,4.3-3.6c3.1-2.1,3.1-4.9,2.8-6.3c-0.1-0.4-0.1-0.7-0.2-1.1c-0.1-0.3-0.1-0.6-0.2-1
		c-0.2-1.5-1.1-2.9-2.4-3.7c-2.5-1.5-5.1-2.2-7.4-2.8c-0.9-0.2-1.7-0.5-2.5-0.7c-0.6-0.2-1.3-0.3-2-0.3c-1.3,0-2.3,0.4-2.9,0.7h-0.1
		c-0.6,0.2-1.2,0.3-1.8,0.3c-0.7,0-1.4-0.1-2.1-0.3c-4.3-1.3-9.4-2.9-14.3-4.6c-0.9-0.3-1-0.5-0.8-1.5v-0.1c0.3-1.4,0.8-2.9,1.4-4.4
		c0.2-0.5,0.3-1,0.5-1.5c0.9-2.6,1.8-5.6-0.1-8.3c-1.9-2.6-5.1-2.6-6.6-2.6c-0.4,0-0.8,0-1.4,0c-1.5,0.1-4.6,0.2-6.2,3.1
		c-1.6,2.9-0.1,5.6,0.7,6.9c0.4,0.7,0.4,1,0.4,1.1s-0.2,0.4-1,1c-1.4,1-2.8,2-4.2,2.9c-1.4,1-2.8,2-4.2,3c-1,0.7-1.6,0.9-1.8,0.9
		c-0.2-0.1-0.7-0.4-1.5-1.6c-1-1.4-2-2.9-3-4.3c-1-1.5-2.1-3.1-3.2-4.6c0-0.1-0.1-0.1-0.1-0.2l-0.1-0.1c-1.4-2.2-3.3-3.3-5.6-3.3
		c-0.2,0-0.4,0-0.6,0c-0.5,0-1.1,0.2-1.6,0.4c-1.5,0.7-2.8,1.7-4.1,3.2c-1.3,1.4-1.6,3.5-0.8,5.2c0.7,1.6,2.1,2.7,3.8,3
		c-0.4,3-2.3,15.4-2.7,18.7h-9.1c-2.2,0-4.1,1.4-4.7,3.4s0,4.3,1.8,5.6c0.9,0.7,1.7,1.4,2.5,2.2c-2.8,4.2-7.9,6.7-12.9,6.5
		c0.9,1.3,1.6,2.6,2.2,4c0,0,0,0-0.1-0.1l-0.1-0.1c-1.4-1.6-2.2-3.3-2.4-5.2c0-0.2-0.1-0.5-0.1-0.8c-0.8-3.5-3.6-4.3-4.7-4.5
		c-0.3,0-0.6-0.1-0.8-0.1c-1.1,0-2.1,0.3-3,1c-1.1,0.8-1.8,2.1-1.9,3.5c0,0.2-0.2,0.7-0.4,1c-0.6,1.6-1.7,4.3-0.6,7.3
		c0.6,1.8,0.6,3.7,0.1,5.6c-0.7,2.1-1.3,4.3-1.9,6.4s-1.2,4.2-1.9,6.3c-0.6,2-0.9,2-1.9,2c-0.4,0-0.9,0-1.4-0.1
		c-0.2,0-0.5-0.1-0.7-0.1c-0.1,0-0.3,0-0.4,0c-0.6-0.5-1.2-0.9-2-1.1c-1-0.3-2-0.5-2.9-0.8c-1.1-0.3-2.2-0.6-3.3-0.9
		c-0.4-0.1-0.8-0.2-1.2-0.2c-2.1,0-4,1.3-4.7,3.4c-0.3,0.8-0.6,1.6-1,2.5c-0.7,1.8-1.5,3.8-2,6c-0.4,2,0.4,4.1,2.1,5.2
		c0.8,0.6,1.8,0.8,2.8,0.8s2-0.3,2.8-0.9c1.3-0.9,2.7-1.8,4-2.8c-1,1.4-3.1,2.7-3.9,3.3c-2.8,2.1-5.6,4.6-7.1,7.8
		c-1.6,3.5-1.6,7.3,0.4,10.6c1.9,3.3,5.1,5.4,8.7,6.6c3.7,1.2,7.8,1.6,11.6,1.5c2.9-0.1,5.9-0.5,8.6-1.5c0,0.6,0.2,1.3,0.5,1.8
		c0.8,1.8,2.6,2.9,4.5,2.9c0.4,0,0.7,0,1.1-0.1c0.6-0.1,1.2-0.2,1.8-0.2c1.5,0,3.2,0.3,5,0.7c0.7,0.1,1.3,0.3,2,0.4
		c0.3,0,0.6,0.1,0.8,0.1c1.2,0,2.3-0.4,3.2-1.1c0.3,0.2,0.6,0.5,1,0.6c0.7,0.4,1.5,0.5,2.2,0.5c0.2,0,0.4,0,0.6,0
		c0.9-0.1,1.9-0.2,2.9-0.5c0.4-0.1,0.9-0.1,1.4-0.2c1.8-0.2,4.4-0.6,6.7-2.3c1.6-1.2,2.3-3.2,1.9-5.1h5.5c1.1,0.4,2.3,0.6,3.6,0.6h3
		c-0.3,0.9-0.2,1.9,0.1,2.9c0.6,1.8,2.2,3.1,4,3.4h0.1c0.4,0.1,0.9,0.1,1.1,0.2c0.2,0.1,0.5,0.2,0.7,0.2c3.3,0.7,6.5,1,9.7,1
		c6.5,0,12.9-1.4,19.1-4.3c0,0,0.2-0.1,0.3-0.1c1.8,0,3.5-1,4.3-2.6c1.1-2.1,0.9-4,0.8-5.1c0-0.1,0-0.2,0-0.3
		c1.2-4.1,2.5-8,3.7-11.7c0.3-0.7,0.5-0.7,0.7-0.7s0.4,0,0.8,0.2c0.1,0,0.1,0,0.2,0.1c3.9,1.2,8.6,2.6,13.4,4.2
		c1.8,0.6,3,1.4,3.8,2.6c1.7,2.3,3.7,3.2,5.4,3.8c1.3,0.4,2.5,0.8,3.7,1.2c-0.1,0.4-0.3,0.8-0.4,1.3c0,0.2-0.1,0.4-0.2,0.5
		c-0.4,1.2-1.2,3.4-0.3,6.1c0.6,1.6,1.9,2.8,3.6,3.2c0.5,0.1,1.1,0.3,1.6,0.4c2.5,0.6,5.3,1.3,8.4,1.3c0.7,0,1.4,0,2.1-0.1
		c0.1,0,0.1,0,0.2,0c0.3,0,0.7-0.1,1.2-0.1c1.8-0.1,4.5-0.2,7-2.3c1.2-0.9,1.8-2.4,1.8-3.9c0-3-1.9-4.7-2.7-5.5
		c-0.1-0.1-0.1-0.1-0.2-0.2l-0.1-0.1c-1.6-1.5-3.2-3-4.9-4.5c-1.3-1.2-2.5-2.3-3.8-3.5c4-3.4,8.2-7,13-10.8c1.6,2.6,3.3,5.3,4.9,7.9
		c0.1,0.1,0.1,0.2,0.2,0.3l0.1,0.2c0.5,0.8,2,3.4,5.4,3.7c0.1,0,0.3,0,0.5,0c0.3,0,0.7,0,1-0.1c1.1-0.2,3.7-1.1,4.5-4.5
		C197.2,150.3,197.2,147,197.2,144.2z M79,85h0.6c-0.3,0.3-0.7,0.7-1,1.1c-0.1-0.3-0.2-0.7-0.2-1C78.5,85,78.7,85,79,85z
		 M57.4,102.8c0.3,0.4,0.6,0.7,0.9,1h-2.1C56.7,103.5,57.1,103.1,57.4,102.8z M12.8,165.7c0.4,0.1,0.9,0.1,1.3,0.2
		c1,0.2,2,0.7,2.9,1.3c-0.9-0.2-1.8-0.4-2.7-0.8C13.8,166.3,13.3,166,12.8,165.7z"/>
	<g class="st2">
		<path class="st3" d="M27.1,83.1c0-3.2,0-3.2,3.2-3.2s3.2,0,3.2,3.2s0,3.2-3.2,3.2S27.1,86.3,27.1,83.1z"/>
		<path class="st3" d="M166.6,92.8c0,3,0,3-2.9,3c-3.4,0-3.4,0-3.4-3.3c0-3,0-3,2.9-3C166.6,89.5,166.6,89.5,166.6,92.8z"/>
		<path class="st3" d="M5,95.6c0-3,0-3,2.9-3c3.4,0,3.4,0,3.4,3.3c0,3,0,3-2.9,3C5,99,5,99,5,95.6z"/>
		<path class="st3" d="M188.7,133.8c-0.5,0-1.1,0.1-1.6,0c-1.5-0.1-3.9,0.7-4.5-0.4c-0.8-1.4-0.2-3.6-0.3-5.4c0-0.6,0.4-0.5,0.8-0.6
			c1.8,0.3,4.5-0.8,5.2,0.4C189.4,129.3,188.7,131.7,188.7,133.8z"/>
		<path class="st3" d="M192,143.4c-3.2-0.1-3.2-0.1-3.2-3.3c0-0.6,0.1-1.3,0-1.9c-0.1-1,0.4-1.2,1.2-1.2c0.2,0,0.4,0,0.6,0.1
			c1.5,0.1,3.7-0.7,4.3,0.3c0.7,1.4,0.2,3.4,0.3,5.2c0,0.8-0.4,0.8-1,0.8C193.4,143.3,192.7,143.4,192,143.4z"/>
		<path class="st3" d="M49.3,171.9c0.1-3.2,0.1-3.2,3.4-3.2c2.9,0,2.9,0,3,3.2c-0.1,3.2-0.1,3.2-3.4,3.2
			C49.4,175,49.4,175,49.3,171.9z"/>
		<path class="st3" d="M11.3,174.9c0,3.3,0,3.3-3.2,3.3c-3.1,0-3.1,0-3.1-3c0-3.3,0-3.3,3.2-3.3C11.3,171.9,11.3,171.9,11.3,174.9z"
			/>
		<g>
			<path class="st4" d="M81.8,144.4c0-1.1-0.4-1.9-1.2-2.6c-1.8-1.8-3.5-3.6-5.3-5.4c-1.1-1-0.4-1.6,0.3-2.4c0.8-0.9,1.3-0.6,2,0.1
				c6.7,6.9,13.3,13.7,20,20.6c0.8,0.8,1,1.2,0,2.1c-5.4,5.2-10.8,10.5-16.2,15.8c-0.7,0.7-1.1,0.8-1.8,0
				c-6.7-6.9-13.4-13.8-20.2-20.7c-1-1-0.6-1.6,0.2-2.4c0.8-0.9,1.3-0.7,2,0.1c1.7,1.8,3.5,3.6,5.3,5.4c1.8,1.8,3.4,1.8,5.2,0.1
				c2.8-2.7,5.6-5.4,8.4-8.1C81.3,146.2,81.8,145.4,81.8,144.4z"/>
			<path class="st5" d="M81.8,144.4c0-1.1-0.4-1.9-1.2-2.6c-1.8-1.8-3.5-3.6-5.3-5.4c-1.1-1-0.4-1.6,0.3-2.4c0.8-0.9,1.3-0.6,2,0.1
				c6.7,6.9,13.3,13.7,20,20.6c0.8,0.8,1,1.2,0,2.1c-5.4,5.2-10.8,10.5-16.2,15.8c-0.7,0.7-1.1,0.8-1.8,0
				c-6.7-6.9-13.4-13.8-20.2-20.7c-1-1-0.6-1.6,0.2-2.4c0.8-0.9,1.3-0.7,2,0.1c1.7,1.8,3.5,3.6,5.3,5.4c1.8,1.8,3.4,1.8,5.2,0.1
				c2.8-2.7,5.6-5.4,8.4-8.1C81.3,146.2,81.8,145.4,81.8,144.4z"/>
		</g>
		<g>
			<path class="st4" d="M122.7,125.5c1.1,0,2-0.6,2.8-1.4c1.7-1.8,3.4-3.5,5.1-5.3c0.9-1,1.5-0.8,2.4,0c1,0.9,0.7,1.4-0.1,2.2
				c-6.7,6.8-13.3,13.6-19.9,20.4c-0.9,0.9-1.3,1-2.3,0.1c-5.3-5.3-10.6-10.4-16-15.6c-0.8-0.8-0.9-1.2-0.1-2
				c6.7-6.8,13.4-13.7,20-20.6c0.9-1,1.5-0.8,2.4,0c1,0.9,0.8,1.4,0,2.2c-1.8,1.7-3.5,3.5-5.3,5.4c-1.6,1.7-1.6,3.4,0,5
				c2.9,2.8,5.8,5.6,8.7,8.4C121.1,125,121.8,125.3,122.7,125.5z"/>
			<path class="st6" d="M122.7,125.5c1.1,0,2-0.6,2.8-1.4c1.7-1.8,3.4-3.5,5.1-5.3c0.9-1,1.5-0.8,2.4,0c1,0.9,0.7,1.4-0.1,2.2
				c-6.7,6.8-13.3,13.6-19.9,20.4c-0.9,0.9-1.3,1-2.3,0.1c-5.3-5.3-10.6-10.4-16-15.6c-0.8-0.8-0.9-1.2-0.1-2
				c6.7-6.8,13.4-13.7,20-20.6c0.9-1,1.5-0.8,2.4,0c1,0.9,0.8,1.4,0,2.2c-1.8,1.7-3.5,3.5-5.3,5.4c-1.6,1.7-1.6,3.4,0,5
				c2.9,2.8,5.8,5.6,8.7,8.4C121.1,125,121.8,125.3,122.7,125.5z"/>
		</g>
		<g>
			<path class="st4" d="M77.9,102.1c0-4.7,0-9.4,0-14.1c0-1.4,0.5-1.7,1.9-1.8c1.5-0.1,1.4,0.7,1.3,1.7c0,2.4,0,4.9,0,7.3
				c0,2.5,1.2,3.7,3.6,3.7c4,0,7.9,0,11.9,0c2.3,0,3.5-1.2,3.5-3.6c0-2.5,0.1-5,0-7.5c-0.1-1.4,0.7-1.5,1.8-1.6
				c1.4-0.1,1.4,0.6,1.4,1.6c0,6.9,0,13.9,0,20.8c0,0.9-0.3,1.6-0.9,2.2c-2,2-4,4-5.9,6.1c-0.6,0.7-1.3,1-2.2,1
				c-4.9,0-9.8-0.1-14.6,0c-1.3,0-1.7-0.4-1.7-1.7C77.9,111.6,77.9,106.8,77.9,102.1z"/>
			<path class="st5" d="M77.9,102.1c0-4.7,0-9.4,0-14.1c0-1.4,0.5-1.7,1.9-1.8c1.5-0.1,1.4,0.7,1.3,1.7c0,2.4,0,4.9,0,7.3
				c0,2.5,1.2,3.7,3.6,3.7c4,0,7.9,0,11.9,0c2.3,0,3.5-1.2,3.5-3.6c0-2.5,0.1-5,0-7.5c-0.1-1.4,0.7-1.5,1.8-1.6
				c1.4-0.1,1.4,0.6,1.4,1.6c0,6.9,0,13.9,0,20.8c0,0.9-0.3,1.6-0.9,2.2c-2,2-4,4-5.9,6.1c-0.6,0.7-1.3,1-2.2,1
				c-4.9,0-9.8-0.1-14.6,0c-1.3,0-1.7-0.4-1.7-1.7C77.9,111.6,77.9,106.8,77.9,102.1z"/>
		</g>
		<g>
			<path class="st4" d="M73.1,122.2c-0.2,0.7-0.8,1.2-1.3,1.4c-3.1,1-4.9,3.7-7,5.9c-0.8,0.9-1.1,0.7-1.7,0c-2.3-2.7-4.8-5.1-6-8.7
				c-1.1-3.3-4-4.9-6.9-6.7c-4.2-2.6-8-5.8-8.4-11.4c-0.1-1.7-1.1-2.8-2.2-3.8c-0.7-0.7-0.7-1.1,0.1-1.7c0.4-0.3,0.7-0.6,1-0.9
				c0.9-0.8,1.7-2,2.7-2.2s1.5,1.4,2.4,2.1c0.7,0.7,1.6,0.8,2.5,0.9c2.1,0.3,3.7,1.2,5.1,2.8c2.3,2.6,4.8,5.1,6,8.7
				c1,3.1,3.5,5,6.5,6.3c3.2,1.4,5,4.2,7,6.8C72.9,121.9,73,122.1,73.1,122.2z"/>
			<path class="st7" d="M73.1,122.2c-0.2,0.7-0.8,1.2-1.3,1.4c-3.1,1-4.9,3.7-7,5.9c-0.8,0.9-1.1,0.7-1.7,0c-2.3-2.7-4.8-5.1-6-8.7
				c-1.1-3.3-4-4.9-6.9-6.7c-4.2-2.6-8-5.8-8.4-11.4c-0.1-1.7-1.1-2.8-2.2-3.8c-0.7-0.7-0.7-1.1,0.1-1.7c0.4-0.3,0.7-0.6,1-0.9
				c0.9-0.8,1.7-2,2.7-2.2s1.5,1.4,2.4,2.1c0.7,0.7,1.6,0.8,2.5,0.9c2.1,0.3,3.7,1.2,5.1,2.8c2.3,2.6,4.8,5.1,6,8.7
				c1,3.1,3.5,5,6.5,6.3c3.2,1.4,5,4.2,7,6.8C72.9,121.9,73,122.1,73.1,122.2z"/>
		</g>
		<g>
			<path class="st4" d="M12.6,156.6c1.3-3.2-1.6-5.2-3.1-7.7c-0.7-1.1-0.8-1.7,0.4-2.5c4.1-2.7,4.1-2.8,6.8,1.3c1,1.7,2.3,2.7,4.4,3
				c2.2,0.3,3.3,2.2,4.5,4c0.4,0.7,0,0.9-0.5,1.3c-1.3,0.8-2.5,1.7-3.8,2.6c-2.3,1.6-2.8,3.4-1.6,5.2c1.1,1.7,3.1,1.8,5.3,0.3
				c1.1-0.8,2.4-1.6,3.6-2.5c0.8-0.6,1.3-0.7,2,0.2c3.2,4.3,3.2,4.3-1.1,7.2c-1.9,1.3-3.8,2.6-5.6,3.9c-0.8,0.6-1.3,0.7-1.9-0.2
				c-2.7-4.1-5.5-8-8.4-12.1C12.9,159.5,12.5,158.3,12.6,156.6z"/>
			<path class="st7" d="M12.6,156.6c1.3-3.2-1.6-5.2-3.1-7.7c-0.7-1.1-0.8-1.7,0.4-2.5c4.1-2.7,4.1-2.8,6.8,1.3c1,1.7,2.3,2.7,4.4,3
				c2.2,0.3,3.3,2.2,4.5,4c0.4,0.7,0,0.9-0.5,1.3c-1.3,0.8-2.5,1.7-3.8,2.6c-2.3,1.6-2.8,3.4-1.6,5.2c1.1,1.7,3.1,1.8,5.3,0.3
				c1.1-0.8,2.4-1.6,3.6-2.5c0.8-0.6,1.3-0.7,2,0.2c3.2,4.3,3.2,4.3-1.1,7.2c-1.9,1.3-3.8,2.6-5.6,3.9c-0.8,0.6-1.3,0.7-1.9-0.2
				c-2.7-4.1-5.5-8-8.4-12.1C12.9,159.5,12.5,158.3,12.6,156.6z"/>
		</g>
		<g>
			<path class="st4" d="M17.5,118.8c0.2,1.4,1,2.7,2.7,3.1c1.8,0.6,3.7,1.2,5.5,1.7c1,0.2,1.1,0.6,0.9,1.6c-1.3,5.7-1.3,5.7-6.8,4.1
				c-2.3-0.7-4.8-1.4-7.1-2.1c-0.9-0.2-1.2-0.6-0.9-1.7c1.6-5,3-10.1,4.6-15.2c0.4-1.4,1.2-2.8,2.6-3.5c2.1-1,3-2.8,3.6-4.9
				c1.3-4.8,1.3-4.7,6.1-3.3c1.8,0.4,2,1.2,1.3,2.8c-0.6,1.2-0.8,2.7-1.2,4c-0.4,1.3-0.4,2.6,0.3,3.8c0.6,1,0.9,2,0.9,3.1
				c0.1,4.2-0.9,4.9-4.7,3.8c-1.2-0.3-2.3-0.8-3.6-1C19.4,114.7,17.5,116.3,17.5,118.8z"/>
			<path class="st5" d="M17.5,118.8c0.2,1.4,1,2.7,2.7,3.1c1.8,0.6,3.7,1.2,5.5,1.7c1,0.2,1.1,0.6,0.9,1.6c-1.3,5.7-1.3,5.7-6.8,4.1
				c-2.3-0.7-4.8-1.4-7.1-2.1c-0.9-0.2-1.2-0.6-0.9-1.7c1.6-5,3-10.1,4.6-15.2c0.4-1.4,1.2-2.8,2.6-3.5c2.1-1,3-2.8,3.6-4.9
				c1.3-4.8,1.3-4.7,6.1-3.3c1.8,0.4,2,1.2,1.3,2.8c-0.6,1.2-0.8,2.7-1.2,4c-0.4,1.3-0.4,2.6,0.3,3.8c0.6,1,0.9,2,0.9,3.1
				c0.1,4.2-0.9,4.9-4.7,3.8c-1.2-0.3-2.3-0.8-3.6-1C19.4,114.7,17.5,116.3,17.5,118.8z"/>
		</g>
		<g>
			<path class="st4" d="M57.3,70.4c2.1,0,4.2,0,6.3,0c0.8,0,1.1,0.2,1,1.1c-0.7,4.4-1.3,8.9-1.9,13.3c-0.1,1.1-0.6,1.5-1.8,1.5
				c-2.4-0.1-4.9-0.1-7.3,0c-1.2,0-1.6-0.3-1.8-1.5c-0.6-4.4-1.2-8.9-1.9-13.3c-0.1-0.9,0.1-1.1,0.9-1.1
				C53,70.5,55.1,70.4,57.3,70.4z"/>
			<path class="st6" d="M57.3,70.4c2.1,0,4.2,0,6.3,0c0.8,0,1.1,0.2,1,1.1c-0.7,4.4-1.3,8.9-1.9,13.3c-0.1,1.1-0.6,1.5-1.8,1.5
				c-2.4-0.1-4.9-0.1-7.3,0c-1.2,0-1.6-0.3-1.8-1.5c-0.6-4.4-1.2-8.9-1.9-13.3c-0.1-0.9,0.1-1.1,0.9-1.1
				C53,70.5,55.1,70.4,57.3,70.4z"/>
		</g>
		<g>
			<path class="st4" d="M50.9,140.4c-3.3,3.8-6.6,7.4-9.8,11.1c-0.7,0.8-1.2,0.7-2,0.1c-2.1-1.4-4.1-2.8-6.3-4.1
				c-0.9-0.6-1.1-1.1-0.6-2.1c1.9-4,3.8-8,5.7-12c0.3-0.7,0.5-1.3,1.5-0.6C43.2,135.3,47,137.8,50.9,140.4z"/>
			<path class="st6" d="M50.9,140.4c-3.3,3.8-6.6,7.4-9.8,11.1c-0.7,0.8-1.2,0.7-2,0.1c-2.1-1.4-4.1-2.8-6.3-4.1
				c-0.9-0.6-1.1-1.1-0.6-2.1c1.9-4,3.8-8,5.7-12c0.3-0.7,0.5-1.3,1.5-0.6C43.2,135.3,47,137.8,50.9,140.4z"/>
		</g>
		<path class="st3" d="M119.2,86.3c3,0,3,0,3,2.9c0,3.4,0,3.4-3.3,3.4c-3,0-3,0-3-2.9C115.9,86.3,115.9,86.3,119.2,86.3z"/>
		<path class="st3" d="M106.4,162.4c3.1,0,3.1,0,3.1,3.2c0,3.1,0,3.1-3.2,3.1c-3.1,0-3.1,0-3.1-3.2
			C103.2,162.4,103.2,162.4,106.4,162.4z"/>
		<g>
			<path class="st4" d="M119.2,67.6c-1.5,0.1-2.5,0.9-2.9,2.2c-0.6,1.6-1.1,3.2-1.6,4.9c-0.2,0.8-0.6,1.1-1.4,0.7
				c-0.1,0-0.1-0.1-0.2-0.1c-1.5-0.5-3.8-0.5-4.4-1.7c-0.5-1,0.7-2.9,1.1-4.4c0.7-2.1,1.4-4.3,2-6.4c0.2-0.8,0.6-1,1.4-0.7
				c4.6,1.5,9.1,2.9,13.7,4.4c1.2,0.4,2.3,1,2.7,2.1c1,2.3,2.9,3,5,3.7c3.7,1.1,3.5,1.1,2.5,4.9c-0.6,2.1-1.4,2.3-3.3,1.6
				c-2.6-1.1-5.1-1.8-7.9-0.3c-1.6,0.9-3.3-0.1-5-0.6c-0.9-0.3-0.5-0.9-0.3-1.5c0.5-1.6,1.1-3.2,1.5-4.9
				C122.9,69.4,121.3,67.5,119.2,67.6z"/>
			<path class="st7" d="M119.2,67.6c-1.5,0.1-2.5,0.9-2.9,2.2c-0.6,1.6-1.1,3.2-1.6,4.9c-0.2,0.8-0.6,1.1-1.4,0.7
				c-0.1,0-0.1-0.1-0.2-0.1c-1.5-0.5-3.8-0.5-4.4-1.7c-0.5-1,0.7-2.9,1.1-4.4c0.7-2.1,1.4-4.3,2-6.4c0.2-0.8,0.6-1,1.4-0.7
				c4.6,1.5,9.1,2.9,13.7,4.4c1.2,0.4,2.3,1,2.7,2.1c1,2.3,2.9,3,5,3.7c3.7,1.1,3.5,1.1,2.5,4.9c-0.6,2.1-1.4,2.3-3.3,1.6
				c-2.6-1.1-5.1-1.8-7.9-0.3c-1.6,0.9-3.3-0.1-5-0.6c-0.9-0.3-0.5-0.9-0.3-1.5c0.5-1.6,1.1-3.2,1.5-4.9
				C122.9,69.4,121.3,67.5,119.2,67.6z"/>
		</g>
		<g>
			<path class="st4" d="M87.3,71.6c1.7,0,2.7-1.1,3.9-1.9c3.3-2.2,3.1-2.1,5.5,0.9c1.3,1.7,1,2.5-0.7,3.5c-2.5,1.5-4.8,3.2-7.2,4.9
				c-0.8,0.6-1.3,0.8-2-0.3c-2.6-3.8-5.2-7.6-7.9-11.4c-0.9-1.2-1.4-2.6-1-4.1c0.6-2-0.3-3.4-1.3-4.9c-2.8-4-2.7-3.9,1.4-6.6
				c1-0.6,1.5-0.5,2.1,0.4s1.2,1.7,1.8,2.6c1,1.6,2.2,2.7,4.2,3c2.1,0.3,3.3,2.1,4.4,3.7c0.5,0.8-0.1,1.1-0.6,1.4
				c-1.4,1-3,2-4.3,3.1c-1.1,0.9-1.5,2.1-0.9,3.5C85,70.9,86,71.5,87.3,71.6z"/>
			<path class="st7" d="M87.3,71.6c1.7,0,2.7-1.1,3.9-1.9c3.3-2.2,3.1-2.1,5.5,0.9c1.3,1.7,1,2.5-0.7,3.5c-2.5,1.5-4.8,3.2-7.2,4.9
				c-0.8,0.6-1.3,0.8-2-0.3c-2.6-3.8-5.2-7.6-7.9-11.4c-0.9-1.2-1.4-2.6-1-4.1c0.6-2-0.3-3.4-1.3-4.9c-2.8-4-2.7-3.9,1.4-6.6
				c1-0.6,1.5-0.5,2.1,0.4s1.2,1.7,1.8,2.6c1,1.6,2.2,2.7,4.2,3c2.1,0.3,3.3,2.1,4.4,3.7c0.5,0.8-0.1,1.1-0.6,1.4
				c-1.4,1-3,2-4.3,3.1c-1.1,0.9-1.5,2.1-0.9,3.5C85,70.9,86,71.5,87.3,71.6z"/>
		</g>
		<g>
			<path class="st4" d="M96.1,46.4c0-1.8,0.1-3.6,0-5.3c-0.1-2.4,0.4-4.4,2.2-6.1c1.3-1.2,1-2.9,1-4.5c0-4.1,0-4,4.2-4.2
				c1.9-0.1,2.4,0.5,2.2,2.3c-0.1,1.1,0,2.2,0,3.4c-0.1,1.4,0.4,2.6,1.4,3.5c0.7,0.7,1.2,1.5,1.5,2.5c1,3.4,0.5,4.2-3,4.2
				c-1,0-2,0-3,0c-2,0.1-3.3,1.4-3.3,3.2s1.3,3.1,3.4,3.1c1.6,0,3.3,0.1,4.9,0c1,0,1.2,0.3,1.2,1.2c0.2,5.1,0.2,5.1-4.8,5.1
				c-2.2,0-4.5,0-6.7,0c-1,0-1.2-0.3-1.2-1.2C96.1,51.3,96.1,48.9,96.1,46.4z"/>
			<path class="st5" d="M96.1,46.4c0-1.8,0.1-3.6,0-5.3c-0.1-2.4,0.4-4.4,2.2-6.1c1.3-1.2,1-2.9,1-4.5c0-4.1,0-4,4.2-4.2
				c1.9-0.1,2.4,0.5,2.2,2.3c-0.1,1.1,0,2.2,0,3.4c-0.1,1.4,0.4,2.6,1.4,3.5c0.7,0.7,1.2,1.5,1.5,2.5c1,3.4,0.5,4.2-3,4.2
				c-1,0-2,0-3,0c-2,0.1-3.3,1.4-3.3,3.2s1.3,3.1,3.4,3.1c1.6,0,3.3,0.1,4.9,0c1,0,1.2,0.3,1.2,1.2c0.2,5.1,0.2,5.1-4.8,5.1
				c-2.2,0-4.5,0-6.7,0c-1,0-1.2-0.3-1.2-1.2C96.1,51.3,96.1,48.9,96.1,46.4z"/>
		</g>
		<g>
			<path class="st4" d="M172.7,107.7c1.6,1.2,3.3,2.5,5,3.8c0.4,0.3-0.2,1-0.6,1.3c-1.4,1.7-2,3.5-1.7,5.7c0.1,1.1,0,2.3-0.7,3.2
				c-2.5,3.7-4.2,7.7-8.4,10c-3.2,1.8-5.4,4.7-6,8.4c-0.8,4.1-3.7,6.9-5.8,10.3c-0.4,0.8-0.9,0.4-1.4,0c-3.2-2.3-6.5-4.7-9.7-6.9
				c-0.7-0.4-0.8-0.9-0.2-1.6c2.5-3.1,4.3-6.7,8-8.9c3.5-2,4.7-5.7,6-9.4c1.9-5.1,4.5-10.1,10.5-11.8c1.7-0.4,2.5-1.7,3.5-2.9
				C171.7,108.3,171.8,107.7,172.7,107.7z"/>
			<path class="st5" d="M172.7,107.7c1.6,1.2,3.3,2.5,5,3.8c0.4,0.3-0.2,1-0.6,1.3c-1.4,1.7-2,3.5-1.7,5.7c0.1,1.1,0,2.3-0.7,3.2
				c-2.5,3.7-4.2,7.7-8.4,10c-3.2,1.8-5.4,4.7-6,8.4c-0.8,4.1-3.7,6.9-5.8,10.3c-0.4,0.8-0.9,0.4-1.4,0c-3.2-2.3-6.5-4.7-9.7-6.9
				c-0.7-0.4-0.8-0.9-0.2-1.6c2.5-3.1,4.3-6.7,8-8.9c3.5-2,4.7-5.7,6-9.4c1.9-5.1,4.5-10.1,10.5-11.8c1.7-0.4,2.5-1.7,3.5-2.9
				C171.7,108.3,171.8,107.7,172.7,107.7z"/>
		</g>
		<g>
			<path class="st4" d="M130.3,156.9c-1.7,0-2.9,1-3.5,2.5c-0.6,1.7-1.3,3.5-1.7,5.2c-0.6,2.5-2.4,1.4-3.1,0.8
				c-1.3-1-4.8,0.7-3.9-2.9c0.9-3.6,2.3-7,3.3-10.6c0.3-1.3,0.8-1.7,2.2-1.3c4.8,1.6,9.8,3.1,14.7,4.7c1.5,0.5,3,1.2,3.7,2.5
				c1.3,2.9,3.7,3.8,6.3,4.6c3.8,1.2,3.8,1.2,2.5,5.1c-0.9,3-1,3.1-3.9,2.1c-3-1-5.9-2-9-0.2c-1.8,1-3.8,0-5.8-0.7
				c-0.9-0.3-0.7-1-0.5-1.7c0.6-1.8,1.3-3.7,1.7-5.6C134.6,159,132.8,156.8,130.3,156.9z"/>
			<path class="st7" d="M130.3,156.9c-1.7,0-2.9,1-3.5,2.5c-0.6,1.7-1.3,3.5-1.7,5.2c-0.6,2.5-2.4,1.4-3.1,0.8
				c-1.3-1-4.8,0.7-3.9-2.9c0.9-3.6,2.3-7,3.3-10.6c0.3-1.3,0.8-1.7,2.2-1.3c4.8,1.6,9.8,3.1,14.7,4.7c1.5,0.5,3,1.2,3.7,2.5
				c1.3,2.9,3.7,3.8,6.3,4.6c3.8,1.2,3.8,1.2,2.5,5.1c-0.9,3-1,3.1-3.9,2.1c-3-1-5.9-2-9-0.2c-1.8,1-3.8,0-5.8-0.7
				c-0.9-0.3-0.7-1-0.5-1.7c0.6-1.8,1.3-3.7,1.7-5.6C134.6,159,132.8,156.8,130.3,156.9z"/>
		</g>
		<g>
			<path class="st4" d="M143.7,87.5c0.7,0,0.8,0.6,1.1,0.9c2.6,4.3,5.2,8.7,7.8,12.9c0.6,0.9,0.4,1.5-0.3,2
				c-2.4,1.9-4.7,3.8-7.1,5.7c-0.8,0.7-1.2,0.4-1.9-0.2c-3.7-3.5-7.4-6.9-11.1-10.3c-0.6-0.4-1.2-1-0.2-1.8c3.7-3,7.5-6.1,11.2-9.1
				C143.3,87.7,143.5,87.6,143.7,87.5z"/>
			<path class="st6" d="M143.7,87.5c0.7,0,0.8,0.6,1.1,0.9c2.6,4.3,5.2,8.7,7.8,12.9c0.6,0.9,0.4,1.5-0.3,2
				c-2.4,1.9-4.7,3.8-7.1,5.7c-0.8,0.7-1.2,0.4-1.9-0.2c-3.7-3.5-7.4-6.9-11.1-10.3c-0.6-0.4-1.2-1-0.2-1.8c3.7-3,7.5-6.1,11.2-9.1
				C143.3,87.7,143.5,87.6,143.7,87.5z"/>
		</g>
		<g>
			<path class="st4" d="M187.7,161c-0.2,0.2-0.4,0.5-0.6,0.7c-2.1,1.8-4.3,3.5-6.3,5.3c-0.6,0.6-1.1,0.5-1.7,0
				c-3.4-3.1-6.8-6.2-10.3-9.3c-0.7-0.6-0.6-1,0.1-1.5c3.3-2.7,6.5-5.4,9.7-8.1c0.6-0.5,0.9-0.6,1.4,0.2c2.4,4,4.9,8,7.3,11.9
				C187.4,160.4,187.5,160.7,187.7,161z"/>
			<path class="st6" d="M187.7,161c-0.2,0.2-0.4,0.5-0.6,0.7c-2.1,1.8-4.3,3.5-6.3,5.3c-0.6,0.6-1.1,0.5-1.7,0
				c-3.4-3.1-6.8-6.2-10.3-9.3c-0.7-0.6-0.6-1,0.1-1.5c3.3-2.7,6.5-5.4,9.7-8.1c0.6-0.5,0.9-0.6,1.4,0.2c2.4,4,4.9,8,7.3,11.9
				C187.4,160.4,187.5,160.7,187.7,161z"/>
		</g>
	</g>
</g>
<g>
	<path class="st8" d="M86,173.2c3.8-3.8,7.6-7.5,11.4-11.3c3.4-3.4,3.5-6.8,0.1-10.3c-6.5-6.7-13.1-13.4-19.7-20.1
		c-0.8-0.8-0.8-1.2-0.1-2.3c1.4-2.3,3.2-2.5,5.5-2.3c1.8,0.1,3.7,0,5.5,0c0.2,0.5-0.2,0.8-0.4,1.1c-1.6,2.8-1.3,5.7,1,8
		c6,5.9,12.1,11.8,18.2,17.7c2.7,2.6,6.4,2.4,9-0.3c8-8.2,15.9-16.4,23.9-24.6c1.7-1.7,1.6-3.3-0.1-5c-1.2-1.3-2.5-2.5-3.8-3.7
		c-2.9-2.6-7-2.5-9.8,0.2c-1.1,1-2.2,2.1-3.2,3.3c-0.6,0.6-0.9,0.6-1.6,0.1c-4-3.4-4-3.4-0.4-7.2c1.1-1.1,2.2-2.1,3.2-3.3
		c1.4-1.5,1.4-3.1-0.1-4.6c-1.3-1.4-2.7-2.7-4.1-4c-3.2-2.8-6.9-2.4-10.7,1.1c-0.6-0.5-0.3-1.1-0.3-1.6c0-5.8,0-11.6,0-17.4
		c0-3-1.1-4-4.1-4.1c-1.5,0-3,0-4.6,0c-4.2,0.1-7.1,3.1-7.2,7.3c0,0.2,0,0.4,0,0.6c0,5.1,0,5.1-5.2,4.8c-1,0-1.2-0.4-1.2-1.3
		c0.1-2.5,0-5,0-7.5c0-2.8-1.1-3.9-4-3.9c-1.5,0-2.9,0-4.4,0c-4.5,0.1-7.5,3-7.5,7.5c0,7.3,0,14.7,0,22c0,0.4,0,0.8,0,1.2
		c-3.9-1.3-7-3.2-7.6-7.7c-0.1-0.6-0.5-1.2-1-1.7c-2.6-2.8-5-6-8.5-8.6c3.5,0,6.6,0,9.8,0c2.8,0,3.7-0.8,4.1-3.6
		c1-6.9,2-13.7,3-20.6c0.4-3-0.8-4.2-4.3-4.4c0.7-0.8,1.5-1.5,2.4-1.9c1.1-0.1,1.4,0.9,1.9,1.5c2.1,2.9,4.1,6,6.2,8.9
		c3,4.2,6,4.8,10.2,1.8c2.8-2,5.6-3.9,8.4-5.9c3.3-2.3,4-5.3,2-8.7c-1.2-2.1-1-2.4,1.4-2.5c4.4-0.1,4.6,0.1,3.2,4.4
		c-0.7,2.1-1.5,4.2-2,6.4c-0.9,3.5,0.6,6.2,3.9,7.4c4.8,1.7,9.6,3.2,14.5,4.7c2.4,0.7,4.8,0.8,7.2-0.1c0.5-0.2,1-0.5,1.5-0.3
		c3,1,6.1,1.4,8.9,3.1c0.1,0.8,0.3,1.6,0.4,2.3c0.2,0.9-0.5,1.1-1,1.5c-2.5,2.2-5.2,4.2-7.8,6.4c-0.5,0.4-1,0.8-1.5,1.3
		c-1.4,1.5-1.4,2.6,0,4.1c3,3.2,6.4,6.1,9.7,9.1c2.1,1.9,3.8,4,6.1,5.6c2,1.4,2.7,1.5,4.6,0c3.8-2.9,7.4-6,11.1-9
		c1.6-1.3,1.7-2.7,0.8-4.6c-0.4-0.8-1.3-1.5-0.9-2.7c2.5,1.3,4.5,3.3,6.4,5.3c0.8,0.8,1.4,1.7,2.4,2.3c0,1-0.7,1.4-1.4,1.6
		c-3.4,1.2-5.7,3.6-7.6,6.6c-0.8,1.2-1.6,2.3-2.4,3.4c-1,1.3-1.6,2.7-1.8,4.3c-0.3,2.5-1.7,4.4-3.8,5.7c-4,2.5-6.4,6.4-8.7,10.3
		c-1.5,2.5-0.7,5.5,1.6,7.3c3.4,2.6,6.8,5,10.3,7.4c3,2.1,6.1,1.5,8.4-1.4c2.8-3.7,5.7-7.3,6.6-12c0.3-1.6,1.4-3,2.9-3.6
		c2.9-1.3,4.4-3.8,6.2-6.2c0.9-1.2,1.3-2.7,2.9-3.2c0.8,1.2,2.3,1.6,3.2,2.7c-0.2,1.4-0.2,2.7-0.2,4.1c0,1.2,0.5,1.7,1.8,1.8
		c1.3,0,2.7-0.4,4,0.5c0.4,1.1,0.8,2.1,1.3,3.2c-0.2,0.6-0.6,1-0.6,1.6c-0.1,1.1-0.2,2.2,0.1,3.3c0.3,1.4,1.9,0.5,2.5,1.5
		c0,3,0.1,6-0.8,8.9c-0.1,0.4-0.1,0.8-0.6,0.9c-1.1-0.1-1.4-1.1-1.9-1.8c-1.9-3.1-3.8-6.2-5.7-9.2c-1.6-2.6-2.9-2.9-5.3-1
		c-5.2,4.2-10.4,8.5-15.5,12.9c-2.5,2.1-2.4,3.3,0,5.6c3.2,3,6.4,5.8,9.6,8.8c0.6,0.6,1.4,1.1,1.4,2.1c-1.7,1.4-3.8,1-5.8,1.3
		c-3.6,0.4-7-0.7-10.4-1.5c-0.5-1.4,0.3-2.5,0.6-3.8c0.2-0.9,0.6-1.7,0.8-2.6c0.5-2,0-3.1-1.9-3.9c-1.8-0.7-3.7-1.3-5.6-1.9
		c-1.2-0.4-2.1-0.9-2.9-2c-1.6-2.1-3.7-3.4-6.2-4.3c-4.5-1.5-9-2.9-13.6-4.3c-3.5-1.2-6.6,0.2-7.8,3.7c-1.4,4-2.7,8.1-3.9,12.2
		c-0.4,1.4,0.4,2.8-0.3,4.1c-0.8-0.1-1.5,0.2-2.3,0.6c-8.2,3.8-16.8,4.8-25.7,2.9C87.5,173.4,86.7,173.3,86,173.2z"/>
	<path class="st8" d="M38.5,173.7c0.5-0.4,1-0.8,1.6-1.2c3-2.2,3.6-5.6,1.7-8.7c-0.3-0.4-0.6-0.9-0.8-1.3c3.2-1.5,4.7-4.8,7.2-6.9
		c5,5.1,9.9,10.2,14.9,15.3c0.4,0.5,1,0.8,1.2,1.5c-1.9,1.4-4.3,1.2-6.4,1.7c-0.7,0.2-1.5,0.3-2.3,0.4c-0.2-0.1-0.4-0.3-0.4-0.4
		c-0.1-2-1.4-2.1-3-2.3c-2.3-0.3-2.3,1.5-3,2.7C45.7,173.9,42.2,172.9,38.5,173.7z"/>
	<path class="st9" d="M27,85.7c0-3.2,0-3.2,3.2-3.2s3.2,0,3.2,3.2s0,3.2-3.2,3.2S27,88.9,27,85.7z"/>
	<path class="st9" d="M166.5,95.4c0,3,0,3-2.9,3c-3.4,0-3.4,0-3.4-3.3c0-3,0-3,2.9-3C166.5,92.1,166.5,92.1,166.5,95.4z"/>
	<path class="st9" d="M4.9,98.2c0-3,0-3,2.9-3c3.4,0,3.4,0,3.4,3.3c0,3,0,3-2.9,3C4.9,101.6,4.9,101.6,4.9,98.2z"/>
	<path class="st9" d="M188.6,136.4c-0.5,0-1.1,0.1-1.6,0c-1.5-0.1-3.9,0.7-4.5-0.4c-0.8-1.4-0.2-3.6-0.3-5.4c0-0.6,0.4-0.5,0.8-0.6
		c1.8,0.3,4.5-0.8,5.2,0.4C189.3,131.9,188.6,134.3,188.6,136.4z"/>
	<path class="st9" d="M191.9,146c-3.2-0.1-3.2-0.1-3.2-3.3c0-0.6,0.1-1.3,0-1.9c-0.1-1,0.4-1.2,1.2-1.2c0.2,0,0.4,0,0.6,0.1
		c1.5,0.1,3.7-0.7,4.3,0.3c0.7,1.4,0.2,3.4,0.3,5.2c0,0.8-0.4,0.8-1,0.8C193.3,145.9,192.6,146,191.9,146z"/>
	<path class="st9" d="M49.2,174.5c0.1-3.2,0.1-3.2,3.4-3.2c2.9,0,2.9,0,3,3.2c-0.1,3.2-0.1,3.2-3.4,3.2
		C49.3,177.6,49.3,177.6,49.2,174.5z"/>
	<path class="st9" d="M11.2,177.5c0,3.3,0,3.3-3.2,3.3c-3.1,0-3.1,0-3.1-3c0-3.3,0-3.3,3.2-3.3C11.2,174.5,11.2,174.5,11.2,177.5z"
		/>
	<path class="st8" d="M11.2,136.4c2,0.5,3.9,1.1,6.2,1.7c-3.2,2.2-6.1,4.2-9,6.2C9,141.5,10.3,139,11.2,136.4z"/>
	<path class="st10" d="M140.5,123.5c-1.1-1.2-2.3-2.5-3.6-3.6c-3.2-3-7.4-2.9-10.7,0c-0.7,0.6-1.3,1.3-2,1.9c-1.7,1.6-1.8,1.6-3.5,0
		c-1.9-1.8-1.9-2.1-0.3-3.8c1.4-1.4,2.8-2.8,4.2-4.2c2-2.1,2-3.8,0-5.9c-0.7-0.8-1.5-1.6-2.2-2.3c-4.2-4.2-7.3-4.5-12.2-1.3
		c-0.4-0.6-0.2-1.3-0.2-1.9c0-5.3,0.1-10.7,0-16c0-3-1.4-4.3-4.4-4.4c-1.6,0-3.3-0.1-4.9,0c-4.2,0.2-7.3,3.3-7.5,7.5
		c0,1.1-0.1,2.1,0,3.2c0.1,1.4-0.4,2.1-1.9,2c-0.5,0-0.9,0-1.4,0c-1.4,0.1-2-0.5-2-2c0.1-2.2,0.1-4.5,0-6.7c-0.1-2.6-1.4-3.9-4-4
		c-1.4,0-2.8,0-4.2,0c-5.6,0-8.7,3.1-8.7,8.7c0,6.6,0,13.2,0,19.8c0,0.6,0.2,1.2-0.3,1.8c-2.1-1-4.6-1.7-5.3-4.3
		c-1.5-5.3-5.9-8.4-9.1-12.2c2.6,0,5.5,0.1,8.4,0c2.6-0.1,3.8-1.1,4.2-3.6c0.6-3.2,0.9-6.4,1.4-9.6c0.6-3.9,1.2-7.7,1.7-11.6
		c0.4-3.4-1.7-5.3-4.8-4.3c-6.7,0-13.3,0-20,0c-3.4,0-4.5,1.4-4,4.7c0.9,5.9,1.7,11.8,2.6,17.9c-1.7-0.8-3.1-0.9-4.4,0.3
		c-3.1,2.8-6.3,5.5-9.2,8.4c-1,1-1.7,1-2.7,0.7c-2.6-0.8-5.2-1.6-7.8-2.3c-2.3-0.7-3.7,0.1-4.4,2.3c-0.6,1.9-1.2,3.8-1.7,5.7
		c-0.3,1.2-0.8,2.1-1.9,2.8c-1.8,1.3-3.1,3.2-3.8,5.4c-1.6,5.1-3.1,10.3-4.6,15.5c-0.9,3.1,0.8,6.3,3.9,7.5c0.7,0.3,1.5,0.5,2.2,0.8
		c1.3,1.3,3.4,0.9,4.8,2c-2.5,2.1-5.5,3.4-7.6,5.9c-0.5,0.4-1.1,0.8-1.6,1.2c-2.2,1.7-2.5,3.1-1,5.4c0.7,1,1.4,2.1,2.2,3.2
		c1.2,1.7,2.1,3.4,2,5.6c0,2.2,0.9,4.2,2.2,6c2.7,4,5.5,8,8.3,12c2.5,3.6,6,4.2,9.6,1.7c2.8-1.9,5.5-3.8,8.3-5.7
		c1.2-0.4,2.4-1,3.2-2.1c1.6-2.4,2.2-4.9,0.7-7.6c-0.3-0.5-0.9-1-0.1-1.7c1.8-1.5,3.4-3.2,4.8-5c0.6-0.8,1.1-0.9,1.9-0.1
		c4.2,4.6,8.8,9,13.2,13.4c0.6,0.6,1,1.6,2,1.8c2.3,1.8,4.2,4.1,6.3,6.2c3,2.9,6.5,3,9.5,0.2c2-1.9,3.9-3.7,5.9-5.6
		c1-0.3,1.7-1,2.3-1.7c3-3,6.1-6.1,9.2-9.2c3.8-3.8,3.9-7.5,0.1-11.2c-6.3-6.2-12.2-12.8-18.5-19c-0.6-0.6-1.8-1.1-1.2-2.2
		c0.5-1,1.2-2.2,2.5-2.3c2.3-0.2,4.7-0.1,7.2,0c-1.5,4.3-1.2,6.2,1.1,8.6c6,6.1,12,12.2,18.4,18c2.4,2.1,5.7,2.3,8.4,0.5
		c0.8-0.6,1.5-1.3,2.2-2c5.4-5.3,10.3-10.9,15.8-16.1c2.5-2.4,4.6-5,7-7.5C142.4,127.1,142.3,125.5,140.5,123.5z M50.7,73
		c2.2,0.1,4.3,0,6.5,0c2.1,0,4.2,0,6.3,0c0.8,0,1.1,0.2,1,1.1c-0.7,4.4-1.3,8.9-1.9,13.3c-0.1,1.1-0.6,1.5-1.8,1.5
		c-2.4-0.1-4.9-0.1-7.3,0c-1.2,0-1.6-0.3-1.8-1.5c-0.6-4.4-1.2-8.9-1.9-13.3C49.7,73.2,49.9,73,50.7,73z M39.6,99.8
		c0.4-0.3,0.7-0.6,1-0.9c0.9-0.8,1.7-2,2.7-2.2c1-0.2,1.5,1.4,2.4,2.1c0.7,0.7,1.6,0.8,2.5,0.9c2.1,0.3,3.7,1.2,5.1,2.8
		c2.3,2.6,4.8,5.1,6,8.7c1,3.1,3.5,5,6.5,6.3c3.2,1.4,5,4.2,7,6.8c0,0.2,0.1,0.4,0.2,0.5c-0.2,0.7-0.8,1.2-1.3,1.4
		c-3.1,1-4.9,3.7-7,5.9c-0.8,0.9-1.1,0.7-1.7,0c-2.3-2.7-4.8-5.1-6-8.7c-1.1-3.3-4-4.9-6.9-6.7c-4.2-2.6-8-5.8-8.4-11.4
		c-0.1-1.7-1.1-2.8-2.2-3.8C38.8,100.8,38.8,100.4,39.6,99.8z M29.9,133.9c1.3-4.2,2.5-8.5,3.8-12.7c0.9-2.9,0.9-5.8-0.1-8.7
		c-0.8-2.2,1-4.1,1.2-6.2c0.6,0.1,0.6,0.4,0.7,0.8c0.3,3.1,1.6,5.8,3.7,8.1c1.2,1.4,2.5,2.7,3.7,4.1c1.3,1.6,2.8,2.7,4.8,3.4
		c2.1,0.7,3.4,2.2,4.1,4.3c1.5,4.9,5.5,8,8.8,11.5c0.3,0.3,0.8,0.6,1.2,0.7c3.5,0.4,4.6,3.8,7,5.6c0.5,0.4,0.4,0.7,0,1.1
		c-0.1,0.1-0.2,0.2-0.3,0.3c-3.5,3.7-3.5,3.7-7.2,0c-1.2-1.2-2.8-2.2-2.5-4.4c0.1-1-0.8-1.7-1.7-2.3c-5.9-3.9-11.8-7.8-17.7-11.7
		c-2.3-1.5-4.1-1-5.3,1.5c-2.4,5-4.8,10.1-7.2,15.2c-0.4,0.4-0.5,1.1-1.2,1.5c-1.6-2.3-3.1-4.4-4.6-6.7
		C26,140,28.5,138.5,29.9,133.9z M12.4,130.1c-0.8-0.2-1.1-0.5-0.8-1.5c1.4-4.5,2.7-9.1,4.1-13.6c0.4-1.3,1.1-2.5,2.3-3.1
		c1.9-0.9,2.7-2.5,3.2-4.4c1.2-4.3,1.2-4.2,5.5-3c1.6,0.4,1.8,1.1,1.2,2.5c-0.5,1.1-0.7,2.4-1.1,3.6c-0.4,1.2-0.4,2.3,0.3,3.4
		c0.5,0.9,0.8,1.8,0.8,2.8c0.1,3.8-0.8,4.4-4.2,3.4c-1.1-0.3-2.1-0.7-3.2-0.9c-2-0.4-3.7,1.1-3.7,3.3c0.2,1.3,0.9,2.4,2.4,2.8
		c1.6,0.5,3.3,1.1,4.9,1.5c0.9,0.2,1,0.5,0.8,1.4c-1.2,5.1-1.2,5.1-6.1,3.7C16.7,131.4,14.5,130.7,12.4,130.1z M32.5,169.8
		c-1.8,1.2-3.6,2.5-5.4,3.7c-0.8,0.6-1.2,0.7-1.8-0.2c-2.6-3.9-5.3-7.7-8-11.6c-0.6-0.9-1-2-0.9-3.7c1.2-3.1-1.5-5-3-7.4
		c-0.7-1.1-0.8-1.6,0.4-2.4c3.9-2.6,3.9-2.7,6.5,1.2c1,1.6,2.2,2.6,4.2,2.9c2.1,0.3,3.2,2.1,4.3,3.8c0.4,0.7,0,0.9-0.5,1.2
		c-1.2,0.8-2.4,1.6-3.6,2.5c-2.2,1.5-2.7,3.3-1.5,5c1.1,1.6,3,1.7,5.1,0.3c1.1-0.8,2.3-1.5,3.4-2.4c0.8-0.6,1.2-0.7,1.9,0.2
		C36.7,167,36.7,167,32.5,169.8z M41,154.1c-0.7,0.8-1.2,0.7-2,0.1c-2.1-1.4-4.1-2.8-6.3-4.1c-0.9-0.6-1.1-1.1-0.6-2.1
		c1.9-4,3.8-8,5.7-12c0.3-0.7,0.5-1.3,1.5-0.6c3.8,2.5,7.6,5,11.5,7.6C47.5,146.8,44.2,150.4,41,154.1z M92.5,155.7
		c0.8,0.8,1,1.2,0,2.1c-5.4,5.2-10.8,10.5-16.2,15.8c-0.7,0.7-1.1,0.8-1.8,0c-6.7-6.9-13.4-13.8-20.2-20.7c-1-1-0.6-1.6,0.2-2.4
		c0.8-0.9,1.3-0.7,2,0.1c1.7,1.8,3.5,3.6,5.3,5.4c1.8,1.8,3.4,1.8,5.2,0.1c2.8-2.7,5.6-5.4,8.4-8.1c0.8-0.8,1.3-1.6,1.3-2.6
		c0-1.1-0.4-1.9-1.2-2.6c-1.8-1.8-3.5-3.6-5.3-5.4c-1.1-1-0.4-1.6,0.3-2.4c0.8-0.9,1.3-0.6,2,0.1C79.2,142,85.8,148.8,92.5,155.7z
		 M79.6,120.5c-1.3,0-1.7-0.4-1.7-1.7c-0.1-4.6-0.1-9.4-0.1-14.1c0-4.7,0-9.4,0-14.1c0-1.4,0.5-1.7,1.9-1.8c1.5-0.1,1.4,0.7,1.3,1.7
		c0,2.4,0,4.9,0,7.3c0,2.5,1.2,3.7,3.6,3.7c4,0,7.9,0,11.9,0c2.3,0,3.5-1.2,3.5-3.6c0-2.5,0.1-5,0-7.5c-0.1-1.4,0.7-1.5,1.8-1.6
		c1.4-0.1,1.4,0.6,1.4,1.6c0,6.9,0,13.9,0,20.8c0,0.9-0.3,1.6-0.9,2.2c-2,2-4,4-5.9,6.1c-0.6,0.7-1.3,1-2.2,1
		C89.3,120.5,84.4,120.4,79.6,120.5z M132.8,127.5c-6.7,6.8-13.3,13.6-19.9,20.4c-0.9,0.9-1.3,1-2.3,0.1c-5.3-5.3-10.6-10.4-16-15.6
		c-0.8-0.8-0.9-1.2-0.1-2c6.7-6.8,13.4-13.7,20-20.6c0.9-1,1.5-0.8,2.4,0c1,0.9,0.8,1.4,0,2.2c-1.8,1.7-3.5,3.5-5.3,5.4
		c-1.6,1.7-1.6,3.4,0,5c2.9,2.8,5.8,5.6,8.7,8.4c0.7,0.7,1.4,1,2.3,1.2c1.1,0,2-0.6,2.8-1.4c1.7-1.8,3.4-3.5,5.1-5.3
		c0.9-1,1.5-0.8,2.4,0C133.9,126.2,133.6,126.7,132.8,127.5z"/>
	<path class="st9" d="M119.1,88.9c3,0,3,0,3,2.9c0,3.4,0,3.4-3.3,3.4c-3,0-3,0-3-2.9C115.8,88.9,115.8,88.9,119.1,88.9z"/>
	<path class="st9" d="M106.3,165c3.1,0,3.1,0,3.1,3.2c0,3.1,0,3.1-3.2,3.1c-3.1,0-3.1,0-3.1-3.2C103.1,165,103.1,165,106.3,165z"/>
	<path class="st10" d="M140.5,66.9c-2-0.7-4-1.3-6-1.9c-0.7-0.3-1.3-0.5-1.7-1.2c-1.6-2.6-4-4.1-6.9-5c-4-1.2-8-2.6-12-3.8
		c-1.1-0.3-1.4-0.8-1.4-1.9c0-4.8,0-9.5,0-14.3c0-2-0.2-4.1-1.4-5.5c-2-2.5-1.8-5.2-1.8-8c0-0.9,0-1.7,0-2.6c0-2.4-1.2-3.6-3.5-3.6
		c-4,0-7.9,0-11.9,0c-2.4,0-3.6,1.2-3.6,3.7c0,2.1,0,4.3,0,6.5c0,0.7-0.1,1.2-0.6,1.8c-2,2.5-2.7,5.4-2.6,8.5c0.1,2.3,0,4.5,0,6.6
		c-4.3-0.5-6.1-3.6-8-6.6c-0.3-0.5-0.7-1.1-1.1-1.6c-1.3-1.6-2.8-1.9-4.5-0.8c-3.4,2.3-6.8,4.7-10.2,7.1c-1.8,1.3-2,2.9-0.8,4.7
		s2.5,3.6,3.7,5.4c0.4,0.5,0.9,0.9,0.8,1.6c-0.3,3.3,0.8,6.1,2.4,8.8c3,3.7,5.5,7.8,8.3,11.7c2.4,3.3,5.9,3.9,9.2,1.7
		c3.4-2.3,6.8-4.6,10.1-7c3.2-2.2,3.8-5.7,1.7-9c-0.3-0.6-0.9-1-0.8-1.7c1.9,0,3.6,0,5.6,0c-1,3.3-2.1,6.5-3.1,9.8
		c-1.2,3.8,0.5,7.1,4.2,8.3c4.8,1.6,9.7,3.1,14.5,4.6c1.7,0.6,3.6,1.1,5.2,0.4c3.1-1.2,5.9-0.2,8.7,0.8c1.2,0.4,2.5,0.7,3.8,1
		c1.6-0.5,2.5-1.6,2.8-3.1c1-3.5,2.2-7,3.3-10.5C143.7,69.2,143,67.7,140.5,66.9z M91.5,67.3c-2.5,1.5-4.8,3.2-7.2,4.9
		c-0.8,0.6-1.3,0.8-2-0.3c-2.6-3.8-5.2-7.6-7.9-11.4c-0.9-1.2-1.4-2.6-1-4.1c0.6-2-0.3-3.4-1.3-4.9c-2.8-4-2.7-3.9,1.4-6.6
		c1-0.6,1.5-0.5,2.1,0.4c0.6,0.9,1.2,1.7,1.8,2.6c1,1.6,2.2,2.7,4.2,3c2.1,0.3,3.3,2.1,4.4,3.7c0.5,0.8-0.1,1.1-0.6,1.4
		c-1.4,1-3,2-4.3,3.1c-1.1,0.9-1.5,2.1-0.9,3.5c0.3,1.5,1.3,2.1,2.6,2.2c1.7,0,2.7-1.1,3.9-1.9c3.3-2.2,3.1-2.1,5.5,0.9
		C93.5,65.5,93.2,66.3,91.5,67.3z M100.2,47.6c1.6,0,3.3,0.1,4.9,0c1,0,1.2,0.3,1.2,1.2c0.2,5.1,0.2,5.1-4.8,5.1c-2.2,0-4.5,0-6.7,0
		c-1,0-1.2-0.3-1.2-1.2c0-2.3,0-4.7,0-7.2c0-1.8,0.1-3.6,0-5.3c-0.1-2.4,0.4-4.4,2.2-6.1c1.3-1.2,1-2.9,1-4.5c0-4.1,0-4,4.2-4.2
		c1.9-0.1,2.4,0.5,2.2,2.3c-0.1,1.1,0,2.2,0,3.4c-0.1,1.4,0.4,2.6,1.4,3.5c0.7,0.7,1.2,1.5,1.5,2.5c1,3.4,0.5,4.2-3,4.2
		c-1,0-2,0-3,0c-2,0.1-3.3,1.4-3.3,3.2S98.1,47.6,100.2,47.6z M135.1,75.8c-0.6,2.1-1.4,2.3-3.3,1.6c-2.6-1.1-5.1-1.8-7.9-0.3
		c-1.6,0.9-3.3-0.1-5-0.6c-0.9-0.3-0.5-0.9-0.3-1.5c0.5-1.6,1.1-3.2,1.5-4.9c0.8-2.1-0.8-4-2.9-3.9c-1.5,0.1-2.5,0.9-2.9,2.2
		c-0.6,1.6-1.1,3.2-1.6,4.9c-0.2,0.8-0.6,1.1-1.4,0.7c-0.1,0-0.1-0.1-0.2-0.1c-1.5-0.5-3.8-0.5-4.4-1.7c-0.5-1,0.7-2.9,1.1-4.4
		c0.7-2.1,1.4-4.3,2-6.4c0.2-0.8,0.6-1,1.4-0.7c4.6,1.5,9.1,2.9,13.7,4.4c1.2,0.4,2.3,1,2.7,2.1c1,2.3,2.9,3,5,3.7
		C136.3,72,136.1,72,135.1,75.8z"/>
	<path class="st10" d="M184.1,110.4c-3.3-2.4-6.7-4.8-10.1-7.2c-1.7-1.3-3.2-0.9-4.6,0.8c-0.8,1-1.6,2.1-2.4,3.1
		c-0.3,0.8-1,0.9-1.7,1.2c-2.6,1-4.8,2.7-6.5,5c-1,1.5-2,3.1-3.2,4.5c-1.4,1.8-2.3,3.6-2.5,5.9c-0.1,1.8-1,3.3-2.5,4.1
		c-4.5,2.4-6.9,6.7-9.6,10.6c-1.8,2.6-1.2,6.3,1.3,8.2c3.6,2.7,7.3,5.4,11.1,7.9c2.3,1.6,5.6,1.4,7.4-0.8c3.1-3.7,6.5-7.3,7.4-12.4
		c0.4-2,1.3-3.6,3.1-4.4c2.4-1,4-2.9,5.4-5c1-1.5,2.2-3.1,3.3-4.6c0.8-1.7,1.9-3.5,1.8-5.5c-0.2-2.6,1.2-4.4,2.6-6.3
		c0.2-0.2,0.4-0.4,0.5-0.6C185.9,113.2,185.7,111.6,184.1,110.4z M177.1,114.9c-1.3,1.5-1.8,3.1-1.5,5.1c0.1,1,0,2.1-0.6,2.9
		c-2.2,3.3-3.8,6.9-7.5,9c-2.9,1.6-4.8,4.2-5.4,7.5c-0.7,3.7-3.3,6.2-5.2,9.2c-0.4,0.7-0.8,0.4-1.3,0c-2.9-2.1-5.8-4.2-8.7-6.2
		c-0.6-0.4-0.7-0.8-0.2-1.4c2.2-2.8,3.9-6,7.2-8c3.1-1.8,4.2-5.1,5.4-8.4c1.7-4.6,4-9.1,9.4-10.6c1.5-0.4,2.2-1.5,3.1-2.6
		c0.4-0.5,0.5-1.1,1.3-1.1c1.4,1.1,3,2.2,4.5,3.4C178,114,177.4,114.6,177.1,114.9z"/>
	<path class="st9" d="M156.7,162.1c-2-0.7-4.1-1.4-6.2-2c-0.8-0.2-1.4-0.6-1.9-1.3c-1.6-2.4-3.9-3.9-6.6-4.8
		c-4.5-1.4-9-2.9-13.5-4.3c-4.2-1.4-7.4,0.3-8.8,4.5c-1.1,3.4-2.1,6.9-3.3,10.3c-0.7,1.9-0.9,3.7-0.2,5.6c1,1.7,2.3,3,4.2,3.8
		c4.7,1.5,9.4,3,14.1,4.5c1.9,0.6,3.9,1.1,5.8,0.4c2.7-1.1,5.1-0.5,7.6,0.5c1,0.3,2,0.6,3,0.9c2.2,0.7,3.6,0,4.4-2.3
		c0.5-1.6,1.1-3.3,1.6-4.9c0.7-2.1,1.4-4.3,2-6.4C159.6,164.3,158.9,162.9,156.7,162.1z M150.9,170.6c-0.8,2.6-0.9,2.7-3.4,1.8
		c-2.6-0.9-5.1-1.7-7.8-0.2c-1.6,0.9-3.3,0-5-0.6c-0.8-0.3-0.6-0.9-0.4-1.5c0.5-1.6,1.1-3.2,1.5-4.9c0.9-2.1-0.6-4-2.8-3.9
		c-1.5,0-2.5,0.9-3,2.2c-0.5,1.5-1.1,3-1.5,4.5c-0.5,2.2-2.1,1.2-2.7,0.7c-1.1-0.9-4.2,0.6-3.4-2.5c0.8-3.1,2-6.1,2.9-9.2
		c0.3-1.1,0.7-1.5,1.9-1.1c4.2,1.4,8.5,2.7,12.8,4.1c1.3,0.4,2.6,1,3.2,2.2c1.1,2.5,3.2,3.3,5.5,4C152,167.2,152,167.2,150.9,170.6z
		"/>
	<path class="st9" d="M159.8,102.5c-0.5-1-1.1-1.9-1.6-2.9c-3.1-5.2-6.2-10.3-9.3-15.5c-1.6-2.7-3.3-3-5.8-1c-2,1.6-3.9,3.1-5.9,4.6
		c-3.4,2.8-6.9,5.6-10.3,8.5c-1.9,1.7-2.2,3.5-0.5,5.1c5.4,5.1,10.8,10.2,16.3,15.2c1.2,1.2,2.7,1.3,4.1,0.2
		c4.1-3.3,8.2-6.6,12.3-9.9C160.5,105.6,160.6,104.1,159.8,102.5z M152.2,104.2c-2.1,1.7-4.2,3.4-6.3,5.1c-0.7,0.6-1.1,0.4-1.7-0.2
		c-3.3-3.1-6.6-6.1-9.9-9.2c-0.5-0.4-1.1-0.9-0.2-1.6c3.3-2.7,6.7-5.4,10-8.1c0.2,0.1,0.3,0,0.5-0.1c0.6,0,0.7,0.5,1,0.8
		c2.3,3.8,4.6,7.7,6.9,11.5C153,103.2,152.9,103.7,152.2,104.2z"/>
	<path class="st9" d="M194.4,162.1c-1.2-2.1-2.5-4.2-3.7-6.3c-2.8-3.7-4.9-7.7-7.4-11.6c-1.7-2.5-3.3-2.9-5.7-0.9
		c-5.3,4.3-10.6,8.7-15.8,13.1c-2.5,2.1-2.5,3.8-0.1,6c3.8,3.6,7.9,6.9,11.6,10.7c1.2,1.1,2.5,2.2,4,3.3c1.8,1.6,3.1,1.7,4.9,0.2
		c3.8-3.2,7.6-6.3,11.4-9.5C195.5,165.5,195.6,164.2,194.4,162.1z M187,164.3c-2.1,1.8-4.3,3.5-6.3,5.3c-0.6,0.6-1.1,0.5-1.7,0
		c-3.4-3.1-6.8-6.2-10.3-9.3c-0.7-0.6-0.6-1,0.1-1.5c3.3-2.7,6.5-5.4,9.7-8.1c0.6-0.5,0.9-0.6,1.4,0.2c2.4,4,4.9,8,7.3,11.9
		c0.1,0.2,0.2,0.5,0.4,0.8C187.4,163.8,187.2,164.1,187,164.3z"/>
</g>
</svg>
