<?xml version="1.0" encoding="utf-8"?>
<!-- Generator: Adobe Illustrator 28.0.0, SVG Export Plug-In . SVG Version: 6.00 Build 0)  -->
<svg version="1.1" id="圖層_1" xmlns="http://www.w3.org/2000/svg" xmlns:xlink="http://www.w3.org/1999/xlink" x="0px" y="0px"
	 viewBox="0 0 200 200" style="enable-background:new 0 0 200 200;" xml:space="preserve">
<style type="text/css">
	.st0{display:none;}
	.st1{display:inline;fill:#3D3A39;}
	.st2{display:inline;fill:#474747;}
	.st3{display:inline;fill:#8BCFDB;}
	.st4{display:inline;}
	.st5{fill:#5AA1C1;}
	.st6{fill:#7BC4B8;}
	.st7{fill:#46A7B1;}
	.st8{display:inline;fill:#46A7B1;}
	.st9{display:inline;fill:#E5D69B;}
	.st10{display:inline;fill:#D2B864;}
	.st11{display:none;fill:#FFFFFF;}
	.st12{fill:#C4D593;}
	.st13{fill:#FFFFFF;}
</style>
<g class="st0">
	<path class="st1" d="M116.3,195.8c-0.3-0.5-0.9-0.4-1.3-0.6c-4.4-1.8-6.7-6.2-5.7-10.7c1-4.3,5-7.3,9.7-7c4.3,0.2,7.9,3.7,8.4,8.3
		c0.5,4.2-2.4,8.4-6.8,9.6c-0.2,0.1-0.5,0.1-0.6,0.4C118.8,195.8,117.6,195.8,116.3,195.8z"/>
	<path class="st2" d="M120.5,104.3c-5.6,0-11.3,0-16.9-0.1c-4.3,0-6.7-2.4-6.7-6.7c0-1.8,0-3.6,0-5.4c0.1-3.1,1.8-5.4,4.8-6
		c0.9-0.2,1.3-0.4,1.3-1.5c0-4-0.7-4.8-4.7-4.8s-8.1,0-12.1,0c-0.9,0-1.4,0-1.6,1.1c-0.7,3.3-3,5-6.5,5c-9.8,0-19.6,0-29.4,0
		c-3.6,0-5.7-1.5-6.6-5.1c-0.3-1.3-1.1-1-1.9-1c-11,0-22,0-33,0c-1.6,0-1.9-0.4-1.9-1.9c0.1-9,0.1-18,0-27c0-1.3,0.3-1.6,1.6-1.6
		c11,0.1,22,0,33,0.1c1.4,0,2-0.2,2.4-1.7c0.5-2.4,2.2-3.8,4.6-4.3c1-0.2,1.3-0.6,1.2-1.6c-0.1-1.5-0.1-3.1,0-4.7
		c0.1-3.1,1.8-5.3,4.9-5.9c1-0.2,1.3-0.7,1.2-1.6c-0.2-1.5,0.7-3.6-0.3-4.4c-0.8-0.8-2.8-0.2-4.3-0.3c-2.5,0-5,0-7.5,0
		c-3.6,0-6.2-2.6-6.2-6.2c0-2,0-4,0-6c0.1-3.5,2.6-6.1,6.2-6.1c14.2,0,28.3,0,42.5,0c3.7,0,6.1,2.4,6.3,6.2c0.1,2,0.1,4,0,6
		c-0.3,3.5-2.8,6-6.5,6c-3.5,0-7.1,0.1-10.6,0c-1.2,0-1.6,0.3-1.4,1.5c0.1,0.4,0,0.7,0,1.1c-0.1,2-0.3,3.6,2.5,4.3
		c2.5,0.5,3.5,2.9,3.6,5.5c0.1,1.5,0.1,3,0,4.5c-0.1,1,0.2,1.5,1.3,1.7c2.6,0.5,4.1,2.2,4.7,4.7c0.2,1,0.6,1.2,1.5,1.2
		c5,0,9.9,0,14.9,0c5.1,0,9.8,1.3,14.3,3.7c1.3,0.7,1.7,0.4,2.3-0.8c9-17.1,20.7-32.2,33.7-46.4c0.2-0.2,0.5-0.4,0.7-0.7
		c6.1,6.5,11.8,13.4,17.2,20.5c7.9,10.5,15.2,21.4,20.4,33.6c3.1,7.1,5.2,14.4,5,22.3c-0.5,20.1-16.8,38.1-36.8,40.6
		c-5.7,0.7-11.4,0.4-17-1c-1.7-0.4-2.4-0.9-1.4-2.6c0.1-0.3,0.1-0.6,0.2-0.9c0-2.8,0.7-3.5,3.3-2.8c10.3,2.6,20.1,1.1,28.8-4.8
		c9.5-6.3,15-15.3,16.2-26.8c0.9-8.2-1.6-15.6-4.9-22.8c-7.2-15.6-17.4-29.3-28.4-42.4c-0.2-0.2,0,0.1-0.1-0.1
		c-2.5-3-2.1-3.5-5.1,0.1c-8.5,10.2-16.4,20.7-23.1,32.2c-1,1.7-1.9,3.5-2.9,5.2c-0.8,1.3-0.5,2.3,0.5,3.3c3.2,3.1,5.7,6.7,7.5,10.8
		c1.9,4.3,2.9,8.8,2.7,13.6c0,1.6,0.4,2.5,2,3c2.6,1,4,3.1,4.2,5.9c0.3,2.8,0.4,5.6-0.4,8.3c-0.8,2.5-3.1,4.4-5.6,4.5
		c-4,0.1-8.1,0-12.1,0C121.5,104.7,121,104.5,120.5,104.3z"/>
	<path class="st3" d="M120.5,104.3c4.2,0,8.3,0,12.5-0.1c4.1,0,6.5-2.4,6.6-6.4c0.1-1.9,0.1-3.9,0-5.8c-0.1-3.1-1.9-5.3-4.7-5.9
		c-1.4-0.3-1.4-0.9-1.4-2c0.2-7.8-1.9-14.8-6.5-21.1c-1.2-1.6-2.4-3.2-4-4.4c-1.1-0.9-1.2-1.6-0.5-2.9c5.7-11,12.8-21.1,20.4-30.8
		c2.6-3.3,5.4-6.5,8.1-9.8c0.5-0.6,0.8-1.1,1.5-0.2c12.7,15,24.7,30.5,32.3,48.8c3.8,9,5,18.2,1.7,27.7
		c-6.2,18.2-25.1,28.6-43.8,23.8c-2-0.5-2.7-0.1-3,1.7c0,0.2-0.2,0.4-0.3,0.7c-2-0.8-4-1.6-6-2.4c-0.8-0.7-0.6-1.7-0.7-2.6
		c-0.1-1.7-1.3-1.5-2.4-1.5c-1.1,0-2.3-0.2-2.4,1.5c0,1.1,0,2.2,0,3.3c0,7,0,14,0,21c0,0.8,0.1,1.6-0.2,2.4c-0.2,0.4-0.3,1-1,0.5
		c0.5-0.6,0.3-1.3,0.3-2c0-8.4,0-16.7,0-25.1c0-1.2-0.4-2.1-1.3-2.9C124,108.2,122.2,106.3,120.5,104.3z"/>
	<g class="st4">
		<path class="st5" d="M128.1,116.4L128.1,116.4c-0.9-0.7-0.7-1.7-0.8-2.6c0-0.2,0-0.3-0.1-0.5c0,8.2,0,16.4,0,24.6
			c0,0.7,0.1,1.4-0.3,2c0.7,0.5,0.8-0.1,1-0.5c0.3-0.8,0.2-1.6,0.2-2.4C128.1,130.1,128.1,123.2,128.1,116.4z"/>
		<path class="st6" d="M131.5,104.2c-3.6,0-7.3,0-10.9,0.1c0.3,0.4,0.6,0.7,0.9,1.1c2,0,4,0,6,0
			C129.1,105.3,130.4,104.9,131.5,104.2z"/>
		<path class="st7" d="M184.9,63.8C177.2,45.5,165.3,30,152.6,15c-0.7-0.9-1.1-0.4-1.5,0.2c-0.8,1-1.6,1.9-2.4,2.9
			c12.1,14.4,23.3,29.3,30.7,46.8c3.8,9,5,18.2,1.7,27.7c-4,11.9-13.5,20.4-24.8,23.6c13.6-1.6,25.6-10.9,30.3-24.7
			C189.8,81.9,188.6,72.8,184.9,63.8z"/>
		<path class="st5" d="M137.2,116.4c-0.5-0.1-0.9-0.2-1.3-0.2c1.2,0.5,2.4,0.9,3.6,1.4c0.1-0.2,0.3-0.4,0.3-0.7l0,0
			C139,116.8,138.1,116.7,137.2,116.4z"/>
	</g>
	<path class="st2" d="M126.9,139.8c1.3,0.2,0.6-0.8,0.6-1.1c0.1-4.4,0-8.8,0-13.2c0-4.5,0-9.1,0-13.6c0-1,0.1-1.5,1.4-1.5
		c4.6,0,4.6-0.1,4.7,4.5c0,0.1,0,0.2,0.1,0.4c0,9.6,0,19.2-0.1,28.9c0,1,0.5,1.4,1.3,1.8c4.8,1.9,9.5,1.7,13.8-1.4
		c2.1-1.5,4-3.4,6-5c7.8-6.3,18-6.3,25.9-0.1c1.6,1.3,3.1,2.7,4.6,4c2.4,2.1,5.2,3.4,8.4,3.6c1,0,1.2,0.4,1.2,1.3
		c-0.1,0.7,0,1.5,0,2.2c0,2.8,0,2.8-2.8,2.4c-3.9-0.5-7.2-2.1-10.2-4.6c-1.8-1.5-3.5-3.2-5.4-4.6c-5.3-4.1-12.9-3.9-17.7,0.5
		c5,1.5,8.7,4.4,10.6,9.3c1.5,3.7,1.5,7.4,0.1,11.1c-2.8,7.5-11.2,11.5-18.8,9.1c-8.4-2.7-12-10.4-9.5-20.7
		c-2.4,0.1-4.8-0.4-7.3-1.1c0,6,0,11.8,0,17.6c0,1.4-0.2,1.9-1.8,1.9c-4.3-0.1-4.3,0-4.3-4.3c0-5.8,0-11.5,0-17.3
		c0-1-0.3-1.7-1.1-2.4c-1.6-1.3-3.2-2.7-5.1-4.4c0,3.2-0.1,5.9,0,8.6c0,1.2-0.3,1.4-1.5,1.4c-4.6,0-4.6,0.1-4.6-4.5
		c0-2-0.1-4.1,0-6.1c0.1-1.3-0.5-1.5-1.6-1.5c-3.2,0-6.2,0.7-8.7,2.8c-2,1.6-3.9,3.3-5.9,5c3.2,2.7,4.6,6.1,3.4,10.2
		c-1.4,4.7-6.2,7.4-11,6.2s-7.7-5.8-6.7-10.6c0.2-1,0.2-1.3-1-1.4c-4.8-0.4-8.8-2.8-12.3-6c-2.5-2.3-4.9-4.8-8.4-5.6
		c-4.4-1-8.5-0.6-12.2,2.2c-1.7,1.3-3.2,2.7-4.8,4.1c-8.4,7.2-19.2,7.3-27.6,0.1c-1.3-1.1-2.5-2.2-3.8-3.3c-2.4-2-5-3.5-8.2-3.5
		c-1,0-1.4-0.4-1.3-1.4c0.1-0.9,0-1.9,0-2.8c0-2.2,0-2.2,2.3-1.9c4.3,0.5,8,2.2,11.2,5c1.7,1.5,3.3,3,5.1,4.3c5,3.8,11.9,3.8,16.9,0
		c1.9-1.5,3.7-3.2,5.5-4.7c8-6.4,18.4-6.4,26.3,0.2c1.7,1.4,3.2,2.9,4.9,4.2c5.3,4.1,12.2,4.2,17.5,0.1c1.8-1.4,3.5-3,5.2-4.5
		c3.9-3.3,8.4-5,13.5-4.7c1.3,0.1,1.4-0.5,1.3-1.5c0-7.1,0-14.3,0-21.4c0-1.3,0.4-1.6,1.6-1.6c4.5,0,4.5,0,4.5,4.4
		c0,6.5,0,13,0,19.6c0,1.4,0.2,2.2,1.6,2.9C124.3,137.8,125.6,138.9,126.9,139.8z"/>
	<path class="st1" d="M109.1,116.7c0,1.6,0,3.2,0,4.8c0,0.8-0.3,1.2-1.1,1.1c-0.1,0-0.2,0-0.4,0c-4.7,0.1-4.7,0.1-4.7-4.6
		c0-2.1,0-4.2,0-6.3c0-0.9,0.2-1.3,1.2-1.3c5-0.2,5-0.2,5,4.6C109.1,115.5,109.1,116.2,109.1,116.7z"/>
	<path class="st8" d="M118.3,189.7c-1.6,0.1-3.1-1.3-3.1-3s1.4-3.1,3-3.1s2.9,1.3,3,2.9C121.3,188.3,120,189.7,118.3,189.7z"/>
	<path class="st9" d="M63.3,49.3c4.6,0,9.2,0,13.8,0c1.2,0,1.6,0.3,1.6,1.6c0,9.2,0,18.4,0,27.5c0,1.2-0.4,1.5-1.5,1.5
		c-9.2,0-18.5,0-27.7,0c-1.1,0-1.4-0.3-1.4-1.4c0-9.2,0-18.5,0-27.7c0-1.2,0.3-1.5,1.5-1.5C54.1,49.3,58.7,49.3,63.3,49.3z"/>
	<path class="st10" d="M78.6,50.8c0-1.2-0.4-1.6-1.6-1.6c-4.6,0.1-9.2,0-13.8,0s-9.2,0-13.8,0c-1.1,0-1.5,0.3-1.5,1.5c0,1,0,2,0,3
		c3.8,0,7.5,0,11.3,0c4.6,0,9.2,0,13.8,0c1.2,0,1.6,0.3,1.6,1.6c0,8.2,0,16.4,0,24.5c0.8,0,1.6,0,2.4,0c1.1,0,1.5-0.3,1.5-1.5
		C78.6,69.2,78.6,60,78.6,50.8z"/>
	<path class="st9" d="M93.9,55.3c5.4-0.1,10.8-0.2,16,1.8c11.1,4.4,18.4,15.7,17.6,27.6c-0.1,0.9-0.4,1.1-1.2,1.1
		c-5.3,0-10.7,0-16,0c-0.9,0-1.2-0.3-1.1-1.2c0.1-1.5,0-3-0.4-4.4c-1.1-3.9-4.6-6.6-8.9-6.6c-4.6-0.1-9.2-0.1-13.8,0
		c-1.2,0-1.4-0.3-1.4-1.5c0.1-5.2,0.1-10.3,0-15.5c0-1.2,0.3-1.5,1.4-1.4C88.7,55.4,91.3,55.3,93.9,55.3z"/>
	<path class="st10" d="M109.9,57.2c-5.2-2-10.6-1.9-16-1.8c-2.6,0-5.2,0.1-7.8,0c-1.1,0-1.5,0.3-1.4,1.4c0,0.9,0,1.9,0,2.8
		c2,0,3.9,0,5.9,0c5.4-0.1,10.8-0.2,16,1.8c10.2,4,17.1,13.8,17.6,24.5c0.7,0,1.4,0,2.1,0c0.8,0,1.2-0.2,1.2-1.1
		C128.3,72.9,121,61.5,109.9,57.2z"/>
	<path class="st9" d="M26.5,73.7c-4.6,0-9.2,0-13.8,0c-1.1,0-1.5-0.3-1.5-1.5c0.1-5.1,0.1-10.3,0-15.4c0-1.2,0.3-1.4,1.5-1.4
		c9.2,0,18.5,0,27.7,0c1.2,0,1.4,0.3,1.4,1.5c-0.1,5.1-0.1,10.3,0,15.4c0,1.1-0.3,1.5-1.4,1.5C35.8,73.7,31.2,73.7,26.5,73.7z"/>
	<path class="st9" d="M118,98.2c-4.5,0-9.1,0-13.6,0c-1.1,0-1.5-0.3-1.5-1.4c-0.1-4.8-0.1-4.8,4.7-4.8c8.1,0,16.1,0,24.2,0
		c1.4,0,1.8,0.3,1.8,1.7c-0.1,4.5,0,4.5-4.4,4.5C125.4,98.2,121.7,98.2,118,98.2z"/>
	<path class="st9" d="M63.3,37c2.5,0,5.1,0,7.6,0c1,0,1.5,0.1,1.5,1.4c0.1,4.7,0.1,4.7-4.6,4.7c-4,0-8.1-0.1-12.1,0
		c-1.4,0-1.7-0.4-1.7-1.8c0.1-4.3,0-4.3,4.4-4.3C60.1,37,61.7,37,63.3,37z"/>
	<path class="st9" d="M48.4,12.6c1.7,0,3.3,0,5,0c0.9,0,1.3,0.3,1,1.2c-0.3,1-0.5,2-0.2,2.9c0.7,2.1-0.3,2.2-1.9,2.1
		c-3-0.1-6-0.1-8.9,0c-1.1,0-1.5-0.3-1.5-1.5c-0.1-4.8-0.1-4.8,4.7-4.8C47.1,12.6,47.8,12.6,48.4,12.6z"/>
	<path class="st9" d="M78.3,18.7c-1.7,0-3.5,0-5.2,0c-0.8,0-1.3-0.1-1-1.1c0.4-1.3,0.4-2.7,0-4c-0.3-1,0.2-1,0.9-1
		c3.5,0,7.1,0,10.6,0c0.8,0,1,0.4,1,1.1c0.4,5.1,0.4,5.1-4.7,5.1C79.5,18.7,78.9,18.7,78.3,18.7z"/>
	<path class="st9" d="M66.4,27.9c0,3,0,3-3.1,3s-3.1,0-3.1-3.1c0-2.9,0-2.9,2.9-2.9c0.1,0,0.1,0,0.2,0
		C66.4,24.8,66.4,24.8,66.4,27.9z"/>
	<path class="st9" d="M63.2,12.6c1.6,0,3.1,1.4,3.1,3.1c0,1.6-1.3,3-2.9,3.1s-3.1-1.3-3.2-3C60.2,14.1,61.6,12.6,63.2,12.6z"/>
	<path class="st2" d="M151.8,107.2c0-2.7,0-2.7,2.9-3.1c12-1.6,20.6-10.7,21.6-22.8c0.1-1.2,0.4-1.7,1.6-1.5c0.5,0.1,1,0,1.5,0
		c3.2,0,3.2,0,2.9,3.2c-1.4,14.4-13.6,26.3-27.8,27.2C151.8,110.3,151.8,110.3,151.8,107.2z"/>
	<path class="st2" d="M178.9,66.7c0.4-0.1,0.6,0.2,0.7,0.5c0.1,0.3,0.2,0.7,0.4,1c1.8,5,1.8,4.9-3.4,6c-0.9,0.2-1.2-0.1-1.4-0.9
		c-0.1-0.5-0.3-0.9-0.4-1.4c-0.2-1.1-1.5-2.6-0.7-3.2C175.4,67.7,177.3,67.3,178.9,66.7z"/>
	<path class="st8" d="M164,159.1c0,5.1-4,9.1-9.1,9.2c-5.1,0-9.3-4.1-9.2-9.2c0-5,4.1-9.1,9.2-9.1C159.9,150,164,154.1,164,159.1z"
		/>
	<path class="st8" d="M96.9,156.1c0,1.6-1.4,3.1-3,3.1s-3-1.3-3.1-2.9c-0.1-1.7,1.2-3.1,2.9-3.2C95.3,153,96.8,154.4,96.9,156.1z"/>
	<path class="st1" d="M26.6,67.7c-2.6,0-5.2,0-7.8,0c-1,0-1.2-0.3-1.3-1.3c-0.2-4.9-0.2-4.9,4.7-4.9c4.1,0,8.2,0,12.3,0
		c1.1,0,1.4,0.3,1.5,1.5c0.1,4.7,0.1,4.7-4.7,4.7C29.7,67.7,28.1,67.7,26.6,67.7z"/>
</g>
<g>
	<path class="st11" d="M120.5,104.3c4.2,0,8.3,0,12.5-0.1c4.1,0,6.5-2.4,6.6-6.4c0.1-1.9,0.1-3.9,0-5.8c-0.1-3.1-1.9-5.3-4.7-5.9
		c-1.4-0.3-1.4-0.9-1.4-2c0.2-7.8-1.9-14.8-6.5-21.1c-1.2-1.6-2.4-3.2-4-4.4c-1.1-0.9-1.2-1.6-0.5-2.9c5.7-11,12.8-21.1,20.4-30.8
		c2.6-3.3,5.4-6.5,8.1-9.8c0.5-0.6,0.8-1.1,1.5-0.2c12.7,15,24.7,30.5,32.3,48.8c3.8,9,5,18.2,1.7,27.7
		c-6.2,18.2-25.1,28.6-43.8,23.8c-2-0.5-2.7-0.1-3,1.7c0,0.2-0.2,0.4-0.3,0.7c-2-0.8-4-1.6-6-2.4c-0.8-0.7-0.6-1.7-0.7-2.6
		c-0.1-1.7-1.3-1.5-2.4-1.5c-1.1,0-2.3-0.2-2.4,1.5c0,1.1,0,2.2,0,3.3c0,7,0,14,0,21c0,0.8,0.1,1.6-0.2,2.4c-0.2,0.4-0.3,1-1,0.5
		c0.5-0.6,0.3-1.3,0.3-2c0-8.4,0-16.7,0-25.1c0-1.2-0.4-2.1-1.3-2.9C124,108.1,122.2,106.3,120.5,104.3z"/>
	<g>
		<path class="st12" d="M184.9,63.7c-7.7-18.3-19.6-33.8-32.3-48.8c-0.7-0.9-1.1-0.4-1.5,0.2c-0.8,1-1.6,1.9-2.4,2.9
			c12.1,14.4,23.3,29.3,30.7,46.8c3.8,9,5,18.2,1.7,27.7c-4,11.9-13.5,20.4-24.8,23.6c13.6-1.6,25.6-10.9,30.3-24.7
			C189.8,81.9,188.6,72.7,184.9,63.7z"/>
	</g>
	<path class="st13" d="M109.1,116.6c0,1.6,0,3.2,0,4.8c0,0.8-0.3,1.2-1.1,1.1c-0.1,0-0.2,0-0.4,0c-4.7,0.1-4.7,0.1-4.7-4.6
		c0-2.1,0-4.2,0-6.3c0-0.9,0.2-1.3,1.2-1.3c5-0.2,5-0.2,5,4.6C109.1,115.5,109.1,116.1,109.1,116.6z"/>
	<path class="st13" d="M127.4,185.9c-0.5-4.6-4.1-8.1-8.4-8.3c-4.7-0.3-8.7,2.7-9.7,7c-1,4.5,1.3,8.9,5.7,10.7
		c0.4,0.2,1,0.1,1.3,0.6c1.3,0,2.5,0,3.7,0c0.1-0.3,0.4-0.3,0.6-0.4C125,194.2,127.9,190,127.4,185.9z M118.3,189.7
		c-1.6,0.1-3.1-1.3-3.1-3s1.4-3.1,3-3.1c1.6,0,2.9,1.3,3,2.9C121.3,188.4,120,189.7,118.3,189.7z"/>
	<path class="st12" d="M74.6,79.8c0.8,0,1.6,0,2.4,0c1.1,0,1.5-0.3,1.5-1.5c0.1-9.1,0.1-18.3,0.1-27.5c0-1.2-0.4-1.6-1.6-1.6
		c-4.6,0.1-9.2,0-13.8,0s-9.2,0-13.8,0c-1.1,0-1.5,0.3-1.5,1.5c0,1,0,2,0,3c3.8,0,7.5,0,11.3,0c4.6,0,9.2,0,13.8,0
		c1.2,0,1.6,0.3,1.6,1.6"/>
	<path class="st12" d="M109.9,57.2c-5.2-2-10.6-1.9-16-1.8c-2.6,0-5.2,0.1-7.8,0c-1.1,0-1.5,0.3-1.4,1.4c0,0.9,0,1.9,0,2.8
		c2,0,3.9,0,5.9,0c5.4-0.1,10.8-0.2,16,1.8c10.2,4,17.1,13.8,17.6,24.5c0.7,0,1.4,0,2.1,0c0.8,0,1.2-0.2,1.2-1.1
		C128.3,72.9,121,61.5,109.9,57.2z"/>
	<g>
		<path class="st13" d="M154.4,18C154.4,18,154.4,18,154.4,18L154.4,18z"/>
		<path class="st13" d="M189.5,59.2C184.3,47,177,36.1,169.1,25.6c-5.4-7.1-11.1-14-17.2-20.5c-0.2,0.3-0.5,0.5-0.7,0.7
			c-13,14.2-24.7,29.3-33.7,46.4c-0.6,1.2-1,1.5-2.3,0.8c-4.5-2.4-9.2-3.7-14.3-3.7c-5,0-9.9,0-14.9,0c-0.9,0-1.3-0.2-1.5-1.2
			c-0.6-2.5-2.1-4.2-4.7-4.7c-1.1-0.2-1.4-0.7-1.3-1.7c0.1-1.5,0.1-3,0-4.5c-0.1-2.6-1.1-5-3.6-5.5c-2.8-0.7-2.6-2.3-2.5-4.3
			c0-0.4,0.1-0.7,0-1.1c-0.2-1.2,0.2-1.5,1.4-1.5c3.5,0.1,7.1,0,10.6,0c3.7,0,6.2-2.5,6.5-6c0.1-2,0.1-4,0-6
			c-0.2-3.8-2.6-6.2-6.3-6.2c-14.2,0-28.3,0-42.5,0c-3.6,0-6.1,2.6-6.2,6.1c0,2,0,4,0,6c0,3.6,2.6,6.2,6.2,6.2c2.5,0,5,0,7.5,0
			c1.5,0.1,3.5-0.5,4.3,0.3c1,0.8,0.1,2.9,0.3,4.4c0.1,0.9-0.2,1.4-1.2,1.6c-3.1,0.6-4.8,2.8-4.9,5.9c-0.1,1.6-0.1,3.2,0,4.7
			c0.1,1-0.2,1.4-1.2,1.6c-2.4,0.5-4.1,1.9-4.6,4.3c-0.4,1.5-1,1.7-2.4,1.7c-11-0.1-22,0-33-0.1c-1.3,0-1.6,0.3-1.6,1.6
			c0.1,9,0.1,18,0,27c0,1.5,0.3,1.9,1.9,1.9c11,0,22,0,33,0c0.8,0,1.6-0.3,1.9,1c0.9,3.6,3,5.1,6.6,5.1c9.8,0,19.6,0,29.4,0
			c3.5,0,5.8-1.7,6.5-5c0.2-1.1,0.7-1.1,1.6-1.1c4,0,8.1,0,12.1,0s4.7,0.8,4.7,4.8c0,1.1-0.4,1.3-1.3,1.5c-3,0.6-4.7,2.9-4.8,6
			c0,1.8,0,3.6,0,5.4c0,4.3,2.4,6.7,6.7,6.7c5.6,0.1,11.3,0.1,16.9,0.1c0.5,0.2,1,0.3,1.6,0.5c4,0,8.1,0.1,12.1,0
			c2.5-0.1,4.8-2,5.6-4.5c0.8-2.7,0.7-5.5,0.4-8.3c-0.2-2.8-1.6-4.9-4.2-5.9c-1.6-0.5-2-1.4-2-3c0.2-4.8-0.8-9.3-2.7-13.6
			c-1.8-4.1-4.3-7.7-7.5-10.8c-1-1-1.3-2-0.5-3.3c1-1.7,1.9-3.5,2.9-5.2c6.7-11.5,14.6-22,23.1-32.2c3-3.6,2.6-3.1,5.1-0.1
			c0,0,0,0,0,0c0,0,0,0,0.1,0.1c11,13.1,21.2,26.8,28.4,42.4c3.3,7.2,5.8,14.6,4.9,22.8c-1.2,11.5-6.7,20.5-16.2,26.8
			c-8.7,5.9-18.5,7.4-28.8,4.8c-2.6-0.7-3.3,0-3.3,2.8c-0.1,0.3-0.1,0.6-0.2,0.9c-1,1.7-0.3,2.2,1.4,2.6c5.6,1.4,11.3,1.7,17,1
			c20-2.5,36.3-20.5,36.8-40.6C194.7,73.6,192.6,66.4,189.5,59.2z M41.8,72.2c0,1.1-0.3,1.5-1.4,1.5c-4.6-0.1-9.2-0.1-13.9-0.1
			c-4.6,0-9.2,0-13.8,0c-1.1,0-1.5-0.3-1.5-1.5c0.1-5.1,0.1-10.3,0-15.4c0-1.2,0.3-1.4,1.5-1.4c9.2,0,18.5,0,27.7,0
			c1.2,0,1.4,0.3,1.4,1.5C41.7,61.9,41.7,67.1,41.8,72.2z M78.7,78.4c0,1.2-0.4,1.5-1.5,1.5c-9.2,0-18.5,0-27.7,0
			c-1.1,0-1.4-0.3-1.4-1.4c0-9.2,0-18.5,0-27.7c0-1.2,0.3-1.5,1.5-1.5c4.5,0,9.1,0,13.7,0c4.6,0,9.2,0,13.8,0c1.2,0,1.6,0.3,1.6,1.6
			C78.7,60.1,78.7,69.4,78.7,78.4z M127.5,84.7c-0.1,0.9-0.4,1.1-1.2,1.1c-5.3,0-10.7,0-16,0c-0.9,0-1.2-0.3-1.1-1.2
			c0.1-1.5,0-3-0.4-4.4c-1.1-3.9-4.6-6.6-8.9-6.6c-4.6-0.1-9.2-0.1-13.8,0c-1.2,0-1.4-0.3-1.4-1.5c0.1-5.2,0.1-10.3,0-15.5
			c0-1.2,0.3-1.5,1.4-1.4c2.6,0.2,5.2,0.1,7.8,0.1c5.4-0.1,10.8-0.2,16,1.8C121,61.5,128.3,72.9,127.5,84.7z"/>
	</g>
	<path class="st12" d="M118,98.1c-4.5,0-9.1,0-13.6,0c-1.1,0-1.5-0.3-1.5-1.4c-0.1-4.8-0.1-4.8,4.7-4.8c8.1,0,16.1,0,24.2,0
		c1.4,0,1.8,0.3,1.8,1.7c-0.1,4.5,0,4.5-4.4,4.5C125.4,98.1,121.7,98.1,118,98.1z"/>
	<path class="st12" d="M63.3,37c2.5,0,5.1,0,7.6,0c1,0,1.5,0.1,1.5,1.4c0.1,4.7,0.1,4.7-4.6,4.7c-4,0-8.1-0.1-12.1,0
		c-1.4,0-1.7-0.4-1.7-1.8c0.1-4.3,0-4.3,4.4-4.3C60.1,37,61.7,37,63.3,37z"/>
	<path class="st12" d="M48.4,12.6c1.7,0,3.3,0,5,0c0.9,0,1.3,0.3,1,1.2c-0.3,1-0.5,2-0.2,2.9c0.7,2.1-0.3,2.2-1.9,2.1
		c-3-0.1-6-0.1-8.9,0c-1.1,0-1.5-0.3-1.5-1.5c-0.1-4.8-0.1-4.8,4.7-4.8C47.1,12.6,47.8,12.6,48.4,12.6z"/>
	<path class="st12" d="M78.3,18.7c-1.7,0-3.5,0-5.2,0c-0.8,0-1.3-0.1-1-1.1c0.4-1.3,0.4-2.7,0-4c-0.3-1,0.2-1,0.9-1
		c3.5,0,7.1,0,10.6,0c0.8,0,1,0.4,1,1.1c0.4,5.1,0.4,5.1-4.7,5.1C79.5,18.7,78.9,18.7,78.3,18.7z"/>
	<path class="st12" d="M66.4,27.9c0,3,0,3-3.1,3c-3.1,0-3.1,0-3.1-3.1c0-2.9,0-2.9,2.9-2.9c0.1,0,0.1,0,0.2,0
		C66.4,24.8,66.4,24.8,66.4,27.9z"/>
	<path class="st12" d="M63.2,12.6c1.6,0,3.1,1.4,3.1,3.1c0,1.6-1.3,3-2.9,3.1c-1.6,0.1-3.1-1.3-3.2-3C60.2,14.1,61.6,12.6,63.2,12.6
		z"/>
	<path class="st13" d="M151.8,107.2c0-2.7,0-2.7,2.9-3.1c12-1.6,20.6-10.7,21.6-22.8c0.1-1.2,0.4-1.7,1.6-1.5c0.5,0.1,1,0,1.5,0
		c3.2,0,3.2,0,2.9,3.2c-1.4,14.4-13.6,26.3-27.8,27.2C151.8,110.3,151.8,110.3,151.8,107.2z"/>
	<path class="st13" d="M178.9,66.6c0.4-0.1,0.6,0.2,0.7,0.5c0.1,0.3,0.2,0.7,0.4,1c1.8,5,1.8,4.9-3.4,6c-0.9,0.2-1.2-0.1-1.4-0.9
		c-0.1-0.5-0.3-0.9-0.4-1.4c-0.2-1.1-1.5-2.6-0.7-3.2C175.4,67.6,177.3,67.3,178.9,66.6z"/>
	<path class="st13" d="M194.8,148.4c0-0.9-0.2-1.3-1.2-1.3c-3.2-0.2-6-1.5-8.4-3.6c-1.5-1.3-3-2.7-4.6-4c-7.9-6.2-18.1-6.2-25.9,0.1
		c-2,1.6-3.9,3.5-6,5c-4.3,3.1-9,3.3-13.8,1.4c-0.8-0.4-1.3-0.8-1.3-1.8c0.1-9.7,0.1-19.3,0.1-28.9c-0.1-0.2-0.1-0.3-0.1-0.4
		c-0.1-4.6-0.1-4.5-4.7-4.5c-1.3,0-1.4,0.5-1.4,1.5c0,4.5,0,9.1,0,13.6c0,4.4,0.1,8.8,0,13.2c0,0.3,0.7,1.3-0.6,1.1
		c-1.3-0.9-2.6-2-4.2-2.4c-1.4-0.7-1.6-1.5-1.6-2.9c0-6.6,0-13.1,0-19.6c0-4.4,0-4.4-4.5-4.4c-1.2,0-1.6,0.3-1.6,1.6
		c0,7.1,0,14.3,0,21.4c0.1,1,0,1.6-1.3,1.5c-5.1-0.3-9.6,1.4-13.5,4.7c-1.7,1.5-3.4,3.1-5.2,4.5c-5.3,4.1-12.2,4-17.5-0.1
		c-1.7-1.3-3.2-2.8-4.9-4.2c-7.9-6.6-18.3-6.6-26.3-0.2c-1.8,1.5-3.6,3.2-5.5,4.7c-5,3.8-11.9,3.8-16.9,0c-1.8-1.3-3.4-2.8-5.1-4.3
		c-3.2-2.8-6.9-4.5-11.2-5c-2.3-0.3-2.3-0.3-2.3,1.9c0,0.9,0.1,1.9,0,2.8c-0.1,1,0.3,1.4,1.3,1.4c3.2,0,5.8,1.5,8.2,3.5
		c1.3,1.1,2.5,2.2,3.8,3.3c8.4,7.2,19.2,7.1,27.6-0.1c1.6-1.4,3.1-2.8,4.8-4.1c3.7-2.8,7.8-3.2,12.2-2.2c3.5,0.8,5.9,3.3,8.4,5.6
		c3.5,3.2,7.5,5.6,12.3,6c1.2,0.1,1.2,0.4,1,1.4c-1,4.8,1.9,9.4,6.7,10.6s9.6-1.5,11-6.2c1.2-4.1-0.2-7.5-3.4-10.2
		c2-1.7,3.9-3.4,5.9-5c2.5-2.1,5.5-2.8,8.7-2.8c1.1,0,1.7,0.2,1.6,1.5c-0.1,2,0,4.1,0,6.1c0,4.6,0,4.5,4.6,4.5
		c1.2,0,1.5-0.2,1.5-1.4c-0.1-2.7,0-5.4,0-8.6c1.9,1.7,3.5,3.1,5.1,4.4c0.8,0.7,1.1,1.4,1.1,2.4c0,5.8,0,11.5,0,17.3
		c0,4.3,0,4.2,4.3,4.3c1.6,0,1.8-0.5,1.8-1.9c0-5.8,0-11.6,0-17.6c2.5,0.7,4.9,1.2,7.3,1.1c-2.5,10.3,1.1,18,9.5,20.7
		c7.6,2.4,16-1.6,18.8-9.1c1.4-3.7,1.4-7.4-0.1-11.1c-1.9-4.9-5.6-7.8-10.6-9.3c4.8-4.4,12.4-4.6,17.7-0.5c1.9,1.4,3.6,3.1,5.4,4.6
		c3,2.5,6.3,4.1,10.2,4.6c2.8,0.4,2.8,0.4,2.8-2.4C194.8,149.9,194.7,149.1,194.8,148.4z M93.9,159.2c-1.6,0-3-1.3-3.1-2.9
		c-0.1-1.7,1.2-3.1,2.9-3.2c1.6-0.1,3.1,1.3,3.2,3C96.9,157.7,95.5,159.2,93.9,159.2z M164,159.1c0,5.1-4,9.1-9.1,9.2
		c-5.1,0-9.3-4.1-9.2-9.2c0-5,4.1-9.1,9.2-9.1C159.9,150,164,154.1,164,159.1z"/>
	<path class="st12" d="M26.6,67.6c-2.6,0-5.2,0-7.8,0c-1,0-1.2-0.3-1.3-1.3c-0.2-4.9-0.2-4.9,4.7-4.9c4.1,0,8.2,0,12.3,0
		c1.1,0,1.4,0.3,1.5,1.5c0.1,4.7,0.1,4.7-4.7,4.7C29.7,67.6,28.1,67.6,26.6,67.6z"/>
</g>
</svg>
