<?xml version="1.0" encoding="utf-8"?>
<!-- Generator: Adobe Illustrator 28.0.0, SVG Export Plug-In . SVG Version: 6.00 Build 0)  -->
<svg version="1.1" id="圖層_1" xmlns="http://www.w3.org/2000/svg" xmlns:xlink="http://www.w3.org/1999/xlink" x="0px" y="0px"
	 viewBox="0 0 200 200" style="enable-background:new 0 0 200 200;" xml:space="preserve">
<style type="text/css">
	.st0{display:none;}
	.st1{display:inline;fill:#E5D69B;}
	.st2{display:inline;}
	.st3{fill:#474747;}
	.st4{fill:none;stroke:#474747;stroke-width:7;stroke-miterlimit:10;}
	.st5{fill:#8BCFDB;}
	.st6{fill:#2A888D;}
	.st7{fill:#46A7B1;}
	.st8{fill:#C4D593;}
	.st9{fill:#FFFFFF;}
</style>
<g class="st0">
	<path class="st1" d="M197.2,144.2v-0.8c0-0.9-0.2-1.8-0.7-2.6s-1.1-1.4-1.7-1.8c0.1-0.1,0.1-0.3,0.2-0.4c0.4-1.2,0.3-2.5-0.2-3.6
		c-0.4-0.9-0.8-1.8-1.2-2.8s-1-1.8-1.9-2.4c-1.1-0.7-2.2-1.2-3.5-1.4c0-0.1,0-0.1,0-0.2c0.2-1.4-0.2-2.8-1.1-3.9
		c-0.9-1.1-1.9-1.8-2.6-2.2c-0.1-0.1-0.3-0.2-0.4-0.3c-1-1.3-2.4-2-4-2c-0.5,0-1,0.1-1.5,0.2c-3,0.9-4.3,3.2-5,4.4
		c-0.1,0.2-0.2,0.4-0.4,0.6c-0.3,0.4-0.5,0.7-0.8,1.1c-1.4,1.9-2.2,3-3.4,3.5c-3,1.2-5.2,4-5.8,7.2c-0.6,3.3-2.7,6.1-5.2,9.3
		l-0.5,0.6c-0.5,0.6-0.8,0.7-0.9,0.7c-0.1,0-0.3-0.1-0.8-0.4c-4.1-2.8-7.2-5-10-7.2c0,0-0.6-0.5-0.4-0.8c2.2-3.8,4.2-6.8,7-8.6
		c3.5-2.2,5.7-5.5,6.1-9.3c0.1-0.7,0.3-1.3,0.8-1.9l0.1-0.1c0.8-1.1,1.7-2.3,2.5-3.6c0,0,0-0.1,0.1-0.1c1.6-2.5,3-3.8,4.9-4.5
		c3-0.9,4.8-3.3,4.8-6.3c0-1.8-0.9-3.4-2.4-4.3c-0.1-0.1-0.4-0.4-0.6-0.6c-0.3-0.3-0.5-0.6-0.8-0.9c-2.2-2.3-4.5-4.6-7.7-6.3
		c-0.7-0.4-1.5-0.6-2.3-0.6c-0.6,0-1.3,0.1-1.9,0.4c-1.4,0.5-2.4,1.7-2.9,3.1c-0.9,2.6,0,4.7,0.7,5.8c-0.9,0.7-1.8,1.5-2.7,2.2
		c-2.1,1.8-4.3,3.6-6.6,5.3c-0.9-0.7-1.8-1.6-2.7-2.5c-0.7-0.7-1.5-1.5-2.3-2.2c-0.7-0.7-1.5-1.3-2.2-2c-2-1.8-3.9-3.5-5.7-5.3
		c1-0.8,2-1.6,2.9-2.4c1.4-1.1,2.9-2.3,4.3-3.6c3.1-2.1,3.1-4.9,2.8-6.3c-0.1-0.4-0.1-0.7-0.2-1.1c-0.1-0.3-0.1-0.6-0.2-1
		c-0.2-1.5-1.1-2.9-2.4-3.7c-2.5-1.5-5.1-2.2-7.4-2.8c-0.9-0.2-1.7-0.5-2.5-0.7c-0.6-0.2-1.3-0.3-2-0.3c-1.3,0-2.3,0.4-2.9,0.7h-0.1
		c-0.6,0.2-1.2,0.3-1.8,0.3c-0.7,0-1.4-0.1-2.1-0.3c-4.3-1.3-9.4-2.9-14.3-4.6c-0.9-0.3-1-0.5-0.8-1.5v-0.1c0.3-1.4,0.8-2.9,1.4-4.4
		c0.2-0.5,0.3-1,0.5-1.5c0.9-2.6,1.8-5.6-0.1-8.3c-1.9-2.6-5.1-2.6-6.6-2.6c-0.4,0-0.8,0-1.4,0c-1.5,0.1-4.6,0.2-6.2,3.1
		c-1.6,2.9-0.1,5.6,0.7,6.9c0.4,0.7,0.4,1,0.4,1.1s-0.2,0.4-1,1c-1.4,1-2.8,2-4.2,2.9c-1.4,1-2.8,2-4.2,3c-1,0.7-1.6,0.9-1.8,0.9
		c-0.2-0.1-0.7-0.4-1.5-1.6c-1-1.4-2-2.9-3-4.3c-1-1.5-2.1-3.1-3.2-4.6c0-0.1-0.1-0.1-0.1-0.2l-0.1-0.1c-1.4-2.2-3.3-3.3-5.6-3.3
		c-0.2,0-0.4,0-0.6,0c-0.5,0-1.1,0.2-1.6,0.4c-1.5,0.7-2.8,1.7-4.1,3.2c-1.3,1.4-1.6,3.5-0.8,5.2c0.7,1.6,2.1,2.7,3.8,3
		c-0.4,3-2.3,15.4-2.7,18.7h-9.1c-2.2,0-4.1,1.4-4.7,3.4s0,4.3,1.8,5.6c0.9,0.7,1.7,1.4,2.5,2.2c-2.8,4.2-7.9,6.7-12.9,6.5
		c0.9,1.3,1.6,2.6,2.2,4c0,0,0,0-0.1-0.1l-0.1-0.1c-1.4-1.6-2.2-3.3-2.4-5.2c0-0.2-0.1-0.5-0.1-0.8c-0.8-3.5-3.6-4.3-4.7-4.5
		c-0.3,0-0.6-0.1-0.8-0.1c-1.1,0-2.1,0.3-3,1c-1.1,0.8-1.8,2.1-1.9,3.5c0,0.2-0.2,0.7-0.4,1c-0.6,1.6-1.7,4.3-0.6,7.3
		c0.6,1.8,0.6,3.7,0.1,5.6c-0.7,2.1-1.3,4.3-1.9,6.4s-1.2,4.2-1.9,6.3c-0.6,2-0.9,2-1.9,2c-0.4,0-0.9,0-1.4-0.1
		c-0.2,0-0.5-0.1-0.7-0.1c-0.1,0-0.3,0-0.4,0c-0.6-0.5-1.2-0.9-2-1.1c-1-0.3-2-0.5-2.9-0.8c-1.1-0.3-2.2-0.6-3.3-0.9
		c-0.4-0.1-0.8-0.2-1.2-0.2c-2.1,0-4,1.3-4.7,3.4c-0.3,0.8-0.6,1.6-1,2.5c-0.7,1.8-1.5,3.8-2,6c-0.4,2,0.4,4.1,2.1,5.2
		c0.8,0.6,1.8,0.8,2.8,0.8s2-0.3,2.8-0.9c1.3-0.9,2.7-1.8,4-2.8c-1,1.4-3.1,2.7-3.9,3.3c-2.8,2.1-5.6,4.6-7.1,7.8
		c-1.6,3.5-1.6,7.3,0.4,10.6c1.9,3.3,5.1,5.4,8.7,6.6c3.7,1.2,7.8,1.6,11.6,1.5c2.9-0.1,5.9-0.5,8.6-1.5c0,0.6,0.2,1.3,0.5,1.8
		c0.8,1.8,2.6,2.9,4.5,2.9c0.4,0,0.7,0,1.1-0.1c0.6-0.1,1.2-0.2,1.8-0.2c1.5,0,3.2,0.3,5,0.7c0.7,0.1,1.3,0.3,2,0.4
		c0.3,0,0.6,0.1,0.8,0.1c1.2,0,2.3-0.4,3.2-1.1c0.3,0.2,0.6,0.5,1,0.6c0.7,0.4,1.5,0.5,2.2,0.5c0.2,0,0.4,0,0.6,0
		c0.9-0.1,1.9-0.2,2.9-0.5c0.4-0.1,0.9-0.1,1.4-0.2c1.8-0.2,4.4-0.6,6.7-2.3c1.6-1.2,2.3-3.2,1.9-5.1h5.5c1.1,0.4,2.3,0.6,3.6,0.6h3
		c-0.3,0.9-0.2,1.9,0.1,2.9c0.6,1.8,2.2,3.1,4,3.4h0.1c0.4,0.1,0.9,0.1,1.1,0.2c0.2,0.1,0.5,0.2,0.7,0.2c3.3,0.7,6.5,1,9.7,1
		c6.5,0,12.9-1.4,19.1-4.3c0,0,0.2-0.1,0.3-0.1c1.8,0,3.5-1,4.3-2.6c1.1-2.1,0.9-4,0.8-5.1c0-0.1,0-0.2,0-0.3
		c1.2-4.1,2.5-8,3.7-11.7c0.3-0.7,0.5-0.7,0.7-0.7s0.4,0,0.8,0.2c0.1,0,0.1,0,0.2,0.1c3.9,1.2,8.6,2.6,13.4,4.2
		c1.8,0.6,3,1.4,3.8,2.6c1.7,2.3,3.7,3.2,5.4,3.8c1.3,0.4,2.5,0.8,3.7,1.2c-0.1,0.4-0.3,0.8-0.4,1.3c0,0.2-0.1,0.4-0.2,0.5
		c-0.4,1.2-1.2,3.4-0.3,6.1c0.6,1.6,1.9,2.8,3.6,3.2c0.5,0.1,1.1,0.3,1.6,0.4c2.5,0.6,5.3,1.3,8.4,1.3c0.7,0,1.4,0,2.1-0.1
		c0.1,0,0.1,0,0.2,0c0.3,0,0.7-0.1,1.2-0.1c1.8-0.1,4.5-0.2,7-2.3c1.2-0.9,1.8-2.4,1.8-3.9c0-3-1.9-4.7-2.7-5.5
		c-0.1-0.1-0.1-0.1-0.2-0.2l-0.1-0.1c-1.6-1.5-3.2-3-4.9-4.5c-1.3-1.2-2.5-2.3-3.8-3.5c4-3.4,8.2-7,13-10.8c1.6,2.6,3.3,5.3,4.9,7.9
		c0.1,0.1,0.1,0.2,0.2,0.3l0.1,0.2c0.5,0.8,2,3.4,5.4,3.7c0.1,0,0.3,0,0.5,0c0.3,0,0.7,0,1-0.1c1.1-0.2,3.7-1.1,4.5-4.5
		C197.2,150.3,197.2,147,197.2,144.2z M79,85h0.6c-0.3,0.3-0.7,0.7-1,1.1c-0.1-0.3-0.2-0.7-0.2-1C78.5,85,78.7,85,79,85z
		 M57.4,102.8c0.3,0.4,0.6,0.7,0.9,1h-2.1C56.7,103.5,57.1,103.1,57.4,102.8z M12.8,165.7c0.4,0.1,0.9,0.1,1.3,0.2
		c1,0.2,2,0.7,2.9,1.3c-0.9-0.2-1.8-0.4-2.7-0.8C13.8,166.3,13.3,166,12.8,165.7z"/>
	<g class="st2">
		<path class="st3" d="M27.1,83.1c0-3.2,0-3.2,3.2-3.2s3.2,0,3.2,3.2s0,3.2-3.2,3.2S27.1,86.3,27.1,83.1z"/>
		<path class="st3" d="M166.6,92.8c0,3,0,3-2.9,3c-3.4,0-3.4,0-3.4-3.3c0-3,0-3,2.9-3C166.6,89.5,166.6,89.5,166.6,92.8z"/>
		<path class="st3" d="M5,95.6c0-3,0-3,2.9-3c3.4,0,3.4,0,3.4,3.3c0,3,0,3-2.9,3C5,99,5,99,5,95.6z"/>
		<path class="st3" d="M188.7,133.8c-0.5,0-1.1,0.1-1.6,0c-1.5-0.1-3.9,0.7-4.5-0.4c-0.8-1.4-0.2-3.6-0.3-5.4c0-0.6,0.4-0.5,0.8-0.6
			c1.8,0.3,4.5-0.8,5.2,0.4C189.4,129.3,188.7,131.7,188.7,133.8z"/>
		<path class="st3" d="M192,143.4c-3.2-0.1-3.2-0.1-3.2-3.3c0-0.6,0.1-1.3,0-1.9c-0.1-1,0.4-1.2,1.2-1.2c0.2,0,0.4,0,0.6,0.1
			c1.5,0.1,3.7-0.7,4.3,0.3c0.7,1.4,0.2,3.4,0.3,5.2c0,0.8-0.4,0.8-1,0.8C193.4,143.3,192.7,143.4,192,143.4z"/>
		<path class="st3" d="M49.3,171.9c0.1-3.2,0.1-3.2,3.4-3.2c2.9,0,2.9,0,3,3.2c-0.1,3.2-0.1,3.2-3.4,3.2
			C49.4,175,49.4,175,49.3,171.9z"/>
		<path class="st3" d="M11.3,174.9c0,3.3,0,3.3-3.2,3.3c-3.1,0-3.1,0-3.1-3c0-3.3,0-3.3,3.2-3.3C11.3,171.9,11.3,171.9,11.3,174.9z"
			/>
		<g>
			<path class="st4" d="M81.8,144.4c0-1.1-0.4-1.9-1.2-2.6c-1.8-1.8-3.5-3.6-5.3-5.4c-1.1-1-0.4-1.6,0.3-2.4c0.8-0.9,1.3-0.6,2,0.1
				c6.7,6.9,13.3,13.7,20,20.6c0.8,0.8,1,1.2,0,2.1c-5.4,5.2-10.8,10.5-16.2,15.8c-0.7,0.7-1.1,0.8-1.8,0
				c-6.7-6.9-13.4-13.8-20.2-20.7c-1-1-0.6-1.6,0.2-2.4c0.8-0.9,1.3-0.7,2,0.1c1.7,1.8,3.5,3.6,5.3,5.4c1.8,1.8,3.4,1.8,5.2,0.1
				c2.8-2.7,5.6-5.4,8.4-8.1C81.3,146.2,81.8,145.4,81.8,144.4z"/>
			<path class="st5" d="M81.8,144.4c0-1.1-0.4-1.9-1.2-2.6c-1.8-1.8-3.5-3.6-5.3-5.4c-1.1-1-0.4-1.6,0.3-2.4c0.8-0.9,1.3-0.6,2,0.1
				c6.7,6.9,13.3,13.7,20,20.6c0.8,0.8,1,1.2,0,2.1c-5.4,5.2-10.8,10.5-16.2,15.8c-0.7,0.7-1.1,0.8-1.8,0
				c-6.7-6.9-13.4-13.8-20.2-20.7c-1-1-0.6-1.6,0.2-2.4c0.8-0.9,1.3-0.7,2,0.1c1.7,1.8,3.5,3.6,5.3,5.4c1.8,1.8,3.4,1.8,5.2,0.1
				c2.8-2.7,5.6-5.4,8.4-8.1C81.3,146.2,81.8,145.4,81.8,144.4z"/>
		</g>
		<g>
			<path class="st4" d="M122.7,125.5c1.1,0,2-0.6,2.8-1.4c1.7-1.8,3.4-3.5,5.1-5.3c0.9-1,1.5-0.8,2.4,0c1,0.9,0.7,1.4-0.1,2.2
				c-6.7,6.8-13.3,13.6-19.9,20.4c-0.9,0.9-1.3,1-2.3,0.1c-5.3-5.3-10.6-10.4-16-15.6c-0.8-0.8-0.9-1.2-0.1-2
				c6.7-6.8,13.4-13.7,20-20.6c0.9-1,1.5-0.8,2.4,0c1,0.9,0.8,1.4,0,2.2c-1.8,1.7-3.5,3.5-5.3,5.4c-1.6,1.7-1.6,3.4,0,5
				c2.9,2.8,5.8,5.6,8.7,8.4C121.1,125,121.8,125.3,122.7,125.5z"/>
			<path class="st6" d="M122.7,125.5c1.1,0,2-0.6,2.8-1.4c1.7-1.8,3.4-3.5,5.1-5.3c0.9-1,1.5-0.8,2.4,0c1,0.9,0.7,1.4-0.1,2.2
				c-6.7,6.8-13.3,13.6-19.9,20.4c-0.9,0.9-1.3,1-2.3,0.1c-5.3-5.3-10.6-10.4-16-15.6c-0.8-0.8-0.9-1.2-0.1-2
				c6.7-6.8,13.4-13.7,20-20.6c0.9-1,1.5-0.8,2.4,0c1,0.9,0.8,1.4,0,2.2c-1.8,1.7-3.5,3.5-5.3,5.4c-1.6,1.7-1.6,3.4,0,5
				c2.9,2.8,5.8,5.6,8.7,8.4C121.1,125,121.8,125.3,122.7,125.5z"/>
		</g>
		<g>
			<path class="st4" d="M77.9,102.1c0-4.7,0-9.4,0-14.1c0-1.4,0.5-1.7,1.9-1.8c1.5-0.1,1.4,0.7,1.3,1.7c0,2.4,0,4.9,0,7.3
				c0,2.5,1.2,3.7,3.6,3.7c4,0,7.9,0,11.9,0c2.3,0,3.5-1.2,3.5-3.6c0-2.5,0.1-5,0-7.5c-0.1-1.4,0.7-1.5,1.8-1.6
				c1.4-0.1,1.4,0.6,1.4,1.6c0,6.9,0,13.9,0,20.8c0,0.9-0.3,1.6-0.9,2.2c-2,2-4,4-5.9,6.1c-0.6,0.7-1.3,1-2.2,1
				c-4.9,0-9.8-0.1-14.6,0c-1.3,0-1.7-0.4-1.7-1.7C77.9,111.6,77.9,106.8,77.9,102.1z"/>
			<path class="st5" d="M77.9,102.1c0-4.7,0-9.4,0-14.1c0-1.4,0.5-1.7,1.9-1.8c1.5-0.1,1.4,0.7,1.3,1.7c0,2.4,0,4.9,0,7.3
				c0,2.5,1.2,3.7,3.6,3.7c4,0,7.9,0,11.9,0c2.3,0,3.5-1.2,3.5-3.6c0-2.5,0.1-5,0-7.5c-0.1-1.4,0.7-1.5,1.8-1.6
				c1.4-0.1,1.4,0.6,1.4,1.6c0,6.9,0,13.9,0,20.8c0,0.9-0.3,1.6-0.9,2.2c-2,2-4,4-5.9,6.1c-0.6,0.7-1.3,1-2.2,1
				c-4.9,0-9.8-0.1-14.6,0c-1.3,0-1.7-0.4-1.7-1.7C77.9,111.6,77.9,106.8,77.9,102.1z"/>
		</g>
		<g>
			<path class="st4" d="M73.1,122.2c-0.2,0.7-0.8,1.2-1.3,1.4c-3.1,1-4.9,3.7-7,5.9c-0.8,0.9-1.1,0.7-1.7,0c-2.3-2.7-4.8-5.1-6-8.7
				c-1.1-3.3-4-4.9-6.9-6.7c-4.2-2.6-8-5.8-8.4-11.4c-0.1-1.7-1.1-2.8-2.2-3.8c-0.7-0.7-0.7-1.1,0.1-1.7c0.4-0.3,0.7-0.6,1-0.9
				c0.9-0.8,1.7-2,2.7-2.2s1.5,1.4,2.4,2.1c0.7,0.7,1.6,0.8,2.5,0.9c2.1,0.3,3.7,1.2,5.1,2.8c2.3,2.6,4.8,5.1,6,8.7
				c1,3.1,3.5,5,6.5,6.3c3.2,1.4,5,4.2,7,6.8C72.9,121.9,73,122.1,73.1,122.2z"/>
			<path class="st7" d="M73.1,122.2c-0.2,0.7-0.8,1.2-1.3,1.4c-3.1,1-4.9,3.7-7,5.9c-0.8,0.9-1.1,0.7-1.7,0c-2.3-2.7-4.8-5.1-6-8.7
				c-1.1-3.3-4-4.9-6.9-6.7c-4.2-2.6-8-5.8-8.4-11.4c-0.1-1.7-1.1-2.8-2.2-3.8c-0.7-0.7-0.7-1.1,0.1-1.7c0.4-0.3,0.7-0.6,1-0.9
				c0.9-0.8,1.7-2,2.7-2.2s1.5,1.4,2.4,2.1c0.7,0.7,1.6,0.8,2.5,0.9c2.1,0.3,3.7,1.2,5.1,2.8c2.3,2.6,4.8,5.1,6,8.7
				c1,3.1,3.5,5,6.5,6.3c3.2,1.4,5,4.2,7,6.8C72.9,121.9,73,122.1,73.1,122.2z"/>
		</g>
		<g>
			<path class="st4" d="M12.6,156.6c1.3-3.2-1.6-5.2-3.1-7.7c-0.7-1.1-0.8-1.7,0.4-2.5c4.1-2.7,4.1-2.8,6.8,1.3c1,1.7,2.3,2.7,4.4,3
				c2.2,0.3,3.3,2.2,4.5,4c0.4,0.7,0,0.9-0.5,1.3c-1.3,0.8-2.5,1.7-3.8,2.6c-2.3,1.6-2.8,3.4-1.6,5.2c1.1,1.7,3.1,1.8,5.3,0.3
				c1.1-0.8,2.4-1.6,3.6-2.5c0.8-0.6,1.3-0.7,2,0.2c3.2,4.3,3.2,4.3-1.1,7.2c-1.9,1.3-3.8,2.6-5.6,3.9c-0.8,0.6-1.3,0.7-1.9-0.2
				c-2.7-4.1-5.5-8-8.4-12.1C12.9,159.5,12.5,158.3,12.6,156.6z"/>
			<path class="st7" d="M12.6,156.6c1.3-3.2-1.6-5.2-3.1-7.7c-0.7-1.1-0.8-1.7,0.4-2.5c4.1-2.7,4.1-2.8,6.8,1.3c1,1.7,2.3,2.7,4.4,3
				c2.2,0.3,3.3,2.2,4.5,4c0.4,0.7,0,0.9-0.5,1.3c-1.3,0.8-2.5,1.7-3.8,2.6c-2.3,1.6-2.8,3.4-1.6,5.2c1.1,1.7,3.1,1.8,5.3,0.3
				c1.1-0.8,2.4-1.6,3.6-2.5c0.8-0.6,1.3-0.7,2,0.2c3.2,4.3,3.2,4.3-1.1,7.2c-1.9,1.3-3.8,2.6-5.6,3.9c-0.8,0.6-1.3,0.7-1.9-0.2
				c-2.7-4.1-5.5-8-8.4-12.1C12.9,159.5,12.5,158.3,12.6,156.6z"/>
		</g>
		<g>
			<path class="st4" d="M17.5,118.8c0.2,1.4,1,2.7,2.7,3.1c1.8,0.6,3.7,1.2,5.5,1.7c1,0.2,1.1,0.6,0.9,1.6c-1.3,5.7-1.3,5.7-6.8,4.1
				c-2.3-0.7-4.8-1.4-7.1-2.1c-0.9-0.2-1.2-0.6-0.9-1.7c1.6-5,3-10.1,4.6-15.2c0.4-1.4,1.2-2.8,2.6-3.5c2.1-1,3-2.8,3.6-4.9
				c1.3-4.8,1.3-4.7,6.1-3.3c1.8,0.4,2,1.2,1.3,2.8c-0.6,1.2-0.8,2.7-1.2,4c-0.4,1.3-0.4,2.6,0.3,3.8c0.6,1,0.9,2,0.9,3.1
				c0.1,4.2-0.9,4.9-4.7,3.8c-1.2-0.3-2.3-0.8-3.6-1C19.4,114.7,17.5,116.3,17.5,118.8z"/>
			<path class="st5" d="M17.5,118.8c0.2,1.4,1,2.7,2.7,3.1c1.8,0.6,3.7,1.2,5.5,1.7c1,0.2,1.1,0.6,0.9,1.6c-1.3,5.7-1.3,5.7-6.8,4.1
				c-2.3-0.7-4.8-1.4-7.1-2.1c-0.9-0.2-1.2-0.6-0.9-1.7c1.6-5,3-10.1,4.6-15.2c0.4-1.4,1.2-2.8,2.6-3.5c2.1-1,3-2.8,3.6-4.9
				c1.3-4.8,1.3-4.7,6.1-3.3c1.8,0.4,2,1.2,1.3,2.8c-0.6,1.2-0.8,2.7-1.2,4c-0.4,1.3-0.4,2.6,0.3,3.8c0.6,1,0.9,2,0.9,3.1
				c0.1,4.2-0.9,4.9-4.7,3.8c-1.2-0.3-2.3-0.8-3.6-1C19.4,114.7,17.5,116.3,17.5,118.8z"/>
		</g>
		<g>
			<path class="st4" d="M57.3,70.4c2.1,0,4.2,0,6.3,0c0.8,0,1.1,0.2,1,1.1c-0.7,4.4-1.3,8.9-1.9,13.3c-0.1,1.1-0.6,1.5-1.8,1.5
				c-2.4-0.1-4.9-0.1-7.3,0c-1.2,0-1.6-0.3-1.8-1.5c-0.6-4.4-1.2-8.9-1.9-13.3c-0.1-0.9,0.1-1.1,0.9-1.1
				C53,70.5,55.1,70.4,57.3,70.4z"/>
			<path class="st6" d="M57.3,70.4c2.1,0,4.2,0,6.3,0c0.8,0,1.1,0.2,1,1.1c-0.7,4.4-1.3,8.9-1.9,13.3c-0.1,1.1-0.6,1.5-1.8,1.5
				c-2.4-0.1-4.9-0.1-7.3,0c-1.2,0-1.6-0.3-1.8-1.5c-0.6-4.4-1.2-8.9-1.9-13.3c-0.1-0.9,0.1-1.1,0.9-1.1
				C53,70.5,55.1,70.4,57.3,70.4z"/>
		</g>
		<g>
			<path class="st4" d="M50.9,140.4c-3.3,3.8-6.6,7.4-9.8,11.1c-0.7,0.8-1.2,0.7-2,0.1c-2.1-1.4-4.1-2.8-6.3-4.1
				c-0.9-0.6-1.1-1.1-0.6-2.1c1.9-4,3.8-8,5.7-12c0.3-0.7,0.5-1.3,1.5-0.6C43.2,135.3,47,137.8,50.9,140.4z"/>
			<path class="st6" d="M50.9,140.4c-3.3,3.8-6.6,7.4-9.8,11.1c-0.7,0.8-1.2,0.7-2,0.1c-2.1-1.4-4.1-2.8-6.3-4.1
				c-0.9-0.6-1.1-1.1-0.6-2.1c1.9-4,3.8-8,5.7-12c0.3-0.7,0.5-1.3,1.5-0.6C43.2,135.3,47,137.8,50.9,140.4z"/>
		</g>
		<path class="st3" d="M119.2,86.3c3,0,3,0,3,2.9c0,3.4,0,3.4-3.3,3.4c-3,0-3,0-3-2.9C115.9,86.3,115.9,86.3,119.2,86.3z"/>
		<path class="st3" d="M106.4,162.4c3.1,0,3.1,0,3.1,3.2c0,3.1,0,3.1-3.2,3.1c-3.1,0-3.1,0-3.1-3.2
			C103.2,162.4,103.2,162.4,106.4,162.4z"/>
		<g>
			<path class="st4" d="M119.2,67.6c-1.5,0.1-2.5,0.9-2.9,2.2c-0.6,1.6-1.1,3.2-1.6,4.9c-0.2,0.8-0.6,1.1-1.4,0.7
				c-0.1,0-0.1-0.1-0.2-0.1c-1.5-0.5-3.8-0.5-4.4-1.7c-0.5-1,0.7-2.9,1.1-4.4c0.7-2.1,1.4-4.3,2-6.4c0.2-0.8,0.6-1,1.4-0.7
				c4.6,1.5,9.1,2.9,13.7,4.4c1.2,0.4,2.3,1,2.7,2.1c1,2.3,2.9,3,5,3.7c3.7,1.1,3.5,1.1,2.5,4.9c-0.6,2.1-1.4,2.3-3.3,1.6
				c-2.6-1.1-5.1-1.8-7.9-0.3c-1.6,0.9-3.3-0.1-5-0.6c-0.9-0.3-0.5-0.9-0.3-1.5c0.5-1.6,1.1-3.2,1.5-4.9
				C122.9,69.4,121.3,67.5,119.2,67.6z"/>
			<path class="st7" d="M119.2,67.6c-1.5,0.1-2.5,0.9-2.9,2.2c-0.6,1.6-1.1,3.2-1.6,4.9c-0.2,0.8-0.6,1.1-1.4,0.7
				c-0.1,0-0.1-0.1-0.2-0.1c-1.5-0.5-3.8-0.5-4.4-1.7c-0.5-1,0.7-2.9,1.1-4.4c0.7-2.1,1.4-4.3,2-6.4c0.2-0.8,0.6-1,1.4-0.7
				c4.6,1.5,9.1,2.9,13.7,4.4c1.2,0.4,2.3,1,2.7,2.1c1,2.3,2.9,3,5,3.7c3.7,1.1,3.5,1.1,2.5,4.9c-0.6,2.1-1.4,2.3-3.3,1.6
				c-2.6-1.1-5.1-1.8-7.9-0.3c-1.6,0.9-3.3-0.1-5-0.6c-0.9-0.3-0.5-0.9-0.3-1.5c0.5-1.6,1.1-3.2,1.5-4.9
				C122.9,69.4,121.3,67.5,119.2,67.6z"/>
		</g>
		<g>
			<path class="st4" d="M87.3,71.6c1.7,0,2.7-1.1,3.9-1.9c3.3-2.2,3.1-2.1,5.5,0.9c1.3,1.7,1,2.5-0.7,3.5c-2.5,1.5-4.8,3.2-7.2,4.9
				c-0.8,0.6-1.3,0.8-2-0.3c-2.6-3.8-5.2-7.6-7.9-11.4c-0.9-1.2-1.4-2.6-1-4.1c0.6-2-0.3-3.4-1.3-4.9c-2.8-4-2.7-3.9,1.4-6.6
				c1-0.6,1.5-0.5,2.1,0.4s1.2,1.7,1.8,2.6c1,1.6,2.2,2.7,4.2,3c2.1,0.3,3.3,2.1,4.4,3.7c0.5,0.8-0.1,1.1-0.6,1.4
				c-1.4,1-3,2-4.3,3.1c-1.1,0.9-1.5,2.1-0.9,3.5C85,70.9,86,71.5,87.3,71.6z"/>
			<path class="st7" d="M87.3,71.6c1.7,0,2.7-1.1,3.9-1.9c3.3-2.2,3.1-2.1,5.5,0.9c1.3,1.7,1,2.5-0.7,3.5c-2.5,1.5-4.8,3.2-7.2,4.9
				c-0.8,0.6-1.3,0.8-2-0.3c-2.6-3.8-5.2-7.6-7.9-11.4c-0.9-1.2-1.4-2.6-1-4.1c0.6-2-0.3-3.4-1.3-4.9c-2.8-4-2.7-3.9,1.4-6.6
				c1-0.6,1.5-0.5,2.1,0.4s1.2,1.7,1.8,2.6c1,1.6,2.2,2.7,4.2,3c2.1,0.3,3.3,2.1,4.4,3.7c0.5,0.8-0.1,1.1-0.6,1.4
				c-1.4,1-3,2-4.3,3.1c-1.1,0.9-1.5,2.1-0.9,3.5C85,70.9,86,71.5,87.3,71.6z"/>
		</g>
		<g>
			<path class="st4" d="M96.1,46.4c0-1.8,0.1-3.6,0-5.3c-0.1-2.4,0.4-4.4,2.2-6.1c1.3-1.2,1-2.9,1-4.5c0-4.1,0-4,4.2-4.2
				c1.9-0.1,2.4,0.5,2.2,2.3c-0.1,1.1,0,2.2,0,3.4c-0.1,1.4,0.4,2.6,1.4,3.5c0.7,0.7,1.2,1.5,1.5,2.5c1,3.4,0.5,4.2-3,4.2
				c-1,0-2,0-3,0c-2,0.1-3.3,1.4-3.3,3.2s1.3,3.1,3.4,3.1c1.6,0,3.3,0.1,4.9,0c1,0,1.2,0.3,1.2,1.2c0.2,5.1,0.2,5.1-4.8,5.1
				c-2.2,0-4.5,0-6.7,0c-1,0-1.2-0.3-1.2-1.2C96.1,51.3,96.1,48.9,96.1,46.4z"/>
			<path class="st5" d="M96.1,46.4c0-1.8,0.1-3.6,0-5.3c-0.1-2.4,0.4-4.4,2.2-6.1c1.3-1.2,1-2.9,1-4.5c0-4.1,0-4,4.2-4.2
				c1.9-0.1,2.4,0.5,2.2,2.3c-0.1,1.1,0,2.2,0,3.4c-0.1,1.4,0.4,2.6,1.4,3.5c0.7,0.7,1.2,1.5,1.5,2.5c1,3.4,0.5,4.2-3,4.2
				c-1,0-2,0-3,0c-2,0.1-3.3,1.4-3.3,3.2s1.3,3.1,3.4,3.1c1.6,0,3.3,0.1,4.9,0c1,0,1.2,0.3,1.2,1.2c0.2,5.1,0.2,5.1-4.8,5.1
				c-2.2,0-4.5,0-6.7,0c-1,0-1.2-0.3-1.2-1.2C96.1,51.3,96.1,48.9,96.1,46.4z"/>
		</g>
		<g>
			<path class="st4" d="M172.7,107.7c1.6,1.2,3.3,2.5,5,3.8c0.4,0.3-0.2,1-0.6,1.3c-1.4,1.7-2,3.5-1.7,5.7c0.1,1.1,0,2.3-0.7,3.2
				c-2.5,3.7-4.2,7.7-8.4,10c-3.2,1.8-5.4,4.7-6,8.4c-0.8,4.1-3.7,6.9-5.8,10.3c-0.4,0.8-0.9,0.4-1.4,0c-3.2-2.3-6.5-4.7-9.7-6.9
				c-0.7-0.4-0.8-0.9-0.2-1.6c2.5-3.1,4.3-6.7,8-8.9c3.5-2,4.7-5.7,6-9.4c1.9-5.1,4.5-10.1,10.5-11.8c1.7-0.4,2.5-1.7,3.5-2.9
				C171.7,108.3,171.8,107.7,172.7,107.7z"/>
			<path class="st5" d="M172.7,107.7c1.6,1.2,3.3,2.5,5,3.8c0.4,0.3-0.2,1-0.6,1.3c-1.4,1.7-2,3.5-1.7,5.7c0.1,1.1,0,2.3-0.7,3.2
				c-2.5,3.7-4.2,7.7-8.4,10c-3.2,1.8-5.4,4.7-6,8.4c-0.8,4.1-3.7,6.9-5.8,10.3c-0.4,0.8-0.9,0.4-1.4,0c-3.2-2.3-6.5-4.7-9.7-6.9
				c-0.7-0.4-0.8-0.9-0.2-1.6c2.5-3.1,4.3-6.7,8-8.9c3.5-2,4.7-5.7,6-9.4c1.9-5.1,4.5-10.1,10.5-11.8c1.7-0.4,2.5-1.7,3.5-2.9
				C171.7,108.3,171.8,107.7,172.7,107.7z"/>
		</g>
		<g>
			<path class="st4" d="M130.3,156.9c-1.7,0-2.9,1-3.5,2.5c-0.6,1.7-1.3,3.5-1.7,5.2c-0.6,2.5-2.4,1.4-3.1,0.8
				c-1.3-1-4.8,0.7-3.9-2.9c0.9-3.6,2.3-7,3.3-10.6c0.3-1.3,0.8-1.7,2.2-1.3c4.8,1.6,9.8,3.1,14.7,4.7c1.5,0.5,3,1.2,3.7,2.5
				c1.3,2.9,3.7,3.8,6.3,4.6c3.8,1.2,3.8,1.2,2.5,5.1c-0.9,3-1,3.1-3.9,2.1c-3-1-5.9-2-9-0.2c-1.8,1-3.8,0-5.8-0.7
				c-0.9-0.3-0.7-1-0.5-1.7c0.6-1.8,1.3-3.7,1.7-5.6C134.6,159,132.8,156.8,130.3,156.9z"/>
			<path class="st7" d="M130.3,156.9c-1.7,0-2.9,1-3.5,2.5c-0.6,1.7-1.3,3.5-1.7,5.2c-0.6,2.5-2.4,1.4-3.1,0.8
				c-1.3-1-4.8,0.7-3.9-2.9c0.9-3.6,2.3-7,3.3-10.6c0.3-1.3,0.8-1.7,2.2-1.3c4.8,1.6,9.8,3.1,14.7,4.7c1.5,0.5,3,1.2,3.7,2.5
				c1.3,2.9,3.7,3.8,6.3,4.6c3.8,1.2,3.8,1.2,2.5,5.1c-0.9,3-1,3.1-3.9,2.1c-3-1-5.9-2-9-0.2c-1.8,1-3.8,0-5.8-0.7
				c-0.9-0.3-0.7-1-0.5-1.7c0.6-1.8,1.3-3.7,1.7-5.6C134.6,159,132.8,156.8,130.3,156.9z"/>
		</g>
		<g>
			<path class="st4" d="M143.7,87.5c0.7,0,0.8,0.6,1.1,0.9c2.6,4.3,5.2,8.7,7.8,12.9c0.6,0.9,0.4,1.5-0.3,2
				c-2.4,1.9-4.7,3.8-7.1,5.7c-0.8,0.7-1.2,0.4-1.9-0.2c-3.7-3.5-7.4-6.9-11.1-10.3c-0.6-0.4-1.2-1-0.2-1.8c3.7-3,7.5-6.1,11.2-9.1
				C143.3,87.7,143.5,87.6,143.7,87.5z"/>
			<path class="st6" d="M143.7,87.5c0.7,0,0.8,0.6,1.1,0.9c2.6,4.3,5.2,8.7,7.8,12.9c0.6,0.9,0.4,1.5-0.3,2
				c-2.4,1.9-4.7,3.8-7.1,5.7c-0.8,0.7-1.2,0.4-1.9-0.2c-3.7-3.5-7.4-6.9-11.1-10.3c-0.6-0.4-1.2-1-0.2-1.8c3.7-3,7.5-6.1,11.2-9.1
				C143.3,87.7,143.5,87.6,143.7,87.5z"/>
		</g>
		<g>
			<path class="st4" d="M187.7,161c-0.2,0.2-0.4,0.5-0.6,0.7c-2.1,1.8-4.3,3.5-6.3,5.3c-0.6,0.6-1.1,0.5-1.7,0
				c-3.4-3.1-6.8-6.2-10.3-9.3c-0.7-0.6-0.6-1,0.1-1.5c3.3-2.7,6.5-5.4,9.7-8.1c0.6-0.5,0.9-0.6,1.4,0.2c2.4,4,4.9,8,7.3,11.9
				C187.4,160.4,187.5,160.7,187.7,161z"/>
			<path class="st6" d="M187.7,161c-0.2,0.2-0.4,0.5-0.6,0.7c-2.1,1.8-4.3,3.5-6.3,5.3c-0.6,0.6-1.1,0.5-1.7,0
				c-3.4-3.1-6.8-6.2-10.3-9.3c-0.7-0.6-0.6-1,0.1-1.5c3.3-2.7,6.5-5.4,9.7-8.1c0.6-0.5,0.9-0.6,1.4,0.2c2.4,4,4.9,8,7.3,11.9
				C187.4,160.4,187.5,160.7,187.7,161z"/>
		</g>
	</g>
</g>
<g>
	<g>
		<path class="st8" d="M132.9,24.4H47c-5,0-9.1,4.1-9.1,9.1v138.6c0,5,4.1,9.1,9.1,9.1h109.2c5,0,9.1-4.1,9.1-9.1V54.4L132.9,24.4z
			 M155.7,53.4h-17.6c-2.1,0-3.8-1.7-3.8-3.8V33.4L155.7,53.4z M156.1,175.8H47c-2.1,0-3.8-1.7-3.8-3.8V33.3c0-2.1,1.7-3.8,3.8-3.8
			H129v19.9c0,5,4.1,9.1,9.1,9.1h21.9v113.3C159.9,174.1,158.2,175.8,156.1,175.8z"/>
		<path class="st8" d="M145.9,74.1H58.4v0.5H57v88.8h1.4v0.1h87.5v-0.1h0.5V74.6h-0.5V74.1z M78.1,158.2H62.3v-15.8h15.8V158.2z
			 M78.1,137.2H62.3v-15.8h15.8V137.2z M78.1,116.1H62.3v-15.8h15.8V116.1z M78.1,95.1H62.3V79.3h15.8V95.1z M99.1,158.2H83.3v-15.8
			h15.8V158.2z M99.1,137.2H83.3v-15.8h15.8V137.2z M99.1,116.1H83.3v-15.8h15.8V116.1z M99.1,95.1H83.3V79.3h15.8V95.1z
			 M120.1,158.2h-15.8v-15.8h15.8V158.2z M120.1,137.2h-15.8v-15.8h15.8V137.2z M120.1,116.1h-15.8v-15.8h15.8V116.1z M120.1,95.1
			h-15.8V79.3h15.8V95.1z M141.1,158.2h-15.7v-15.8h15.8L141.1,158.2L141.1,158.2z M141.1,137.2h-15.7v-15.8h15.8L141.1,137.2
			L141.1,137.2z M141.1,116.1h-15.7v-15.8h15.8L141.1,116.1L141.1,116.1z M141.1,95.1h-15.7V79.3h15.8L141.1,95.1L141.1,95.1z"/>
		<path class="st8" d="M141.3,62.6H62.2V46H129v-5.3H59.5c-1.5,0-2.6,1.2-2.6,2.6v21.9c0,1.5,1.2,2.6,2.6,2.6h84.3
			c1.5,0,2.6-1.2,2.6-2.6v-6.5h-5.3L141.3,62.6L141.3,62.6z"/>
	</g>
	<g>
		<path class="st9" d="M129.7,20.6H43.9c-5,0-9.1,4.1-9.1,9.1v138.6c0,5,4.1,9.1,9.1,9.1H153c5,0,9.1-4.1,9.1-9.1V50.7L129.7,20.6z
			 M152.5,49.6h-17.6c-2.1,0-3.8-1.7-3.8-3.8V29.6L152.5,49.6z M153,172H43.9c-2.1,0-3.8-1.7-3.8-3.8V29.6c0-2.1,1.7-3.8,3.8-3.8
			h82.1v19.9c0,5,4.1,9.1,9.1,9.1h21.9v113.3C156.8,170.3,155.1,172,153,172z"/>
		<path class="st9" d="M142.7,70.2H55.2v0.5h-1.4v88.8h1.4v0.1h87.5v-0.1h0.5V70.8h-0.5V70.2z M74.9,154.4H59.1v-15.8h15.8V154.4z
			 M74.9,133.4H59.1v-15.8h15.8V133.4z M74.9,112.3H59.1V96.6h15.8V112.3z M74.9,91.3H59.1V75.6h15.8V91.3z M95.9,154.4H80.1v-15.8
			h15.8V154.4z M95.9,133.4H80.1v-15.8h15.8V133.4z M95.9,112.3H80.1V96.6h15.8V112.3z M95.9,91.3H80.1V75.6h15.8V91.3z M117,154.4
			h-15.8v-15.8H117V154.4z M117,133.4h-15.8v-15.8H117V133.4z M117,112.3h-15.8V96.6H117V112.3z M117,91.3h-15.8V75.6H117V91.3z
			 M138,154.4h-15.8v-15.8H138V154.4z M138,133.4h-15.8v-15.8H138V133.4z M138,112.3h-15.8V96.6H138V112.3z M138,91.3h-15.8V75.6
			H138V91.3z"/>
		<path class="st9" d="M138.1,58.8H59V42.2h66.8V37H56.4c-1.5,0-2.6,1.2-2.6,2.6v21.9c0,1.5,1.2,2.6,2.6,2.6h84.3
			c1.5,0,2.6-1.2,2.6-2.6v-6.5h-5.3V58.8z"/>
	</g>
</g>
</svg>
