<?xml version="1.0" encoding="utf-8"?>
<!-- Generator: Adobe Illustrator 28.0.0, SVG Export Plug-In . SVG Version: 6.00 Build 0)  -->
<svg version="1.1" id="圖層_1" xmlns="http://www.w3.org/2000/svg" xmlns:xlink="http://www.w3.org/1999/xlink" x="0px" y="0px"
	 viewBox="0 0 200 200" style="enable-background:new 0 0 200 200;" xml:space="preserve">
<style type="text/css">
	.st0{display:none;}
	.st1{display:inline;}
	.st2{fill:#474747;}
	.st3{fill:#8BCFDB;}
	.st4{fill:#46A7B1;}
	.st5{display:inline;fill:#8BCFDB;}
	.st6{display:inline;fill:#46A7B1;}
	.st7{display:inline;fill:#474747;}
	.st8{display:inline;fill:none;stroke:#FFFFFF;stroke-width:3;stroke-linecap:round;stroke-linejoin:round;stroke-miterlimit:10;}
	.st9{fill:#2A888D;}
	.st10{fill:#D2B864;}
	.st11{fill:#E5D69B;}
	.st12{fill:#C4D593;}
	.st13{fill:#FFFFFF;}
	.st14{fill:none;stroke:#FFFFFF;stroke-width:3;stroke-linecap:round;stroke-linejoin:round;stroke-miterlimit:10;}
</style>
<g class="st0">
	<g class="st1">
		<path class="st2" d="M54.2,166.7c-5.7,0-10.4-4.6-10.4-10.4V143c0-5.7,4.6-10.4,10.4-10.4H82c5.7,0,10.4,4.6,10.4,10.4v13.3
			c0,5.7-4.6,10.4-10.4,10.4H54.2z M54.2,142.2c-0.4,0-0.8,0.4-0.8,0.8v13.3c0,0.4,0.4,0.8,0.8,0.8H82c0.4,0,0.8-0.4,0.8-0.8V143
			c0-0.4-0.4-0.8-0.8-0.8H54.2z"/>
		<path class="st2" d="M54.2,167c-5.8,0-10.6-4.8-10.6-10.6v-13.3c0-5.8,4.8-10.6,10.6-10.6H82c5.8,0,10.6,4.8,10.6,10.6v13.3
			c0,5.8-4.8,10.6-10.6,10.6H54.2z M54.2,142.5c-0.3,0-0.6,0.3-0.6,0.6v13.3c0,0.3,0.3,0.6,0.6,0.6H82c0.3,0,0.6-0.3,0.6-0.6v-13.3
			c0-0.3-0.3-0.6-0.6-0.6H54.2z"/>
		<path class="st2" d="M82,165.7H54.2c-5.2,0-9.3-4.2-9.3-9.3v-13.3c0-5.2,4.2-9.3,9.3-9.3H82c5.2,0,9.3,4.2,9.3,9.3v13.3
			C91.4,161.5,87.2,165.7,82,165.7z M54.2,141.2c-1,0-1.8,0.8-1.8,1.8v13.3c0,1,0.8,1.8,1.8,1.8H82c1,0,1.8-0.8,1.8-1.8V143
			c0-1-0.8-1.8-1.8-1.8H54.2z"/>
		<path class="st3" d="M47.6,155.1v-10.7c0-4.3,3.5-7.9,7.9-7.9h25.2c4.3,0,7.9,3.5,7.9,7.9v10.7c0,4.3-3.5,7.9-7.9,7.9H55.5
			C51.2,163,47.6,159.4,47.6,155.1z"/>
		<path class="st4" d="M54.2,163c-3.4,0-6.3-2.7-6.6-6.1c0-0.3,0.1-0.6,0.4-0.8c0.2-0.1,0.4-0.2,0.6-0.2c0.1,0,0.2,0,0.3,0
			c0.4,0.1,0.8,0.2,1.2,0.2H78c2.5,0,4.6-2.1,4.6-4.6v-13.3c0-0.1,0-0.2,0-0.3c0-0.3,0.1-0.7,0.4-0.9c0.2-0.2,0.4-0.2,0.7-0.2
			c0.1,0,0.2,0,0.2,0c2.8,0.8,4.8,3.4,4.8,6.3v13.3c0,3.6-3,6.6-6.6,6.6H54.2z"/>
	</g>
	<g class="st1">
		<path class="st2" d="M118,166.7c-5.7,0-10.4-4.6-10.4-10.4V143c0-5.7,4.6-10.4,10.4-10.4h27.8c5.7,0,10.4,4.6,10.4,10.4v13.3
			c0,5.7-4.6,10.4-10.4,10.4H118z M118,142.2c-0.4,0-0.8,0.4-0.8,0.8v13.3c0,0.4,0.4,0.8,0.8,0.8h27.8c0.4,0,0.8-0.4,0.8-0.8V143
			c0-0.4-0.4-0.8-0.8-0.8H118z"/>
		<path class="st2" d="M118,167c-5.8,0-10.6-4.8-10.6-10.6v-13.3c0-5.8,4.8-10.6,10.6-10.6h27.8c5.8,0,10.6,4.8,10.6,10.6v13.3
			c0,5.8-4.8,10.6-10.6,10.6H118z M118,142.5c-0.3,0-0.6,0.3-0.6,0.6v13.3c0,0.3,0.3,0.6,0.6,0.6h27.8c0.3,0,0.6-0.3,0.6-0.6v-13.3
			c0-0.3-0.3-0.6-0.6-0.6H118z"/>
		<path class="st2" d="M145.8,165.7H118c-5.2,0-9.3-4.2-9.3-9.3v-13.3c0-5.2,4.2-9.3,9.3-9.3h27.8c5.2,0,9.3,4.2,9.3,9.3v13.3
			C155.2,161.5,151,165.7,145.8,165.7z M118,141.2c-1,0-1.8,0.8-1.8,1.8v13.3c0,1,0.8,1.8,1.8,1.8h27.8c1,0,1.8-0.8,1.8-1.8V143
			c0-1-0.8-1.8-1.8-1.8H118z"/>
		<path class="st3" d="M111.5,155.1v-10.7c0-4.3,3.5-7.9,7.9-7.9h25.2c4.3,0,7.9,3.5,7.9,7.9v10.7c0,4.3-3.5,7.9-7.9,7.9h-25.2
			C115,163,111.5,159.4,111.5,155.1z"/>
		<path class="st4" d="M118,163c-3.4,0-6.3-2.7-6.6-6.1c0-0.3,0.1-0.6,0.4-0.8c0.2-0.1,0.4-0.2,0.6-0.2c0.1,0,0.2,0,0.3,0
			c0.4,0.1,0.8,0.2,1.2,0.2h27.8c2.5,0,4.6-2.1,4.6-4.6v-13.3c0-0.1,0-0.2,0-0.3c0-0.3,0.1-0.7,0.4-0.9c0.2-0.2,0.4-0.2,0.7-0.2
			c0.1,0,0.2,0,0.2,0c2.8,0.8,4.8,3.4,4.8,6.3v13.3c0,3.6-3,6.6-6.6,6.6H118z"/>
	</g>
	<path class="st5" d="M141.9,147.1H58.1c-28.6,0-52-12.2-52-52l0,0c0-28.6,23.4-52,52-52h83.7c38.3,0,52,23.4,52,52l0,0
		C193.9,132.9,170.5,147.1,141.9,147.1z"/>
	<path class="st6" d="M165.5,46.5c10.3,8.4,16.9,21.1,16.9,35.4v12.8c0,25.1-20.5,45.6-45.6,45.6H40.2c-6.1,0-11.9-1.2-17.2-3.4
		c7.9,6.4,17.8,10.2,28.7,10.2h96.6c25.1,0,45.6-20.5,45.6-45.6V88.7C193.9,69.7,182.1,53.3,165.5,46.5z"/>
	<path class="st7" d="M10,123.1c-1.1,0-2.1-0.6-2.7-1.5C3,114.4,3,110.5,3,102.8V88.7C3,61.8,24.9,40,51.7,40h3.9
		c1.7,0,3.1,1.4,3.1,3.1c0,1.7-1.4,3.1-3.1,3.1h-3.9c-23.4,0-42.5,19.1-42.5,42.5v12.8c0,0.7,0,1.4,0,2.1c0,6.1-0.1,9,3.4,14.8
		c0.4,0.7,0.5,1.5,0.3,2.3s-0.7,1.5-1.4,1.9C11.1,122.9,10.5,123.1,10,123.1z"/>
	<path class="st7" d="M10,122.1c-0.7,0-1.4-0.4-1.8-1c-4.4-7.3-4.1-11-4.1-19.5V88.7C4,62.4,25.4,41,51.7,41h3.9
		c1.2,0,2.1,0.9,2.1,2.1c0,1.2-0.9,2.1-2.1,2.1h-3.9c-24,0-43.5,19.5-43.5,43.5v12.8c0,7.8-0.4,10.7,3.6,17.4c0.6,1,0.3,2.3-0.7,2.9
		C10.7,122,10.3,122.1,10,122.1z"/>
	<path class="st7" d="M51.7,150.2c-18.6,0-28.8-4.8-37.7-17.6c-1-1.4-0.6-3.3,0.8-4.3c0.5-0.4,1.1-0.6,1.8-0.6c1,0,2,0.5,2.5,1.3
		c7.6,11,16.2,14.9,32.7,14.9h40.4c1.7,0,3.1,1.4,3.1,3.1s-1.4,3.1-3.1,3.1H51.7V150.2z"/>
	<path class="st7" d="M92.1,149.2H51.7c-18.2,0-28.2-4.6-36.9-17.1c-0.7-0.9-0.4-2.3,0.5-2.9c0.9-0.7,2.3-0.4,2.9,0.5
		C26.1,141,34.9,145,51.7,145h40.4c1.2,0,2.1,0.9,2.1,2.1S93.2,149.2,92.1,149.2z"/>
	<path class="st7" d="M104.5,150.2c-1.6,0-3-1.2-3.2-2.8c-0.1-0.9,0.2-1.7,0.8-2.4c0.6-0.6,1.4-1,2.3-1h43.9
		c23.4,0,42.5-19.1,42.5-42.5V88.7c0-9.2-3-18-8.5-25.5c-1-1.3-0.9-3.2,0.3-4.3c0.6-0.5,1.3-0.8,2.1-0.8c1,0,1.9,0.4,2.5,1.2
		c6.5,8.5,9.9,18.7,9.9,29.3v12.8c0,26.9-21.8,48.7-48.7,48.7L104.5,150.2L104.5,150.2z"/>
	<path class="st7" d="M148.3,149.2h-43.8c-1.1,0-2.1-0.8-2.2-1.9c-0.1-1.3,0.9-2.3,2.1-2.3h43.9c24,0,43.5-19.5,43.5-43.5V88.7
		c0-9.5-3-18.5-8.7-26.1c-0.7-0.9-0.7-2.2,0.2-2.9c0.9-0.8,2.3-0.7,3.1,0.3c6.3,8.4,9.7,18.3,9.7,28.7v12.8
		C196,127.9,174.6,149.2,148.3,149.2z"/>
	<path class="st7" d="M180.3,58.7c-1,0-1.9-0.4-2.5-1.2c-7.3-9.6-15-11.3-29.6-11.3h-80c-1.7,0-3.1-1.4-3.1-3.1
		c0-1.7,1.4-3.1,3.1-3.1h80.1c16.3,0,25.6,2.1,34.5,13.7c0.5,0.7,0.7,1.5,0.6,2.3s-0.5,1.5-1.2,2C181.7,58.5,181,58.7,180.3,58.7z"
		/>
	<path class="st7" d="M180.3,57.7c-0.6,0-1.3-0.3-1.7-0.8c-7.6-10-15.5-11.7-30.4-11.7h-80c-1.2,0-2.1-0.9-2.1-2.1
		c0-1.2,0.9-2.1,2.1-2.1h80.1c16,0,25.1,2,33.7,13.3c0.7,0.9,0.5,2.2-0.4,2.9C181.2,57.5,180.8,57.7,180.3,57.7z"/>
	<path class="st8" d="M32.5,46.8"/>
	<g class="st1">
		<path class="st9" d="M37.4,151.6L37.4,151.6c2.7,0,4.8-2.2,4.8-4.8V41.2c0-2.7-2.2-4.8-4.8-4.8l0,0c-2.7,0-4.8,2.2-4.8,4.8v105.7
			C32.5,149.5,34.7,151.6,37.4,151.6z"/>
		<path class="st2" d="M37.4,153.9c-3.9,0-7.1-3.2-7.1-7.1V41.2c0-3.9,3.2-7.1,7.1-7.1s7.1,3.2,7.1,7.1v5.7c0,1.2-1,2.3-2.3,2.3
			s-2.3-1-2.3-2.3v-5.7c0-1.4-1.2-2.6-2.6-2.6s-2.6,1.2-2.6,2.6v105.7c0,1.4,1.2,2.6,2.6,2.6s2.6-1.2,2.6-2.6V143
			c0-1.2,1-2.3,2.3-2.3s2.3,1,2.3,2.3v3.8C44.4,150.7,41.3,153.9,37.4,153.9z"/>
		<path class="st2" d="M37.4,152.9c-3.4,0-6.1-2.7-6.1-6.1V41.2c0-3.4,2.7-6.1,6.1-6.1s6.1,2.7,6.1,6.1v5.7c0,0.7-0.6,1.3-1.3,1.3
			s-1.3-0.6-1.3-1.3v-5.7c0-2-1.6-3.6-3.6-3.6s-3.6,1.6-3.6,3.6v105.7c0,2,1.6,3.6,3.6,3.6s3.6-1.6,3.6-3.6V143
			c0-0.7,0.6-1.3,1.3-1.3s1.3,0.6,1.3,1.3v3.8C43.4,150.2,40.7,152.9,37.4,152.9z"/>
	</g>
	<g class="st1">
		<path class="st9" d="M162.5,151.6L162.5,151.6c2.7,0,4.8-2.2,4.8-4.8V41.2c0-2.7-2.2-4.8-4.8-4.8l0,0c-2.7,0-4.8,2.2-4.8,4.8
			v105.7C157.7,149.5,159.9,151.6,162.5,151.6z"/>
		<path class="st2" d="M162.5,153.9c-3.9,0-7.1-3.2-7.1-7.1V41.2c0-3.9,3.2-7.1,7.1-7.1c3.9,0,7.1,3.2,7.1,7.1v5.7
			c0,1.2-1,2.3-2.3,2.3s-2.3-1-2.3-2.3v-5.7c0-1.4-1.2-2.6-2.6-2.6c-1.4,0-2.6,1.2-2.6,2.6v105.7c0,1.4,1.2,2.6,2.6,2.6
			c1.4,0,2.6-1.2,2.6-2.6V143c0-1.2,1-2.3,2.3-2.3s2.3,1,2.3,2.3v3.8C169.6,150.7,166.4,153.9,162.5,153.9z"/>
		<path class="st2" d="M162.5,152.9c-3.4,0-6.1-2.7-6.1-6.1V41.2c0-3.4,2.7-6.1,6.1-6.1s6.1,2.7,6.1,6.1v5.7c0,0.7-0.6,1.3-1.3,1.3
			s-1.3-0.6-1.3-1.3v-5.7c0-2-1.6-3.6-3.6-3.6s-3.6,1.6-3.6,3.6v105.7c0,2,1.6,3.6,3.6,3.6s3.6-1.6,3.6-3.6V143
			c0-0.7,0.6-1.3,1.3-1.3s1.3,0.6,1.3,1.3v3.8C168.6,150.2,165.9,152.9,162.5,152.9z"/>
	</g>
	<path class="st7" d="M99.4,120.6c-15.1,0-27.4-12.3-27.4-27.4s12.3-27.4,27.4-27.4s27.4,12.3,27.4,27.4
		C126.8,108.4,114.5,120.6,99.4,120.6z M99.4,70.1c-12.8,0-23.2,10.4-23.2,23.2s10.4,23.2,23.2,23.2s23.2-10.4,23.2-23.2
		C122.6,80.5,112.2,70.1,99.4,70.1z"/>
	<g class="st1">
		<circle class="st10" cx="99.4" cy="93.3" r="18"/>
		<path class="st2" d="M99.4,112.1c-10.4,0-18.9-8.5-18.9-18.9S89,74.4,99.4,74.4s18.9,8.5,18.9,18.9S109.9,112.1,99.4,112.1z
			 M99.4,76.1c-9.5,0-17.2,7.7-17.2,17.2s7.7,17.2,17.2,17.2s17.2-7.7,17.2-17.2S108.9,76.1,99.4,76.1z"/>
	</g>
	<g class="st1">
		<path class="st2" d="M106.8,92.2c-3.7,0-6.6-3-6.6-6.6c0-3.7,3-6.6,6.6-6.6h15V40.8c0-3.7,3-6.6,6.6-6.6c3.7,0,6.6,3,6.6,6.6v44.8
			c0,3.7-3,6.6-6.6,6.6H106.8z"/>
		<path class="st2" d="M128.4,91.2h-21.6c-3.1,0-5.6-2.5-5.6-5.6s2.5-5.6,5.6-5.6h16V40.8c0-3.1,2.5-5.6,5.6-5.6
			c3.1,0,5.6,2.5,5.6,5.6v44.8C134,88.7,131.5,91.2,128.4,91.2z M106.8,85c-0.3,0-0.6,0.3-0.6,0.6s0.3,0.6,0.6,0.6h21.6
			c0.3,0,0.6-0.3,0.6-0.6V40.8c0-0.3-0.3-0.6-0.6-0.6s-0.6,0.3-0.6,0.6V85H106.8z"/>
		<path class="st11" d="M128.4,88.7h-21.6c-1.7,0-3.1-1.4-3.1-3.1s1.4-3.1,3.1-3.1h18.5V40.8c0-1.7,1.4-3.1,3.1-3.1s3.1,1.4,3.1,3.1
			v44.8C131.5,87.3,130.1,88.7,128.4,88.7z"/>
	</g>
	<g class="st1">
		<path class="st2" d="M107,106.1c-3.7,0-6.6-3-6.6-6.6c0-3.7,3-6.6,6.6-6.6h29.7V40.7c0-3.7,3-6.6,6.6-6.6c3.7,0,6.6,3,6.6,6.6
			v58.8c0,3.7-3,6.6-6.6,6.6H107z"/>
		<path class="st2" d="M143.3,105.1H107c-3.1,0-5.6-2.5-5.6-5.6s2.5-5.6,5.6-5.6h30.7V40.7c0-3.1,2.5-5.6,5.6-5.6s5.6,2.5,5.6,5.6
			v58.8C148.9,102.6,146.4,105.1,143.3,105.1z M107,98.9c-0.3,0-0.6,0.3-0.6,0.6c0,0.3,0.3,0.6,0.6,0.6h36.3c0.3,0,0.6-0.3,0.6-0.6
			V40.7c0-0.3-0.3-0.6-0.6-0.6s-0.6,0.3-0.6,0.6v58.2H107z"/>
		<path class="st11" d="M143.3,102.6H107c-1.7,0-3.1-1.4-3.1-3.1s1.4-3.1,3.1-3.1h33.2V40.7c0-1.7,1.4-3.1,3.1-3.1
			c1.7,0,3.1,1.4,3.1,3.1v58.8C146.4,101.2,145,102.6,143.3,102.6z"/>
	</g>
</g>
<g>
	<g>
		<path class="st12" d="M144.7,147.5v3.2c0,2.5-2,4.5-4.5,4.5H113c-0.4,0-0.8-0.1-1.2-0.2c-0.1,0-0.2,0-0.3,0
			c-0.2,0-0.4,0.1-0.6,0.2c-0.2,0.2-0.4,0.5-0.4,0.8c0.2,3.4,3.1,6,6.4,6h27.2c3.6,0,6.5-2.9,6.5-6.5v-8H144.7z"/>
		<path class="st13" d="M150.6,147.5v7c0,4.1-3.3,7.5-7.5,7.5h-25.2c-4.1,0-7.5-3.3-7.5-7.5v-7h-3.9v8c0,5.7,4.7,10.4,10.4,10.4
			h27.2c5.7,0,10.4-4.7,10.4-10.4v-8H150.6z"/>
	</g>
	<g>
		<path class="st12" d="M82.4,147.5v3.2c0,2.5-2,4.5-4.5,4.5H50.7c-0.4,0-0.8-0.1-1.2-0.2c-0.1,0-0.2,0-0.3,0
			c-0.2,0-0.4,0.1-0.6,0.2c-0.2,0.2-0.4,0.5-0.4,0.8c0.2,3.4,3.1,6,6.4,6h27.2c3.6,0,6.5-2.9,6.5-6.5v-8H82.4z"/>
		<path class="st13" d="M88.3,147.5v7c0,4.1-3.3,7.5-7.5,7.5H55.7c-4.1,0-7.5-3.3-7.5-7.5v-7h-3.9v8c0,5.7,4.7,10.4,10.4,10.4h27.2
			c5.7,0,10.4-4.7,10.4-10.4v-8H88.3z"/>
	</g>
	<path class="st12" d="M164.1,46.2c10.1,8.2,16.6,20.7,16.6,34.6v12.6c0,24.6-20.1,44.7-44.7,44.7H41.4c-5.9,0-11.6-1.2-16.8-3.3
		c7.7,6.3,17.5,10,28.1,10h94.6c24.6,0,44.7-20.1,44.7-44.7V87.6C192,69,180.4,52.9,164.1,46.2z"/>
	<path class="st13" d="M11.8,121.3c-1.1,0-2.1-0.6-2.6-1.5C5,112.7,5,108.9,5,101.4l0-13.8c0-26.3,21.4-47.7,47.7-47.7h3.8
		c1.7,0,3,1.4,3,3c0,1.7-1.4,3-3,3h-3.8c-23,0-41.6,18.7-41.6,41.6v12.6c0,0.7,0,1.4,0,2.1c0,6,0,8.8,3.4,14.5
		c0.4,0.7,0.5,1.5,0.3,2.3c-0.2,0.8-0.7,1.4-1.4,1.9C12.9,121.1,12.4,121.3,11.8,121.3z"/>
	<path class="st13" d="M52.7,147.9c-18.2,0-28.2-4.7-37-17.2c-1-1.4-0.6-3.3,0.8-4.2c0.5-0.4,1.1-0.5,1.7-0.5c1,0,1.9,0.5,2.5,1.3
		c7.5,10.8,15.9,14.6,32,14.6h39.5c1.7,0,3,1.4,3,3c0,1.7-1.4,3-3,3H52.7z"/>
	<path class="st14" d="M33.9,46.6"/>
	<path class="st13" d="M38.6,151.5c-3.8,0-6.9-3.1-6.9-6.9V41c0-3.8,3.1-6.9,6.9-6.9s6.9,3.1,6.9,6.9v5.6c0,1.2-1,2.2-2.2,2.2
		c-1.2,0-2.2-1-2.2-2.2V41c0-1.4-1.1-2.5-2.5-2.5c-1.4,0-2.5,1.1-2.5,2.5v103.5c0,1.4,1.1,2.5,2.5,2.5c1.4,0,2.5-1.1,2.5-2.5v-3.7
		c0-1.2,1-2.2,2.2-2.2c1.2,0,2.2,1,2.2,2.2v3.7C45.6,148.3,42.5,151.5,38.6,151.5z"/>
	<path class="st13" d="M185.3,58.9c-0.6-0.8-1.5-1.2-2.4-1.2c-0.8,0-1.5,0.3-2,0.8c-1.1,1-1.3,2.9-0.3,4.2
		c5.5,7.3,8.4,15.9,8.4,24.9v12.6c0,19-12.8,35.1-30.2,40V46.6c2,0.3,3.8,0.7,5.4,1.3c0.4,0.6,1.1,1,1.8,1c0.2,0,0.3,0,0.5-0.1
		c3.7,1.7,6.8,4.2,9.8,8.2c0.6,0.8,1.5,1.2,2.4,1.2c0.7,0,1.3-0.2,1.8-0.6c0.6-0.5,1.1-1.2,1.2-2c0.1-0.8-0.1-1.6-0.6-2.2
		c-4-5.3-8.1-8.5-12.9-10.5V41c0-3.8-3.1-6.9-6.9-6.9c-3.5,0-6.4,2.6-6.9,6c-2.2-0.1-4.5-0.2-7.1-0.2H68.8c-1.7,0-3,1.4-3,3
		c0,1.7,1.4,3,3,3h78.5c2.5,0,4.8,0.1,7,0.2v95c-2.3,0.4-4.6,0.6-7,0.6h-43c-0.9,0-1.7,0.4-2.2,1s-0.9,1.5-0.8,2.3
		c0.2,1.5,1.5,2.7,3.1,2.7h42.9c2.6,0,5.1-0.2,7.5-0.6c1.1,2.5,3.5,4.2,6.4,4.2c3.8,0,6.9-3.1,6.9-6.9V143
		C184,135.3,195,119,195,100.2V87.6C195,77.1,191.6,67.2,185.3,58.9z M161.2,38.5c1.4,0,2.5,1.1,2.5,2.5v0.3c-1.6-0.4-3.2-0.7-5-0.9
		C159,39.4,160,38.5,161.2,38.5z M161.2,147c-0.7,0-1.3-0.3-1.8-0.7c1.4-0.4,2.9-0.8,4.3-1.3C163.5,146.1,162.5,147,161.2,147z"/>
	<path class="st13" d="M99.4,118.9c-14.8,0-26.8-12-26.8-26.8c0-14.8,12-26.8,26.8-26.8s26.8,12,26.8,26.8
		C126.3,106.8,114.2,118.9,99.4,118.9z M99.4,69.3c-12.5,0-22.7,10.2-22.7,22.7c0,12.5,10.2,22.7,22.7,22.7s22.7-10.2,22.7-22.7
		C122.2,79.5,112,69.3,99.4,69.3z"/>
	<circle class="st12" cx="99.4" cy="92.1" r="17.7"/>
	<path class="st13" d="M99.4,110.5c-10.2,0-18.5-8.3-18.5-18.5s8.3-18.5,18.5-18.5s18.5,8.3,18.5,18.5S109.6,110.5,99.4,110.5z
		 M99.4,75.2c-9.3,0-16.8,7.6-16.8,16.8s7.6,16.8,16.8,16.8c9.3,0,16.8-7.6,16.8-16.8S108.7,75.2,99.4,75.2z"/>
	<path class="st13" d="M106.7,91c-3.6,0-6.5-2.9-6.5-6.5c0-3.6,2.9-6.5,6.5-6.5h14.6V40.7c0-3.6,2.9-6.5,6.5-6.5
		c3.6,0,6.5,2.9,6.5,6.5v43.9c0,3.6-2.9,6.5-6.5,6.5H106.7z"/>
	<path class="st12" d="M127.8,87.6h-21.1c-1.7,0-3.1-1.4-3.1-3.1c0-1.7,1.4-3.1,3.1-3.1h18.1V40.7c0-1.7,1.4-3.1,3.1-3.1
		s3.1,1.4,3.1,3.1v43.8C130.9,86.2,129.5,87.6,127.8,87.6z"/>
	<path class="st13" d="M106.8,104.6c-3.6,0-6.5-2.9-6.5-6.5c0-3.6,2.9-6.5,6.5-6.5h29.1V40.5c0-3.6,2.9-6.5,6.5-6.5s6.5,2.9,6.5,6.5
		v57.6c0,3.6-2.9,6.5-6.5,6.5H106.8z"/>
	<path class="st12" d="M142.4,101.2h-35.6c-1.7,0-3.1-1.4-3.1-3.1c0-1.7,1.4-3.1,3.1-3.1h32.5V40.5c0-1.7,1.4-3.1,3.1-3.1
		s3.1,1.4,3.1,3.1v57.6C145.5,99.8,144.1,101.2,142.4,101.2z"/>
	<path class="st12" d="M38.6,149.2L38.6,149.2c2.6,0,4.7-2.1,4.7-4.7V41c0-2.6-2.1-4.7-4.7-4.7h0c-2.6,0-4.7,2.1-4.7,4.7v103.5
		C33.9,147.1,36,149.2,38.6,149.2z"/>
	<path class="st12" d="M161.2,149.2L161.2,149.2c2.6,0,4.7-2.1,4.7-4.7V41c0-2.6-2.1-4.7-4.7-4.7h0c-2.6,0-4.7,2.1-4.7,4.7v103.5
		C156.5,147.1,158.6,149.2,161.2,149.2z"/>
</g>
</svg>
