<?xml version="1.0" encoding="utf-8"?>
<!-- Generator: Adobe Illustrator 28.0.0, SVG Export Plug-In . SVG Version: 6.00 Build 0)  -->
<svg version="1.1" id="圖層_1" xmlns="http://www.w3.org/2000/svg" xmlns:xlink="http://www.w3.org/1999/xlink" x="0px" y="0px"
	 viewBox="0 0 200 200" style="enable-background:new 0 0 200 200;" xml:space="preserve">
<style type="text/css">
	.st0{display:none;}
	.st1{display:inline;fill:#474747;}
	.st2{display:inline;fill:#8BCFDB;}
	.st3{display:inline;fill:#46A7B1;}
	.st4{display:inline;fill:#E5D69B;}
	.st5{display:inline;fill:#D2B864;}
	.st6{display:none;fill:#3E3A39;}
	.st7{fill:#C4D593;}
	.st8{fill:#B4B4B5;}
	.st9{fill:#FFFFFF;}
</style>
<g class="st0">
	<path class="st1" d="M187.7,6.1c-1.8-1.3-3.5-1.6-5.7-1c-14.1,4-28.1,8.1-42.3,11.8c-8.2,2.2-15.6,5.6-22.3,10.8
		c-5.6,4.4-11.5,8.4-17.3,12.6c-0.6,0.4-1.1,1-1.8-0.1c-1.4-2.2-2.5-2.5-5-1.2c-5,2.5-10,5-15,7.5c-0.9,0.5-1.6,0.5-2.5,0
		c-2.4-1.3-4.9-2.5-7.3-3.7c-5.6-2.7-11.1-1.5-15,3.4c-5,6.2-9.9,12.3-14.9,18.5c-5.7,7.1-11.4,14.1-17,21.2
		c-4.8,6.1-3,14.6,3.7,17.8c1.4,0.7,1.6,1.2,1,2.6c-7.4,18.5-14.8,36.9-22.2,55.4c-0.5,1.2-0.7,2.3-0.5,3.5c0.6,5,3,8.9,7.2,11.6
		c2.7,1.7,5.6,2.3,8.7,2.3c2.1,0,4.2-0.3,6.2,0.5c11.7,4.6,23.5,9.1,35.2,13.6c8.5,3.3,16.2-0.5,18.6-9.3
		c4.1-14.8,8.4-29.6,12.3-44.5c2-7.5,4.7-14.6,9.3-20.9c2-2.7,3.6-5.7,5.4-8.5c4.4-6.9,5.2-14.2,2.2-21.9
		c-2.1-5.6-4.2-11.2-6.3-16.8c-0.4-1-0.3-1.5,0.6-2c2-1.2,3.9-2.6,5.9-3.9c1.4-0.9,2.1-2.2,1.3-3.8c-0.5-1.1-0.1-1.5,0.7-2.1
		c7.2-5.2,14.3-10.4,21.5-15.6c2.5-1.8,5.3-3.1,8.3-3.8c14.9-3.5,29.8-7.2,44.8-10.5c3.4-0.8,5.2-2.6,6.5-5.4c0.9-2,1.3-4.1,1.2-5.8
		C193.6,12.9,191.7,9,187.7,6.1z M58.9,113c-7.2,5.5-9.9,12.7-9.1,21.6c0.9,10.7,1.5,21.5,2.2,32.6c-5.5-3.3-10.7-6.4-15.9-9.5
		c-1.1-0.7-0.6-1.4-0.3-2.1c4-11.1,8.1-22.2,12.1-33.3c0.7-2,1.4-4,2.2-5.9c1.5-3.7,5.3-5.4,9.3-4C59.2,112.6,59.1,112.8,58.9,113z
		 M76.2,125.3c-2.2,7.4-4.3,14.8-6.5,22.1c-0.9,3-1.7,5.9-2.6,8.9c-0.1,0-0.2,0-0.3,0c-0.6-8-1.2-16-1.6-24
		c-0.2-3.1,1.7-5.5,4.5-6.6c1.7-0.6,3.4-1.1,5.1-1.7c0.5-0.2,1.1-0.7,1.6-0.2C76.7,124.3,76.3,124.8,76.2,125.3z"/>
	<path class="st1" d="M178.1,105.7c-10.7-0.1-18.2-11-14-20.6c2.9-6.7,7.1-12.5,11.7-18c1.4-1.6,3.5-1.6,4.8,0
		c4.5,5.5,8.7,11.3,11.6,17.8C196.6,94.7,188.9,105.7,178.1,105.7z"/>
	<path class="st2" d="M66.2,48.6c2.8,1.4,5.7,2.6,8.4,4.1c1.8,1,3.4,1,5.2,0c4.3-2.3,8.8-4.4,13.1-6.7c1.1-0.6,1.6-0.5,2.2,0.6
		c2.6,4.7,5.3,9.3,8,13.9c0.5,0.9,0.4,1.4-0.5,2c-1.7,1.1-3.4,2.2-5.1,3.4c-2,1.4-2.4,2.4-1.5,4.7c2.4,6.4,4.7,12.9,7.3,19.3
		c2.4,6,1.8,11.7-1.7,17.1c-3.1,4.8-6.2,9.7-9.2,14.6c-0.7,1.1-1.2,1.2-2.4,0.6c-8.8-4.9-17.6-9.8-26.4-14.6
		c-7.7-4.2-16.2-1.3-19.3,6.9c-2.9,7.7-5.6,15.4-8.4,23.1c-4,10.9-8,21.8-11.9,32.7c-0.9,0.5-1.5-0.2-1.9-0.8
		c-2.8-3.5-4.3-7.1-2.4-11.8c7.4-18.2,14.6-36.4,21.9-54.7c0.2-0.6,0.4-1.2,0.7-1.8c0.6-1.2,0.2-1.8-1-2.1c-1.5-0.5-3-1.1-4.2-2.2
		c-3.8-3.6-4.4-8.4-1.1-12.5c6.4-8,12.8-16,19.3-24c2.9-3.6,5.7-7.2,8.6-10.7C64.4,49.1,65,48.2,66.2,48.6z"/>
	<path class="st3" d="M66.2,48.6c-1.8,0.4-2.4,2.1-3.3,3.2C56.7,59.4,50.6,67,44.5,74.6c-2.8,3.5-5.7,6.8-8.4,10.4
		c-3.7,4.8-1.6,11.4,4.1,13.4c3.3,1.2,3.3,1.2,2,4.4c-7.5,18.8-15.1,37.6-22.6,56.4c-1.4,3.6,0.8,9.4,4.3,11.1C23,173,23,173,20,173
		c-5,0-8.5-2.4-9.8-6.7c-0.4-1.2-0.3-2.2,0.2-3.3c7.8-19.4,15.6-38.9,23.3-58.4c1.2-3,0.6-4.3-2.5-5.3c-0.5-0.2-1.1-0.4-1.6-0.6
		c-4.6-1.6-5.8-5.7-2.8-9.5c10.4-13,20.8-25.9,31.3-38.9C60.6,47.2,62.9,46.7,66.2,48.6z"/>
	<path class="st4" d="M29.7,172.6c1-2.8,2.1-5.5,2.9-8.3c0.4-1.4,0.9-1.1,1.8-0.6c5.5,3.3,11,6.7,16.5,10c8.4,5,16.9,1.6,19.6-7.8
		c3.8-13.1,7.7-26.1,11.4-39.2c0.4-1.3,0.7-1.7,1.9-0.9c1.1,0.8,2.3,1.4,3.5,2c0.6,0.7,0.2,1.5,0,2.2c-4.1,14.4-8,28.9-12.1,43.3
		c-0.5,1.8-0.9,3.7-1.6,5.5c-2.4,6.1-8.1,8.7-14.3,6.4c-9.4-3.6-18.8-7.2-28.2-10.8C30.6,174.1,29.3,174.1,29.7,172.6z"/>
	<path class="st4" d="M186.3,13.4c1.5,2.2,1.3,4.6,0.9,7c-0.4,1.9-1.4,3-3.4,3.4c-14.7,3.4-29.3,6.9-44,10.4c-4,1-7.7,2.7-11.1,5.2
		c-1.1-2.3-2.2-4.5-3.3-6.7c-0.3-1.5,1-1.8,1.8-2.3c3.7-2.2,7.7-3.3,11.8-4.4c14.7-4.1,29.5-8.2,44.2-12.3
		C184.2,13.3,185.2,12.7,186.3,13.4z"/>
	<path class="st5" d="M186.3,13.4c-5.1,1.4-10.2,2.7-15.2,4.1c-11.6,3.2-23.1,6.4-34.7,9.7c-3.3,0.9-6.4,2.1-9.3,3.8
		c-0.7,0.4-1.5,0.7-1.7,1.7c-1.2-1.4-1.1-2.4,0.6-3.6c3.9-2.5,8.1-4.2,12.5-5.4c14.4-4,28.8-8.1,43.2-12.1
		C184.5,10.8,184.6,10.9,186.3,13.4z"/>
	<path class="st5" d="M29.7,172.6c0.1,0.7,0.6,0.9,1.2,1.1c9.9,3.8,19.7,7.6,29.6,11.3c5.4,2,11.2-0.9,12.9-6.6
		c2.4-8,4.6-16.1,6.9-24.2c2.3-8.3,4.6-16.5,6.9-24.8c0.2-0.5,0.2-1.1,0.4-1.7c1.4,0.3,1.3,1.2,0.9,2.4c-4.4,15.5-8.7,31-13,46.5
		c-0.6,2-1.1,4.1-1.7,6.1c-1.3,4.5-5.3,6.6-9.7,4.9c-11.2-4.2-22.3-8.6-33.5-12.8C29.2,174.4,28.9,173.7,29.7,172.6z"/>
	<path class="st4" d="M58.9,131.8c0.8,11.7,1.7,23.5,2.5,35.2c0.1,0.8,0.5,1.7-0.4,2.3c-0.6,0.4-1.4,0.8-2.2,0.6s-0.6-1.2-0.7-1.8
		c-0.6-8.4-1.1-16.8-1.6-25.2c-0.2-3-0.4-6.1-0.7-9.1c-0.7-7.6,2.4-13.9,8.7-17c1,0.6,0.1,1-0.2,1.4c-2.7,2.9-4.1,6.5-5.2,10.3
		C58.9,129.5,59.2,130.7,58.9,131.8z"/>
	<path class="st4" d="M120,36c1,2,2.1,4.1,3.1,6.1c0.4,0.7,0.3,1.1-0.4,1.6c-1.9,1.3-3.8,2.7-5.7,4.1c-0.6,0.5-0.9,0.4-1.3-0.3
		c-1-2.2-2.1-4.3-3.1-6.5C114.9,38.9,117,36.7,120,36z"/>
	<path class="st4" d="M107.8,45.2c1,1.9,1.9,3.9,3,5.8c0.5,0.9,0.2,1.3-0.5,1.8c-3.2,2.5-3.2,2.5-5.2-1c-0.7-1.2-1.3-2.3-1.9-3.5
		C103.8,46.5,106.1,45,107.8,45.2z"/>
	<path class="st5" d="M58.9,131.8c-0.2-5.3,1.6-9.9,5.1-13.8c0.3-0.3,1-0.5,0.6-1.2c0.9-0.8,1.8-0.8,2.7-0.1c1.1,0.7,2.2,1.3,3.4,2
		c-0.8,0.7-1.6,0.8-2.3,1c-5.5,1.9-8.7,5.6-9.3,11.4C59.1,131.3,58.9,131.5,58.9,131.8z"/>
	<path class="st5" d="M120,36c-2.6,1.4-4.7,3.6-7.3,5c-0.9-0.9-0.9-1.6,0.3-2.4c1.6-1,3.1-2.1,4.6-3.4C119,34,119.7,34.3,120,36z"/>
	<path class="st5" d="M107.8,45.2c-1.9,0.5-3.3,1.8-4.6,3.1c-1.1-1.1-1.2-2.1,0.4-2.9c0.6-0.3,1-0.7,1.5-1.1
		C106.8,43,106.8,43,107.8,45.2z"/>
	<path class="st4" d="M172.1,83.1c1.5-3,3.6-5.7,5.5-8.4c0.5-0.7,0.8-0.6,1.2,0c3,4.2,6.1,8.3,7.9,13.2c1.3,3.3,0.5,6.2-1.9,8.7
		c-1.1,0.5-2.2,0.5-3.3,0.2c-5.3-1.5-8.6-4.8-9.7-10.3C171.6,85.2,171.7,84.1,172.1,83.1z"/>
	<path class="st5" d="M172.1,83.1c-0.3,7.1,4,11.9,10.1,13.3c0.9,0.2,1.8,0.1,2.7,0.2c-3.1,3.4-7.8,4-11.6,1.5
		c-3.8-2.4-5.1-6.9-3.3-11C170.5,85.7,171.1,84.2,172.1,83.1z"/>
</g>
<g>
	<path class="st6" d="M189.2,6.5c-1.8-1.3-3.5-1.6-5.7-1c-14.1,4-28.1,8.1-42.3,11.8c-8.2,2.2-15.6,5.6-22.3,10.8
		c-5.6,4.4-11.5,8.4-17.3,12.6c-0.6,0.4-1.1,1-1.8-0.1c-1.4-2.2-2.5-2.5-5-1.2c-5,2.5-10,5-15,7.5c-0.9,0.5-1.6,0.5-2.5,0
		c-2.4-1.3-4.9-2.5-7.3-3.7c-5.6-2.7-11.1-1.5-15,3.4c-5,6.2-9.9,12.3-14.9,18.5c-5.7,7.1-11.4,14.1-17,21.2
		c-4.8,6.1-3,14.6,3.7,17.8c1.4,0.7,1.6,1.2,1,2.6c-7.4,18.5-14.8,36.9-22.2,55.4c-0.5,1.2-0.7,2.3-0.5,3.5c0.6,5,3,8.9,7.2,11.6
		c2.7,1.7,5.6,2.3,8.7,2.3c2.1,0,4.2-0.3,6.2,0.5c11.7,4.6,23.5,9.1,35.2,13.6c8.5,3.3,16.2-0.5,18.6-9.3
		c4.1-14.8,8.4-29.6,12.3-44.5c2-7.5,4.7-14.6,9.3-20.9c2-2.7,3.6-5.7,5.4-8.5c4.4-6.9,5.2-14.2,2.2-21.9
		c-2.1-5.6-4.2-11.2-6.3-16.8c-0.4-1-0.3-1.5,0.6-2c2-1.2,3.9-2.6,5.9-3.9c1.4-0.9,2.1-2.2,1.3-3.8c-0.5-1.1-0.1-1.5,0.7-2.1
		c7.2-5.2,14.3-10.4,21.5-15.6c2.5-1.8,5.3-3.1,8.3-3.8C157.1,37,172,33.3,187,30c3.4-0.8,5.2-2.6,6.5-5.4c0.9-2,1.3-4.1,1.2-5.8
		C195.1,13.3,193.2,9.4,189.2,6.5z M60.4,113.4c-7.2,5.5-9.9,12.7-9.1,21.6c0.9,10.7,1.5,21.5,2.2,32.6c-5.5-3.3-10.7-6.4-15.9-9.5
		c-1.1-0.7-0.6-1.4-0.3-2.1c4-11.1,8.1-22.2,12.1-33.3c0.7-2,1.4-4,2.2-5.9c1.5-3.7,5.3-5.4,9.3-4C60.7,113,60.6,113.2,60.4,113.4z
		 M77.7,125.7c-2.2,7.4-4.3,14.8-6.5,22.1c-0.9,3-1.7,5.9-2.6,8.9c-0.1,0-0.2,0-0.3,0c-0.6-8-1.2-16-1.6-24
		c-0.2-3.1,1.7-5.5,4.5-6.6c1.7-0.6,3.4-1.1,5.1-1.7c0.5-0.2,1.1-0.7,1.6-0.2C78.2,124.7,77.8,125.2,77.7,125.7z"/>
	<path class="st7" d="M67.7,49c-1.8,0.4-2.4,2.1-3.3,3.2C58.2,59.8,52.1,67.4,46,75c-2.8,3.5-5.7,6.8-8.4,10.4
		c-3.7,4.8-1.6,11.4,4.1,13.4c3.3,1.2,3.3,1.2,2,4.4c-7.5,18.8-15.1,37.6-22.6,56.4c-1.4,3.6,0.8,9.4,4.3,11.1
		c-0.9,2.7-0.9,2.7-3.9,2.7c-5,0-8.5-2.4-9.8-6.7c-0.4-1.2-0.3-2.2,0.2-3.3c7.8-19.4,15.6-38.9,23.3-58.4c1.2-3,0.6-4.3-2.5-5.3
		c-0.5-0.2-1.1-0.4-1.6-0.6c-4.6-1.6-5.8-5.7-2.8-9.5c10.4-13,20.8-25.9,31.3-38.9C62.1,47.6,64.4,47.1,67.7,49z"/>
	<path class="st8" d="M187.8,13.8c-5.1,1.4-10.2,2.7-15.2,4.1c-11.6,3.2-23.1,6.4-34.7,9.7c-3.3,0.9-6.4,2.1-9.3,3.8
		c-0.7,0.4-1.5,0.7-1.7,1.7c-1.2-1.4-1.1-2.4,0.6-3.6c3.9-2.5,8.1-4.2,12.5-5.4c14.4-4,28.8-8.1,43.2-12.1
		C186,11.2,186.1,11.3,187.8,13.8z"/>
	<path class="st9" d="M189.2,6.5c-1.8-1.3-3.5-1.6-5.7-1c-14.1,4-28.1,8.1-42.3,11.8c-8.2,2.2-15.6,5.6-22.3,10.8
		c-5.6,4.4-11.5,8.4-17.3,12.6c-0.6,0.4-1.1,1-1.8-0.1c-1.4-2.2-2.5-2.5-5-1.2c-5,2.5-10,5-15,7.5c-0.9,0.5-1.6,0.5-2.5,0
		c-2.4-1.3-4.9-2.5-7.3-3.7c-5.6-2.7-11.1-1.5-15,3.4c-5,6.2-9.9,12.3-14.9,18.5c-5.7,7.1-11.4,14.1-17,21.2
		c-4.8,6.1-3,14.6,3.7,17.8c1.4,0.7,1.6,1.2,1,2.6c-7.4,18.5-14.8,36.9-22.2,55.4c-0.5,1.2-0.7,2.3-0.5,3.5c0.6,5,3,8.9,7.2,11.6
		c2.7,1.7,5.6,2.3,8.7,2.3c2.1,0,4.2-0.3,6.2,0.5c11.7,4.6,23.5,9.1,35.2,13.6c8.5,3.3,16.2-0.5,18.6-9.3
		c4.1-14.8,8.4-29.6,12.3-44.5c2-7.5,4.7-14.6,9.3-20.9c2-2.7,3.6-5.7,5.4-8.5c4.4-6.9,5.2-14.2,2.2-21.9
		c-2.1-5.6-4.2-11.2-6.3-16.8c-0.4-1-0.3-1.5,0.6-2c2-1.2,3.9-2.6,5.9-3.9c1.4-0.9,2.1-2.2,1.3-3.8c-0.5-1.1-0.1-1.5,0.7-2.1
		c7.2-5.2,14.3-10.4,21.5-15.6c2.5-1.8,5.3-3.1,8.3-3.8C157.1,37,172,33.3,187,30c3.4-0.8,5.2-2.6,6.5-5.4c0.9-2,1.3-4.1,1.2-5.8
		C195.1,13.3,193.2,9.4,189.2,6.5z M88.8,130.4c-4.1,14.4-8,28.9-12.1,43.3c-0.5,1.8-0.9,3.7-1.6,5.5c-2.4,6.1-8.1,8.7-14.3,6.4
		c-9.4-3.6-18.8-7.2-28.2-10.8c-0.5-0.3-1.8-0.3-1.4-1.8c1-2.8,2.1-5.5,2.9-8.3c0.4-1.4,0.9-1.1,1.8-0.6c5.5,3.3,11,6.7,16.5,10
		c8.4,5,16.9,1.6,19.6-7.8c3.8-13.1,7.7-26.1,11.4-39.2c0.4-1.3,0.7-1.7,1.9-0.9c1.1,0.8,2.3,1.4,3.5,2
		C89.4,128.9,89,129.7,88.8,130.4z M66.1,117.2c0.9-0.8,1.8-0.8,2.7-0.1c1.1,0.7,2.2,1.3,3.4,2c-0.8,0.7-1.6,0.8-2.3,1
		c-5.5,1.9-8.7,5.6-9.3,11.4c0,0.1-0.1,0.3-0.2,0.5c0,0.1,0,0.1,0,0.2c0.8,11.7,1.7,23.5,2.5,35.2c0.1,0.8,0.5,1.7-0.4,2.3
		c-0.6,0.4-1.4,0.8-2.2,0.6s-0.6-1.2-0.7-1.8c-0.6-8.4-1.1-16.8-1.6-25.2c-0.2-3-0.4-6.1-0.7-9.1C56.6,126.6,59.7,120.3,66.1,117.2
		c0,0,0,0.1,0,0.1C66.1,117.3,66.1,117.2,66.1,117.2z M76.3,124.4c0.5-0.2,1.1-0.7,1.6-0.2c0.3,0.5-0.1,1-0.2,1.5
		c-2.2,7.4-4.3,14.8-6.5,22.1c-0.9,3-1.7,5.9-2.6,8.9c-0.1,0-0.2,0-0.3,0c-0.6-8-1.2-16-1.6-24c-0.2-3.1,1.7-5.5,4.5-6.6
		C72.9,125.5,74.6,125,76.3,124.4z M60.4,113.4c-7.2,5.5-9.9,12.7-9.1,21.6c0.9,10.7,1.5,21.5,2.2,32.6c-5.5-3.3-10.7-6.4-15.9-9.5
		c-1.1-0.7-0.6-1.4-0.3-2.1c4-11.1,8.1-22.2,12.1-33.3c0.7-2,1.4-4,2.2-5.9c1.5-3.7,5.3-5.4,9.3-4C60.7,113,60.6,113.2,60.4,113.4z
		 M104.1,62.9c-1.7,1.1-3.4,2.2-5.1,3.4c-2,1.4-2.4,2.4-1.5,4.7c2.4,6.4,4.7,12.9,7.3,19.3c2.4,6,1.8,11.7-1.7,17.1
		c-3.1,4.8-6.2,9.7-9.2,14.6c-0.7,1.1-1.2,1.2-2.4,0.6c-8.8-4.9-17.6-9.8-26.4-14.6c-7.7-4.2-16.2-1.3-19.3,6.9
		c-2.9,7.7-5.6,15.4-8.4,23.1c-4,10.9-8,21.8-11.9,32.7c0,0-0.1,0-0.1,0c-0.9,2.6-0.9,2.7-3.9,2.7c-5,0-8.5-2.4-9.8-6.7
		c-0.4-1.2-0.3-2.2,0.2-3.3c7.8-19.4,15.6-38.9,23.3-58.4c1.2-3,0.6-4.3-2.5-5.3c-0.5-0.2-1.1-0.4-1.6-0.6c-4.6-1.6-5.8-5.7-2.8-9.5
		c10.4-13,20.8-25.9,31.3-38.9c2.5-3.1,4.8-3.6,8.1-1.7c2.8,1.4,5.7,2.6,8.4,4.1c1.8,1,3.4,1,5.2,0c4.3-2.3,8.8-4.4,13.1-6.7
		c1.1-0.6,1.6-0.5,2.2,0.6c2.6,4.7,5.3,9.3,8,13.9C105.1,61.8,105,62.3,104.1,62.9z M111.8,53.2c-3.2,2.5-3.2,2.5-5.2-1
		c-0.7-1.2-1.3-2.3-1.9-3.5c0.6-1.8,2.9-3.3,4.6-3.1c1,1.9,1.9,3.9,3,5.8C112.8,52.3,112.5,52.7,111.8,53.2z M124.2,44.1
		c-1.9,1.3-3.8,2.7-5.7,4.1c-0.6,0.5-0.9,0.4-1.3-0.3c-1-2.2-2.1-4.3-3.1-6.5c2.3-2.1,4.4-4.3,7.4-5c1,2,2.1,4.1,3.1,6.1
		C125,43.2,124.9,43.6,124.2,44.1z M188.7,20.8c-0.4,1.9-1.4,3-3.4,3.4c-14.7,3.4-29.3,6.9-44,10.4c-4,1-7.7,2.7-11.1,5.2
		c-1.1-2.3-2.2-4.5-3.3-6.7c-0.3-1.5,1-1.8,1.8-2.3c3.7-2.2,7.7-3.3,11.8-4.4c14.7-4.1,29.5-8.2,44.2-12.3c1-0.4,2-1,3.1-0.3
		C189.3,16,189.1,18.4,188.7,20.8z"/>
	<path class="st7" d="M68.8,117.1c-0.9-0.7-1.8-0.7-2.7,0.1c0,0,0,0.1,0,0.1c0,0-0.1-0.1-0.1-0.1c-6.3,3.1-9.4,9.4-8.7,17
		c0.3,3,0.5,6.1,0.7,9.1c0.5,8.4,1,16.8,1.6,25.2c0.1,0.6-0.1,1.6,0.7,1.8s1.6-0.2,2.2-0.6c0.9-0.6,0.5-1.5,0.4-2.3
		c-0.8-11.7-1.7-23.5-2.5-35.2c0-0.1,0-0.1,0-0.2c0.1-0.2,0.2-0.3,0.2-0.5c0.6-5.8,3.8-9.5,9.3-11.4c0.7-0.2,1.5-0.3,2.3-1
		C71,118.4,69.9,117.8,68.8,117.1z"/>
	<path class="st7" d="M121.5,36.4c-2.6,1.4-4.7,3.6-7.3,5c-0.9-0.9-0.9-1.6,0.3-2.4c1.6-1,3.1-2.1,4.6-3.4
		C120.5,34.4,121.2,34.7,121.5,36.4z"/>
	<path class="st7" d="M109.3,45.6c-1.9,0.5-3.3,1.8-4.6,3.1c-1.1-1.1-1.2-2.1,0.4-2.9c0.6-0.3,1-0.7,1.5-1.1
		C108.3,43.4,108.3,43.4,109.3,45.6z"/>
	<path class="st9" d="M193.7,85.3c-2.9-6.5-7.1-12.3-11.6-17.8c-1.3-1.6-3.4-1.6-4.8,0c-4.6,5.5-8.8,11.3-11.7,18
		c-4.2,9.6,3.3,20.5,14,20.6C190.4,106.1,198.1,95.1,193.7,85.3z M186.3,97c-1.1,0.5-2.2,0.5-3.3,0.2c-5.3-1.5-8.6-4.8-9.7-10.3
		c-0.2-1.3-0.1-2.4,0.3-3.4c1.5-3,3.6-5.7,5.5-8.4c0.5-0.7,0.8-0.6,1.2,0c3,4.2,6.1,8.3,7.9,13.2C189.5,91.6,188.7,94.5,186.3,97z"
		/>
	<path class="st7" d="M173.6,83.5c-0.3,7.1,4,11.9,10.1,13.3c0.9,0.2,1.8,0.1,2.7,0.2c-3.1,3.4-7.8,4-11.6,1.5
		c-3.8-2.4-5.1-6.9-3.3-11C172,86.1,172.6,84.6,173.6,83.5z"/>
	<path class="st7" d="M32.4,169.9c0.1,0.5,34.1,14.6,36.8,14c2.7-0.6,3.5-3.1,4.4-5.4c2.4-8,14.4-50.1,14.6-50.7
		c1.4,0.3,2.2,1.5,1.8,2.7c-4.4,15.5-8.7,31-13,46.5c-0.6,2-1.1,4.1-1.7,6.1c-1.3,4.5-5.3,6.6-9.7,4.9c-11.2-4.2-22.3-8.6-33.5-12.8
		C30.7,174.8,30.8,173.4,32.4,169.9z"/>
</g>
</svg>
