<?xml version="1.0" encoding="utf-8"?>
<!-- Generator: Adobe Illustrator 28.0.0, SVG Export Plug-In . SVG Version: 6.00 Build 0)  -->
<svg version="1.1" id="圖層_1" xmlns="http://www.w3.org/2000/svg" xmlns:xlink="http://www.w3.org/1999/xlink" x="0px" y="0px"
	 viewBox="0 0 200 200" style="enable-background:new 0 0 200 200;" xml:space="preserve">
<style type="text/css">
	.st0{display:none;}
	.st1{display:inline;}
	.st2{fill:#E5D69B;}
	.st3{fill:#D2B864;}
	.st4{fill:#474747;}
	.st5{fill:#8BCFDB;}
	.st6{fill:#46A7B1;}
	.st7{fill:#7BC4B8;}
	.st8{fill:none;stroke:#474747;stroke-width:7;stroke-miterlimit:10;}
	.st9{fill:#B9DFDA;}
	.st10{display:inline;fill:none;stroke:#474747;stroke-width:7;stroke-miterlimit:10;}
	.st11{display:inline;fill:#7BC4B8;}
	.st12{display:inline;fill:#474747;}
	.st13{display:inline;fill:#9C9C71;}
	.st14{fill:#9C9C71;}
	.st15{opacity:0.35;fill:#F7F7F7;}
	.st16{fill:#FFFFFF;}
	.st17{fill:#C4D593;}
</style>
<g class="st0">
	<g class="st1">
		<path class="st2" d="M151.4,181.5H48.6c-24.2,0-44-19.8-44-44v-2.3c0-10.1,8.3-18.4,18.4-18.4h153.8c10.1,0,18.4,8.3,18.4,18.4
			v2.3C195.3,161.7,175.6,181.5,151.4,181.5z"/>
		<path class="st3" d="M180.7,116.9c1.1,2.2,1.8,4.7,1.8,7.3v9.3c0,21.5-17.6,39-39,39H30.8c-5.4,0-10.5-1.1-15.2-3.1
			c7.1,7.4,17.1,12,28.1,12h112.6c21.5,0,39-17.6,39-39v-9.3C195.3,124.7,188.9,117.8,180.7,116.9z"/>
		<path class="st4" d="M156.3,184.2H43.7c-23,0-41.7-18.7-41.7-41.7v-9.3c0-10.5,8.5-19,19-19h158c10.5,0,19,8.5,19,19v9.3
			C198,165.5,179.3,184.2,156.3,184.2z M21,119.5c-7.6,0-13.7,6.1-13.7,13.7v9.3c0,20.1,16.3,36.4,36.4,36.4h112.6
			c20.1,0,36.4-16.3,36.4-36.4v-9.3c0-7.6-6.1-13.7-13.7-13.7H21z"/>
	</g>
	<g class="st1">
		<g>
			<path class="st4" d="M99.9,64.8H67.6c-3.3,0-5.9-2.7-5.9-5.9v-0.4c0-3.3,2.7-5.9,5.9-5.9h32.3c3.3,0,5.9,2.7,5.9,5.9v0.4
				C105.8,62.2,103.1,64.8,99.9,64.8z"/>
			<path class="st5" d="M96.4,56.8H67.6c-1,0-1.8,0.8-1.8,1.8V59c0,1,0.8,1.8,1.8,1.8H96c0.7-0.8,1-1.8,1-2.3
				C97,57.8,96.8,57.3,96.4,56.8z"/>
			<path class="st6" d="M99.9,56.8h-3.4c0.3,0.5,0.5,1,0.5,1.6c0,0.5-0.3,1.5-1,2.3h3.9c1,0,1.8-0.8,1.8-1.8v-0.4
				C101.6,57.6,100.8,56.8,99.9,56.8z"/>
		</g>
		<g>
			<path class="st4" d="M80.4,116.4c-2.1,0-4-0.9-5.2-2.4c-1.3-1.6-1.8-3.6-1.3-5.7c0.6-3,1.3-6,1.9-9c-0.4-0.2-0.8-0.4-1.2-0.6
				c-6.8-3.4-13.9-13-13.5-26.1c0-0.3,0-0.6,0.1-0.8c0.5-2.9,3.1-5.1,6.2-5.1h60.4c1.9,0,4.3,1.2,5,4.7c1.2,5.3-0.9,19.6-12.2,26.6
				l0.5,2.5c0.5,2.5,1.1,5,1.6,7.4c0.6,2.9-0.3,4.8-1.1,5.8c-0.9,1.1-2.5,2.3-5.4,2.4C104.2,116.2,92.3,116.3,80.4,116.4L80.4,116.4
				z M69.4,75.1c0.5,8.7,5.6,14.4,8.9,16.1c0.8,0.4,1.6,0.7,2.5,1.1c0.5,0.2,0.9,0.4,1.4,0.6c1.8,0.8,2.8,2.6,2.5,4.5
				c0,0.3-0.1,0.4-0.1,0.6l-0.5,2.4c-0.5,2.5-1.1,5-1.6,7.5c10.5-0.1,21.1-0.1,31.6-0.2c-0.4-1.8-0.8-3.7-1.2-5.5l-1-4.6
				c-0.1-0.3-0.1-0.5-0.2-0.8l-0.1-0.3c-0.3-1.8,0.5-3.6,2.1-4.4h0.1c0.2-0.1,0.4-0.2,0.6-0.3c8-3.8,10-12.6,10.2-16.7
				C124.6,75.1,69.4,75.1,69.4,75.1z M117.8,99.5L117.8,99.5L117.8,99.5L117.8,99.5z M127.7,75.1L127.7,75.1L127.7,75.1z"/>
			<path class="st5" d="M67.3,70.9c-1,0-1.9,0.7-2.1,1.6c0,0.1,0,0.2,0,0.2C64.9,83.8,70.9,92.2,76.4,95c1.3,0.7,2.7,1.2,4.1,1.8
				c0,0.1,0,0.3-0.1,0.4c-0.8,4-1.7,8-2.5,12c-0.4,1.7,0.8,3.1,2.5,3c11.9-0.1,23.8-0.2,35.7-0.3c2.1,0,2.9-1.1,2.5-3.1
				c-0.9-4-1.7-8-2.6-12c-0.1-0.3-0.1-0.7-0.2-1c0.2-0.1,0.3-0.2,0.4-0.2c13.6-6.3,14-24.7,11.5-24.7
				C127.7,70.9,67.3,70.9,67.3,70.9z"/>
			<g>
				<path class="st7" d="M75.6,94.5c0-0.1,0-0.3,0.1-0.4c-0.6-0.2-1.1-0.5-1.7-0.7C74.5,93.8,75.1,94.2,75.6,94.5z"/>
				<path class="st6" d="M127.7,70.9H124c0.4,5.3-2.2,17.2-12.6,22c-0.1,0-0.2,0.1-0.4,0.2c0.1,0.3,0.1,0.6,0.2,1
					c0.9,4,1.7,8,2.6,12c0.4,2-0.4,3.1-2.5,3.1c-11.1,0.1-22.3,0.2-33.4,0.2c-0.1,1.5,0.9,2.7,2.5,2.7c11.9-0.1,23.8-0.2,35.7-0.3
					c2.1,0,2.9-1.1,2.5-3.1c-0.9-4-1.7-8-2.6-12c-0.1-0.3-0.1-0.7-0.2-1c0.2-0.1,0.3-0.2,0.4-0.2C129.7,89.3,130.1,70.9,127.7,70.9z
					"/>
			</g>
		</g>
		<g>
			<path class="st4" d="M121.5,65.9h-6.6c-5.1,0-9.3-4.2-9.3-9.3V26.1c0-5.1,4.2-9.3,9.3-9.3h6.6c5.1,0,9.3,4.2,9.3,9.3v30.5
				C130.7,61.7,126.6,65.9,121.5,65.9z M114.9,25.2c-0.5,0-0.9,0.4-0.9,0.9v30.5c0,0.5,0.4,0.9,0.9,0.9h6.6c0.5,0,0.9-0.4,0.9-0.9
				V26.1c0-0.5-0.4-0.9-0.9-0.9H114.9z"/>
			<path class="st5" d="M120.5,61.7h-4.6c-3.4,0-6.1-2.7-6.1-6.1V27.1c0-3.4,2.7-6.1,6.1-6.1h4.6c3.4,0,6.1,2.7,6.1,6.1v28.5
				C126.5,58.9,123.8,61.7,120.5,61.7z"/>
			<path class="st6" d="M122.8,21.2c0.6,0.8,0.9,1.8,0.9,2.9v30.5c0,2.8-2.3,5.1-5.1,5.1H112c-0.5,0-1-0.1-1.4-0.2
				c0.9,1.3,2.5,2.2,4.2,2.2h6.6c2.8,0,5.1-2.3,5.1-5.1V26.1C126.5,23.8,125,21.8,122.8,21.2z"/>
		</g>
	</g>
	<g class="st1">
		<g>
			<path class="st8" d="M132.4,153.6c-1.9,0-3.5-1.6-3.5-3.5l-0.2-19.2c-0.2-1-1.1-2.9-4.5-2.9c-3.1,0-3.9,1.4-4,2.6l-0.3,11.6
				c-0.1,1.8-0.8,4.5-2.2,6.3c-1.5,1.9-4.3,4.1-9.3,4.1c-4.3,0-8-2.3-9.9-6.3c-0.6-1.2-0.9-2.6-0.9-4v-22.9c0-1.9,1.6-3.5,3.5-3.5
				s3.5,1.6,3.5,3.5v22.9c0,0.3,0.1,0.7,0.2,0.9c1,2.1,2.5,2.3,3.6,2.3c2.6,0,3.5-1.1,3.7-1.4c0.3-0.3,0.7-1.5,0.7-2.2l0.3-11.7
				c0.1-3.8,3.1-9.4,11-9.4c8,0,11,6,11.5,9.1c0,0.2,0,0.3,0,0.5l0.2,19.5C135.9,152,134.4,153.6,132.4,153.6L132.4,153.6z"/>
			<path class="st9" d="M132.4,153.6c-1.9,0-3.5-1.6-3.5-3.5l-0.2-19.2c-0.2-1-1.1-2.9-4.5-2.9c-3.1,0-3.9,1.4-4,2.6l-0.3,11.6
				c-0.1,1.8-0.8,4.5-2.2,6.3c-1.5,1.9-4.3,4.1-9.3,4.1c-4.3,0-8-2.3-9.9-6.3c-0.6-1.2-0.9-2.6-0.9-4v-22.9c0-1.9,1.6-3.5,3.5-3.5
				s3.5,1.6,3.5,3.5v22.9c0,0.3,0.1,0.7,0.2,0.9c1,2.1,2.5,2.3,3.6,2.3c2.6,0,3.5-1.1,3.7-1.4c0.3-0.3,0.7-1.5,0.7-2.2l0.3-11.7
				c0.1-3.8,3.1-9.4,11-9.4c8,0,11,6,11.5,9.1c0,0.2,0,0.3,0,0.5l0.2,19.5C135.9,152,134.4,153.6,132.4,153.6L132.4,153.6z"/>
		</g>
		<g>
			<path class="st8" d="M104.5,120.7H98c-1.5,0-2.7-1.2-2.7-2.7l0,0c0-1.5,1.2-2.7,2.7-2.7h6.5c1.5,0,2.7,1.2,2.7,2.7l0,0
				C107.2,119.5,105.9,120.7,104.5,120.7z"/>
			<path class="st7" d="M104.5,120.7H98c-1.5,0-2.7-1.2-2.7-2.7l0,0c0-1.5,1.2-2.7,2.7-2.7h6.5c1.5,0,2.7,1.2,2.7,2.7l0,0
				C107.2,119.5,105.9,120.7,104.5,120.7z"/>
		</g>
		<g class="st0">
			<path class="st10" d="M119.5,140.1H113c-1.5,0-2.7-1.2-2.7-2.7l0,0c0-1.5,1.2-2.7,2.7-2.7h6.5c1.5,0,2.7,1.2,2.7,2.7l0,0
				C122.2,138.9,121,140.1,119.5,140.1z"/>
			<path class="st11" d="M119.5,140.1H113c-1.5,0-2.7-1.2-2.7-2.7l0,0c0-1.5,1.2-2.7,2.7-2.7h6.5c1.5,0,2.7,1.2,2.7,2.7l0,0
				C122.2,138.9,121,140.1,119.5,140.1z"/>
		</g>
		<g>
			<path class="st8" d="M135.5,156H129c-1.5,0-2.7-1.2-2.7-2.7l0,0c0-1.5,1.2-2.7,2.7-2.7h6.5c1.5,0,2.7,1.2,2.7,2.7l0,0
				C138.2,154.8,137,156,135.5,156z"/>
			<path class="st7" d="M135.5,156H129c-1.5,0-2.7-1.2-2.7-2.7l0,0c0-1.5,1.2-2.7,2.7-2.7h6.5c1.5,0,2.7,1.2,2.7,2.7l0,0
				C138.2,154.8,137,156,135.5,156z"/>
		</g>
	</g>
	<path class="st12" d="M52.1,144.8c-1.5,0-3.1-0.2-4.6-0.6c-1.4-0.4-2.1-1.4-1.8-2.6c0.3-1.2,1.4-1.8,2.8-1.5c4.1,1,7.8,0.5,11.3-2
		c4.7-3.3,9.9-4,15.3-2.4c1.8,0.5,3.5,1.6,5.1,2.7c2.1,1.4,4.3,2.1,6.7,2.1c0.2,0,0.4,0,0.5,0c1.2,0.2,2,1.1,1.9,2.3
		s-0.9,1.9-2.2,1.9c-3.2,0.1-6.1-0.8-8.8-2.5c-2.1-1.3-4.1-2.7-6.7-3c-3.1-0.4-6,0.1-8.7,1.8c-2.5,1.6-5.1,3.1-8,3.5
		C54,144.7,53,144.7,52.1,144.8z"/>
	<path class="st12" d="M135.6,173.2c-1.4,0-2.8-0.2-4.1-0.5c-1.2-0.3-1.9-1.2-1.6-2.3c0.3-1.1,1.2-1.6,2.5-1.3
		c3.6,0.9,7,0.4,10.1-1.8c4.2-2.9,8.8-3.6,13.7-2.1c1.6,0.5,3.2,1.4,4.6,2.4c1.9,1.2,3.8,1.9,6,1.9c0.1,0,0.3,0,0.5,0
		c1.1,0.2,1.8,1,1.7,2.1c-0.1,1-0.8,1.7-2,1.7c-2.9,0.1-5.5-0.7-7.9-2.3c-1.9-1.2-3.7-2.4-6-2.7c-2.8-0.3-5.3,0.1-7.7,1.6
		c-2.3,1.4-4.5,2.8-7.2,3.2C137.2,173.1,136.4,173.1,135.6,173.2z"/>
	<path class="st12" d="M159.1,128c-0.1,0.3-0.1,0.6-0.3,1c-1.6,4.5-4.7,7.7-8.8,9.9c-1.2,0.6-2.2,0.3-2.7-0.6
		c-0.5-1-0.3-2.1,0.8-2.7c3.5-1.9,6-4.7,7.3-8.4c0.4-1,1.2-1.4,2.2-1.2C158.6,126.3,159,126.9,159.1,128z"/>
	<path class="st12" d="M78.7,155.9c-0.3,0.1-0.6,0.3-0.9,0.4c-4.5,1.5-9,1.2-13.3-0.7c-1.2-0.5-1.6-1.5-1.2-2.5c0.4-1,1.4-1.5,2.6-1
		c3.6,1.6,7.4,1.8,11.1,0.5c1.1-0.3,1.9,0,2.3,0.9C79.7,154.4,79.5,155.1,78.7,155.9z"/>
	<path class="st12" d="M187.1,143.7c-0.3,0.1-0.6,0.3-0.9,0.4c-4.5,1.5-9,1.2-13.3-0.7c-1.2-0.5-1.6-1.5-1.2-2.5
		c0.4-1,1.4-1.5,2.6-1c3.6,1.6,7.4,1.8,11.1,0.5c1.1-0.3,1.9,0,2.3,0.9C188.1,142.2,187.9,142.9,187.1,143.7z"/>
	<path class="st12" d="M23.5,144.2c1.7,0.1,3.6,0.4,5.3,1.2c1.2,0.5,1.6,1.5,1.2,2.5s-1.4,1.4-2.6,1c-1.4-0.5-2.7-0.8-4.2-0.9
		c-1.5-0.1-2.3-0.8-2.3-1.9C20.9,144.8,21.9,144.1,23.5,144.2z"/>
	<path class="st12" d="M46.5,129.6c0,1-0.8,1.9-1.9,1.9c-1.1,0-2-0.9-1.9-1.9c0-1,0.9-1.9,1.9-1.9C45.6,127.7,46.5,128.6,46.5,129.6
		z"/>
	<path class="st12" d="M95.7,156.3c1,0.1,1.9,1,1.8,2.1c-0.1,1-0.9,1.8-1.9,1.8c-1.1,0-1.9-0.9-1.8-2
		C93.8,157.1,94.7,156.2,95.7,156.3z"/>
	<path class="st12" d="M113.4,165.3c1,0.1,1.9,1,1.8,2.1c-0.1,1-0.9,1.8-1.9,1.8c-1.1,0-1.9-0.9-1.8-2
		C111.6,166,112.5,165.2,113.4,165.3z"/>
	<path class="st12" d="M30.6,169.4c-1.5,0.1-3.1,0.6-4.6-0.1c-0.5-0.7-1-1.4-0.5-2.3c0.4-1,1.2-1.2,2.2-1.2c2.4,0,4.5-0.8,6.4-2.2
		c4.1-2.9,8.6-3.5,13.5-2.2c1.8,0.5,3.3,1.5,4.8,2.5c1.8,1.2,3.8,1.9,5.9,1.9c2.3,0.1,2.9,1.5,1.7,3.4c-1.6,0.8-3.2,0.2-4.8,0.1
		c-2,0.1-3.6-1-5.1-2c-1.9-1.2-3.8-2.1-6-2.3c-2.3-0.1-4.5,0.3-6.5,1.4c-1.5,0.9-2.9,1.9-4.5,2.5C32.2,169.3,31.5,169.5,30.6,169.4z
		"/>
	<path class="st13" d="M172,131.1c-1.1,0-2-0.8-2.1-1.9c-0.1-1.2,0.9-2.1,2.1-2.1c1.1,0,2,1,2,2C174,130.2,173.1,131.1,172,131.1z"
		/>
	<path class="st13" d="M79.4,129.6c-1.1,0-2-1-2-2c0-1.1,1-2,2-2.1c1.2,0,2.1,1,2.1,2.1C81.4,128.8,80.5,129.7,79.4,129.6z"/>
	<g class="st1">
		<path class="st8" d="M21.2,132.9c0,1.7-1.3,3-3,3s-3-1.2-3.1-2.9c-0.1-1.8,1.3-3.2,3-3.2C19.8,129.8,21.1,131.2,21.2,132.9z"/>
		<path class="st14" d="M21.2,132.9c0,1.7-1.3,3-3,3s-3-1.2-3.1-2.9c-0.1-1.8,1.3-3.2,3-3.2C19.8,129.8,21.1,131.2,21.2,132.9z"/>
	</g>
	<path class="st13" d="M44.8,148.6c0,1.7-1.3,3-3,3s-3-1.2-3.1-2.9c-0.1-1.8,1.3-3.2,3-3.2C43.4,145.5,44.7,147,44.8,148.6z"/>
	<g class="st1">
		<path class="st8" d="M84.4,169.6c0,2.1-1.7,3.7-3.7,3.7s-3.7-1.5-3.9-3.6c-0.1-2.2,1.7-4,3.7-4C82.6,165.8,84.3,167.6,84.4,169.6z
			"/>
		<path class="st14" d="M84.4,169.6c0,2.1-1.7,3.7-3.7,3.7s-3.7-1.5-3.9-3.6c-0.1-2.2,1.7-4,3.7-4C82.6,165.8,84.3,167.6,84.4,169.6
			z"/>
	</g>
	<g class="st1">
		<path class="st8" d="M163.6,152.3c0,2.6-2,4.7-4.5,4.7s-4.5-2-4.6-4.6c-0.2-2.8,2-5.1,4.5-5.1
			C161.4,147.4,163.4,149.7,163.6,152.3z"/>
		<path class="st14" d="M163.6,152.3c0,2.6-2,4.7-4.5,4.7s-4.5-2-4.6-4.6c-0.2-2.8,2-5.1,4.5-5.1
			C161.4,147.4,163.4,149.7,163.6,152.3z"/>
	</g>
</g>
<g>
	<path class="st15" d="M187.4,117.5H10.6V174c0,12.4,2.4,21.2,17.9,18.5c16.4-2.9,18.3,3.9,44.9,3.9c5.8,0,25.7-6.7,35.9-6.6
		c10.2,0.1,21,5.1,30.5,4.7c9.5-0.4,17,3.1,24.2,2.7c7.2-0.4,15.1-3.2,18.3-8c3.2-4.8,5.1-9.3,5.1-15.1V117.5z"/>
	<g>
		<path class="st16" d="M106.2,45.4H68.4c-3.8,0-7,3.1-7,7v0.4c0,3.8,3.1,7,7,7h37.8c3.8,0,7-3.1,7-7v-0.4
			C113.2,48.5,110.1,45.4,106.2,45.4z M101.7,54.8H68.4c-1.1,0-2.1-0.9-2.1-2.1v-0.4c0-1.1,0.9-2.1,2.1-2.1h33.8
			c0.4,0.5,0.6,1.2,0.6,1.8C102.8,52.7,102.5,53.9,101.7,54.8z"/>
		<path class="st17" d="M106.2,50.3h-4c0.4,0.5,0.6,1.2,0.6,1.8c0,0.6-0.3,1.7-1.1,2.7h4.5c1.1,0,2.1-0.9,2.1-2.1v-0.4
			C108.3,51.2,107.3,50.3,106.2,50.3z"/>
	</g>
	<g>
		<path class="st16" d="M144.7,67.5c-0.9-4.1-3.6-5.5-5.9-5.5H68c-3.6,0-6.6,2.5-7.3,5.9c-0.1,0.3-0.1,0.6-0.1,1
			c-0.4,15.3,7.9,26.5,15.9,30.6c0.5,0.2,0.9,0.5,1.4,0.7c-0.7,3.5-1.5,7.1-2.2,10.6c-0.5,2.4,0.1,4.8,1.5,6.7
			c1.5,1.8,3.7,2.8,6.2,2.8c0,0,0,0,0.1,0c14-0.1,27.9-0.2,41.9-0.3c3.4,0,5.3-1.5,6.3-2.8c1-1.3,2.1-3.5,1.3-6.8
			c-0.6-2.9-1.2-5.8-1.9-8.7l-0.6-2.9C143.7,90.4,146.1,73.6,144.7,67.5z M125.3,95.8c-0.1,0-0.2,0.1-0.4,0.2
			c0.1,0.4,0.1,0.8,0.2,1.1c1,4.7,2,9.4,3,14.1c0.5,2.4-0.5,3.7-2.9,3.7c-14,0.1-27.9,0.2-41.9,0.3c-2,0-3.3-1.6-2.9-3.6
			c1-4.7,2-9.4,2.9-14c0-0.2,0.1-0.4,0.1-0.5c-1.6-0.7-3.2-1.3-4.8-2.1C72.3,91.8,65.2,82,65.5,69c0-0.1,0-0.2,0-0.3
			c0.2-1.1,1.3-1.9,2.4-1.9h70.9C141.7,66.9,141.2,88.5,125.3,95.8z"/>
		<g>
			<path class="st7" d="M77.8,94.5c0-0.2,0.1-0.3,0.1-0.5c-0.6-0.3-1.3-0.5-1.9-0.8C76.5,93.7,77.1,94.2,77.8,94.5z"/>
			<path class="st17" d="M138.9,66.9h-4.4c0.5,6.2-2.6,20.2-14.8,25.9c-0.1,0-0.2,0.1-0.4,0.2c0.1,0.4,0.1,0.8,0.2,1.1
				c1,4.7,2,9.4,3,14.1c0.5,2.4-0.5,3.7-2.9,3.7c-13.1,0.1-26.1,0.2-39.2,0.3c-0.1,1.8,1.1,3.1,3,3.1c14-0.1,27.9-0.2,41.9-0.3
				c2.4,0,3.4-1.3,2.9-3.7c-1-4.7-2-9.4-3-14.1c-0.1-0.4-0.1-0.8-0.2-1.1c0.2-0.1,0.3-0.2,0.4-0.2C141.2,88.5,141.7,66.9,138.9,66.9
				z"/>
		</g>
	</g>
	<path class="st16" d="M131.5,3.4h-7.7c-6,0-10.9,4.9-10.9,10.9v35.7c0,6,4.9,10.9,10.9,10.9h7.7c6,0,10.9-4.9,10.9-10.9V14.3
		C142.4,8.3,137.5,3.4,131.5,3.4z M137.5,50.7c0,2.9-2.4,5.3-5.3,5.3h-9c-2.9,0-5.3-2.4-5.3-5.3v-37c0-2.9,2.4-5.3,5.3-5.3h9
		c2.9,0,5.3,2.4,5.3,5.3V50.7z"/>
	<path class="st17" d="M133.4,8.3c0.7,1,1.1,2.1,1.1,3.4v36.4c0,3.4-2.7,6.1-6.1,6.1h-7.8c-0.6,0-1.1-0.1-1.7-0.2
		c1.1,1.6,2.9,2.7,5,2.7h7.8c3.4,0,6.1-2.7,6.1-6.1V14.2C137.9,11.4,136,9,133.4,8.3z"/>
	<path class="st16" d="M50.2,153.5c-1.8,0-3.7-0.3-5.4-0.7c-1.6-0.4-2.4-1.6-2.1-3.1c0.4-1.4,1.6-2.2,3.2-1.7
		c4.8,1.2,9.2,0.5,13.2-2.3c5.5-3.9,11.6-4.7,18-2.8c2.2,0.6,4.1,1.9,6,3.1c2.4,1.6,5,2.5,7.9,2.5c0.2,0,0.4,0,0.6,0
		c1.4,0.3,2.3,1.3,2.2,2.7c-0.1,1.3-1.1,2.2-2.6,2.2c-3.8,0.1-7.2-0.9-10.3-3c-2.4-1.5-4.9-3.1-7.9-3.5c-3.7-0.4-7,0.1-10.2,2.2
		c-3,1.9-5.9,3.7-9.4,4.1C52.4,153.4,51.3,153.4,50.2,153.5z"/>
	<path class="st16" d="M139.1,187.7c-1.6,0-3.3-0.2-4.8-0.6c-1.4-0.4-2.2-1.4-1.8-2.7c0.3-1.3,1.4-1.9,2.9-1.5
		c4.3,1,8.2,0.5,11.8-2.1c4.9-3.5,10.4-4.2,16.1-2.5c1.9,0.6,3.7,1.7,5.4,2.8c2.2,1.4,4.5,2.3,7.1,2.3c0.2,0,0.4,0,0.6,0
		c1.3,0.2,2.1,1.2,2,2.4c-0.1,1.2-1,2-2.3,2c-3.4,0.1-6.4-0.8-9.2-2.7c-2.2-1.4-4.3-2.8-7.1-3.1c-3.3-0.4-6.3,0.1-9.1,1.9
		c-2.7,1.7-5.3,3.3-8.4,3.7C141,187.6,140.1,187.6,139.1,187.7z"/>
	<path class="st16" d="M175.7,133.8c-0.1,0.3-0.2,0.7-0.3,1.1c-1.9,5.2-5.5,9.1-10.4,11.7c-1.4,0.7-2.6,0.4-3.2-0.7
		c-0.6-1.1-0.3-2.4,1-3.1c4.1-2.2,7-5.5,8.6-9.8c0.5-1.2,1.4-1.7,2.6-1.4C175.1,131.8,175.6,132.5,175.7,133.8z"/>
	<path class="st16" d="M81.4,166.5c-0.3,0.1-0.7,0.3-1.1,0.4c-5.3,1.7-10.5,1.4-15.6-0.9c-1.4-0.6-1.9-1.8-1.4-3
		c0.5-1.2,1.7-1.8,3.1-1.2c4.2,1.9,8.6,2.1,13,0.6c1.2-0.4,2.2,0,2.7,1.1C82.5,164.8,82.3,165.6,81.4,166.5z"/>
	<path class="st16" d="M16.7,152.8c2,0.2,4.2,0.5,6.2,1.4c1.4,0.6,1.9,1.8,1.4,3c-0.5,1.2-1.7,1.7-3.1,1.1c-1.6-0.6-3.2-1-4.9-1
		c-1.8-0.1-2.7-1-2.7-2.3C13.6,153.5,14.7,152.7,16.7,152.8z"/>
	<path class="st16" d="M43.6,135.7c0,1.2-1,2.2-2.2,2.2c-1.3,0-2.3-1-2.3-2.3c0-1.1,1-2.2,2.2-2.2C42.5,133.4,43.6,134.5,43.6,135.7
		z"/>
	<path class="st16" d="M101.3,167c1.2,0.1,2.2,1.1,2.1,2.4c-0.1,1.2-1,2.1-2.3,2.1c-1.3,0-2.2-1-2.1-2.3
		C99.1,167.9,100.2,166.9,101.3,167z"/>
	<path class="st16" d="M122.1,177.5c1.2,0.1,2.2,1.1,2.1,2.4c-0.1,1.2-1,2.1-2.3,2.1c-1.3,0-2.2-1-2.1-2.3
		C120,178.4,121,177.4,122.1,177.5z"/>
	<path class="st16" d="M30,180.1c-1.8,0.2-3.6,0.7-5.4-0.1c-0.6-0.8-1.1-1.6-0.6-2.7c0.5-1.1,1.4-1.4,2.6-1.4c2.8,0,5.2-1,7.5-2.6
		c4.8-3.4,10.1-4.1,15.8-2.6c2.1,0.6,3.9,1.8,5.6,2.9c2.1,1.4,4.4,2.2,6.9,2.3c2.7,0.1,3.5,1.8,2,4c-1.8,0.9-3.8,0.2-5.6,0.1
		c-2.3,0.1-4.2-1.2-6-2.3c-2.2-1.4-4.4-2.5-7.1-2.7c-2.7-0.2-5.3,0.3-7.6,1.7c-1.8,1-3.4,2.3-5.3,3C31.8,180,30.9,180.2,30,180.1z"
		/>
	<path class="st16" d="M159.5,131.6c-1.3,0-2.3-1-2.4-2.3c-0.1-1.4,1-2.5,2.4-2.5c1.3,0,2.3,1.1,2.3,2.3
		C161.8,130.5,160.8,131.6,159.5,131.6z"/>
	<path class="st16" d="M82.2,135.7c-1.3,0-2.3-1.1-2.3-2.3c0-1.3,1.1-2.3,2.3-2.4c1.4,0,2.4,1.1,2.4,2.5
		C84.6,134.7,83.5,135.8,82.2,135.7z"/>
	<path class="st16" d="M29.3,138.4c-0.2-3.7-3.2-6.5-6.7-6.5c-1.8,0-3.5,0.8-4.8,2.1c-1.3,1.3-1.9,3.1-1.8,4.9
		c0.2,3.6,3.1,6.3,6.7,6.3c3.6,0,6.6-3,6.6-6.6L29.3,138.4z M22.7,142.1c-1.9,0-3.5-1.5-3.6-3.4c-0.1-2.1,1.6-3.8,3.5-3.8
		c1.9,0,3.5,1.7,3.6,3.6C26.2,140.5,24.6,142.1,22.7,142.1z"/>
	<path class="st16" d="M41.7,158c0,1.9-1.6,3.5-3.5,3.5s-3.5-1.5-3.6-3.4c-0.1-2.1,1.6-3.8,3.5-3.8C40,154.4,41.5,156.1,41.7,158z"
		/>
	<path class="st16" d="M91.2,182.4c-0.3-4.1-3.7-7.4-7.6-7.4c-2,0-4,0.9-5.4,2.4c-1.4,1.5-2.2,3.5-2,5.6c0.3,4,3.5,7.1,7.6,7.1
		c4.1,0,7.4-3.3,7.4-7.4L91.2,182.4z M83.7,187c-2.4,0-4.4-1.8-4.5-4.2c-0.2-2.6,2-4.7,4.4-4.7s4.4,2.1,4.5,4.5
		C88.1,185,86.1,187,83.7,187z"/>
	<path class="st16" d="M184,162.1c-0.3-4.8-4.1-8.6-8.5-8.6c-2.2,0-4.4,1-5.9,2.6c-1.7,1.7-2.5,4.1-2.4,6.6c0.3,4.7,3.9,8.2,8.5,8.2
		c4.6,0,8.3-3.9,8.3-8.6L184,162.1z M175.7,167.9c-2.9,0-5.2-2.3-5.4-5.4c-0.2-3.3,2.4-5.9,5.2-5.9c2.9,0,5.2,2.7,5.4,5.7
		C180.9,165.4,178.6,167.9,175.7,167.9z"/>
	<path class="st16" d="M186.9,120.1H13.1c-1.7,0-3.1-1.4-3.1-3.1c0-1.7,1.4-3.1,3.1-3.1h173.9c1.7,0,3.1,1.4,3.1,3.1
		C190,118.7,188.6,120.1,186.9,120.1z"/>
	<path class="st16" d="M151.1,157.8h0.4l-0.2-21c0-0.3,0-0.7-0.1-1c-0.7-4.6-5.1-13.3-16.5-13.3c-10.2,0-15.8,7.2-16,14l-0.4,13.7
		c0,0.2-0.1,0.6-0.2,0.9c-0.4,0.3-1.5,0.4-1.8,0.4c-0.5,0-0.9,0-1.3-0.9v-22.9c1.7-0.9,2.9-2.8,2.9-4.9v-1.4c0-3.1-2.5-5.6-5.6-5.6
		h-8.9c-3.1,0-5.6,2.5-5.6,5.6v1.4c0,2,1.1,3.8,2.7,4.8v23.1c0,2.1,0.5,4.2,1.4,6.1c2.8,5.8,8.1,9.1,14.4,9.1c7.1,0,11.1-3.3,13.3-6
		c2.1-2.7,3.1-6.6,3.2-9.2l0.4-13.5c0.2-0.1,0.6-0.2,1.6-0.2c1.5,0,2,0.5,2.2,0.9l0.2,20h0.2c-1.8,0.9-3.1,2.8-3.1,5v1.4
		c0,3.1,2.5,5.6,5.6,5.6h8.9c3.1,0,5.6-2.5,5.6-5.6v-1.4C154.2,160.6,152.9,158.7,151.1,157.8z M100.8,121.4c0-1.4,1.1-2.5,2.5-2.5
		h8.9c1.4,0,2.5,1.1,2.5,2.5v1.4c0,1.4-1.1,2.5-2.5,2.5h-8.9c-1.4,0-2.5-1.1-2.5-2.5V121.4z M134.7,133.8c-3.6,0-4.5,1.7-4.6,3.1
		l-0.4,13.7c-0.1,2.1-0.9,5.3-2.6,7.4c-1.7,2.2-5,4.8-10.9,4.8c-5.1,0-9.3-2.7-11.6-7.4c-0.7-1.4-1.1-3.1-1.1-4.7v-22.4h8.3v22.4
		c0,0.4,0.1,0.8,0.2,1.1c1.2,2.5,3,2.7,4.2,2.7c3.1,0,4-1.2,4.4-1.7c0.3-0.4,0.8-1.8,0.8-2.6l0.4-13.7c0.1-4.4,3.6-11.1,12.9-11.1
		c9.3,0,12.9,7,13.4,10.7c0,0.2,0,0.4,0,0.6l0.2,20.4h-8.3l-0.2-19.9C139.7,136.1,138.6,133.8,134.7,133.8z M151.1,164.1
		c0,1.4-1.1,2.5-2.5,2.5h-8.9c-1.4,0-2.5-1.1-2.5-2.5v-1.4c0-1.4,1.1-2.5,2.5-2.5h8.9c1.4,0,2.5,1.1,2.5,2.5V164.1z"/>
</g>
</svg>
